<svg
  width="420"
  height="420"
  viewBox="0 0 420 420"
  fill="none"
  xmlns="http://www.w3.org/2000/svg"
>
  <path
    fill-rule="evenodd"
    clip-rule="evenodd"
    d="M250.311 183.666L365.504 68.4879L351.548 54.5302L240.05 166.014L303.324 21.6275L285.245 13.7052L219.885 162.853V0H200.148V157.603L142.81 10.8085L124.425 17.9897L183.692 169.723L68.4838 54.5302L54.5279 68.4879L165.983 179.928L21.6293 116.676L13.7077 134.754L162.953 200.15H0V219.888H157.59L10.8117 277.228L17.9939 295.613L169.712 236.343L54.5279 351.512L68.4838 365.47L179.923 254.045L116.676 398.373L134.754 406.295L200.148 257.07V420H219.885V262.386L277.228 409.192L295.613 402.011L236.35 250.286L351.548 365.47L365.504 351.512L254.041 240.063L398.413 303.324L406.335 285.246L257.178 219.888H420V200.15H262.358L409.234 142.772L402.052 124.387L250.311 183.666Z"
  />

  <style>
    path {
      fill: #1d1d1b;
    }

    @media (prefers-color-scheme: dark) {
      path {
        fill: #fff;
      }
    }
  </style>
</svg>
