<svg
  width="420"
  height="421"
  viewBox="0 0 420 421"
  fill="none"
  xmlns="http://www.w3.org/2000/svg"
>
  <path
    d="M419.999 210.072H209.99V420.254C209.981 392.658 215.405 365.33 225.954 339.831C236.504 314.332 251.971 291.162 271.473 271.644C290.975 252.126 314.129 236.642 339.614 226.078C365.098 215.513 392.413 210.074 419.999 210.072V210.072Z"
  />
  <path
    d="M0 210.072H209.99V420.254C210.002 392.659 204.58 365.331 194.033 339.832C183.485 314.333 168.02 291.163 148.519 271.645C129.019 252.127 105.866 236.643 80.3826 226.078C54.8992 215.513 27.585 210.074 0 210.072V210.072Z"
  />
  <path
    d="M419.999 210.071H209.99V0C209.995 55.7161 232.123 109.149 271.507 148.544C310.891 187.94 364.304 210.071 419.999 210.071V210.071Z"
  />
  <path
    d="M0 210.071H209.99V0C209.99 55.7144 187.866 109.147 148.486 148.543C109.105 187.939 55.6929 210.071 0 210.071V210.071Z"
  />

  <style>
    path {
      fill: #1d1d1b;
    }

    @media (prefers-color-scheme: dark) {
      path {
        fill: #fff;
      }
    }
  </style>
</svg>
