<svg
  width="48"
  height="48"
  viewBox="0 0 48 48"
  fill="none"
  xmlns="http://www.w3.org/2000/svg"
  aria-hidden="true"
  focusable="false"
>
  <path
    d="M48 9.346a19.905 19.905 0 0 1-5.656 1.526c2.034-1.2 3.596-3.1 4.33-5.363a19.916 19.916 0 0 1-6.254 2.353A9.904 9.904 0 0 0 33.232 4.8c-6.358 0-11.03 5.84-9.594 11.902A28.106 28.106 0 0 1 3.342 6.574C.762 10.93 2.004 16.63 6.388 19.517a9.926 9.926 0 0 1-4.458-1.213c-.108 4.491 3.162 8.693 7.898 9.628-1.386.37-2.904.457-4.448.165 1.252 3.851 4.888 6.653 9.2 6.731-4.14 3.196-9.356 4.623-14.58 4.017A28.2 28.2 0 0 0 15.096 43.2c18.284 0 28.614-15.201 27.99-28.836A19.878 19.878 0 0 0 48 9.346Z"
    fill="currentColor"
  />
</svg>
