<svg width="50" height="40" viewBox="0 0 50 40" fill="none">
  <path
    d="M50 4.73544C48.1604 5.53938 46.1833 6.0808 44.1083 6.32486C46.2271 5.07588 47.8542 3.0968 48.6187 0.73831C46.6375 1.895 44.4417 2.73585 42.1042 3.18909C40.2354 1.22642 37.5667 0 34.6167 0C27.9937 0 23.1271 6.08285 24.6229 12.3975C16.1 11.977 8.54167 7.95734 3.48125 1.84783C0.79375 6.38638 2.0875 12.3236 6.65417 15.3302C4.975 15.2769 3.39167 14.8236 2.01042 14.0669C1.89792 18.7449 5.30417 23.1214 10.2375 24.0956C8.79375 24.4811 7.2125 24.5714 5.60417 24.2678C6.90833 28.2793 10.6958 31.1977 15.1875 31.2797C10.875 34.6083 5.44167 36.0952 0 35.4635C4.53958 38.3285 9.93333 40 15.725 40C34.7708 40 45.5312 24.1653 44.8812 9.96308C46.8854 8.53773 48.625 6.75964 50 4.73544Z"
    fill="currentColor"
  ></path>
</svg>
