<svg xmlns="http://www.w3.org/2000/svg" viewBox="0 0 1390.52 620"><defs><style>.cls-1{fill:#aeb9ba;}.cls-2{fill:#576b6d;}.cls-3{fill:#d4e5e8;}.cls-4{fill:#364447;}.cls-5{fill:#7cdece;}.cls-6{fill:#221f1d;}.cls-7{fill:#ec6463;}.cls-8{fill:#d54746;}.cls-9{fill:#4f529f;}.cls-10{fill:#7273b0;}.cls-11{fill:#fff;}.cls-12{fill:#aeadd6;}.cls-13{fill:none;stroke:#000;stroke-miterlimit:10;}</style></defs><g id="oscar"><g id="oscar_hero"><g id="bios"><polygon class="cls-1" points="85.12 317.44 329.82 176.16 296.92 152.5 34.53 303.99 189.41 572.24 452.24 420.49 433.91 388.74 433.71 388.38 202.98 521.59 85.12 317.44"/><polygon class="cls-2" points="204.45 516.13 90.58 318.91 333.39 178.72 329.82 176.16 85.12 317.44 202.98 521.59 433.71 388.38 431.71 384.92 204.45 516.13"/><polygon class="cls-3" points="342 230.57 338.87 184.57 338.73 182.57 336.99 181.31 333.39 178.72 90.58 318.91 204.45 516.13 431.71 384.92 408.94 345.49 406.59 301.87 406.48 299.92 403.8 297.03 342 230.57"/><path class="cls-4" d="M154.66,337.89l43.28-25c27.84-16.07,47.37-12.26,58.14,6.4,5.39,9.33,5.46,22.44-.53,30.79,12.35-2.64,24.87-1,31.67,10.78,10.51,18.2,7.71,38.78-24.87,57.59l-42.19,27.48-2.34,1.35Zm56.39.88L203.7,343l9,15.6,7.34-4.24c6.43-3.7,8.16-7.76,5-13.27S217.47,335.07,211.05,338.77ZM236,377l-9.48,5.47,10.06,17.44,9.49-5.48c6.73-3.88,8.44-8.34,4.9-14.45S242.7,373.11,236,377Z"/><path class="cls-2" d="M158.35,338.87l43.28-25c27.84-16.08,47.37-12.26,58.15,6.4,5.38,9.33,5.32,20.17-.67,28.52,12.35-2.64,25,1.27,31.8,13,10.51,18.21,7.71,38.79-24.87,57.59l-45.88,26.5Zm56.39.89L207.4,344l9,15.6,7.34-4.24c6.43-3.71,8.16-7.77,5-13.27S221.16,336.05,214.74,339.76ZM239.66,378l-9.48,5.47,10.07,17.44,9.48-5.48c6.73-3.88,8.44-8.34,4.91-14.46S246.39,374.1,239.66,378Z"/><path class="cls-4" d="M295.52,256.56,358.68,366l-37.52,21.66L258,278.22Z"/><path class="cls-2" d="M296.87,258.9,358.68,366,323.5,386.27,261.69,279.21Z"/><circle class="cls-3" cx="195.73" cy="545.87" r="8.5"/><circle class="cls-3" cx="254.44" cy="511.97" r="8.5"/><circle class="cls-3" cx="312.57" cy="478.35" r="8.5"/><circle class="cls-3" cx="371.86" cy="444.18" r="8.5"/><circle class="cls-3" cx="430.54" cy="410.23" r="8.5"/><circle class="cls-2" cx="195.73" cy="545.87" r="5"/><circle class="cls-2" cx="254.42" cy="511.92" r="5"/><circle class="cls-2" cx="312.57" cy="478.35" r="5"/><circle class="cls-2" cx="371.83" cy="444.13" r="5"/><circle class="cls-2" cx="430.54" cy="410.23" r="5"/><circle class="cls-3" cx="60.1" cy="311.06" r="8.5"/><circle class="cls-3" cx="118.81" cy="277.16" r="8.5"/><circle class="cls-3" cx="176.93" cy="243.54" r="8.5"/><circle class="cls-3" cx="236.23" cy="209.37" r="8.5"/><circle class="cls-3" cx="294.91" cy="175.42" r="8.5"/><circle class="cls-2" cx="60.1" cy="311.06" r="5"/><circle class="cls-2" cx="118.78" cy="277.11" r="5"/><circle class="cls-2" cx="176.93" cy="243.54" r="5"/><circle class="cls-2" cx="236.2" cy="209.32" r="5"/><circle class="cls-2" cx="294.91" cy="175.42" r="5"/><circle class="cls-3" cx="94" cy="369.76" r="8.5"/><circle class="cls-3" cx="127.62" cy="427.89" r="8.5"/><circle class="cls-3" cx="161.79" cy="487.18" r="8.5"/><circle class="cls-2" cx="94.05" cy="369.74" r="5"/><circle class="cls-2" cx="127.62" cy="427.89" r="5"/><circle class="cls-2" cx="161.84" cy="487.16" r="5"/><polygon class="cls-1" points="484.13 56.77 492.84 99.89 770.3 148.81 730.76 373.08 437.92 321.45 437.14 325.88 430.77 361.99 763.93 420.74 817.74 115.6 484.13 56.77"/><polygon class="cls-3" points="770.3 148.81 492.84 99.89 494.12 106.22 468.48 145.59 470.58 239.71 445.82 276.67 437.92 321.45 730.76 373.08 770.3 148.81"/><polygon class="cls-2" points="492.84 99.89 770.15 148.78 730.6 373.05 437.92 321.45 437.23 325.38 733.85 377.69 774.78 145.54 491.99 95.67 492.84 99.89"/><path class="cls-4" d="M554.63,160.22c37.39,6.6,56,37.32,49.6,73.67s-34.41,58.85-71.8,52.25-56-37.31-49.6-73.66S517.24,153.63,554.63,160.22Zm-16.5,93.57c12.7,2.24,22.37-7.89,25.75-27s-2.26-32-15-34.2-22.37,7.89-25.74,27S525.43,251.56,538.13,253.79Z"/><path class="cls-2" d="M556.93,162.42c37.39,6.59,56,37.31,49.6,73.66s-34.41,58.85-71.8,52.26-56-37.31-49.6-73.66S519.54,155.83,556.93,162.42ZM540.43,256c12.7,2.24,22.37-7.89,25.75-27s-2.26-32-15-34.2-22.37,7.89-25.74,27S527.73,253.75,540.43,256Z"/><path class="cls-4" d="M639.09,262.32c.7,1.28,1.45,2.54,1.45,2.54,4.51,6.64,11.51,11.89,18.84,13.18s12.71,0,13.33-4.05c.48-3.14-5.17-10.52-21.43-18.18-21.58-10.16-30.39-24.9-26.9-44.73,4-22.78,24.34-34.27,52.16-29.36,19.13,3.38,34.32,12.87,42.85,28.54l-24.77,15.36-1.47.9c-3.29-5.78-9.87-11.27-16-12.34-6.78-1.2-12.31-1.88-13.08,2.47-1,5.39,2.82,8.39,20.39,17.58,22.48,11.86,31,24.31,27.61,43.79-4.14,23.47-26.79,36-57.23,30.61-22.26-3.92-37.86-15.1-47.32-31.65Z"/><path class="cls-2" d="M640.54,264.86c5,8.06,12.62,13.88,21.14,15.38,7.3,1.29,12.05-.21,12.88-4.9s-1.91-7.51-21-17.33c-21.21-10.91-30.39-24.91-26.9-44.73,4-22.79,24.34-34.27,52.16-29.36,19.13,3.37,35.19,13,43.72,28.69l-27.94,13a23.13,23.13,0,0,0-15.43-11.15c-6.78-1.2-11.15.18-11.91,4.53-.95,5.39,2.82,8.39,20.39,17.58,22.48,11.86,31,24.31,27.61,43.79-4.14,23.47-26.64,35.11-57.08,29.74-22.26-3.92-37.86-15.1-47.31-31.65Z"/><circle class="cls-3" cx="749.05" cy="398.03" r="8.5"/><circle class="cls-3" cx="682.29" cy="386.26" r="8.5"/><circle class="cls-3" cx="616.17" cy="374.55" r="8.5"/><circle class="cls-3" cx="548.77" cy="362.72" r="8.5"/><circle class="cls-3" cx="482.01" cy="350.89" r="8.5"/><circle class="cls-2" cx="749.05" cy="398.03" r="5"/><circle class="cls-2" cx="682.3" cy="386.21" r="5"/><circle class="cls-2" cx="616.17" cy="374.55" r="5"/><circle class="cls-2" cx="548.78" cy="362.66" r="5"/><circle class="cls-2" cx="482.01" cy="350.89" r="5"/><circle class="cls-3" cx="796.19" cy="130.99" r="8.5"/><circle class="cls-3" cx="729.43" cy="119.22" r="8.5"/><circle class="cls-3" cx="663.32" cy="107.51" r="8.5"/><circle class="cls-3" cx="595.91" cy="95.68" r="8.5"/><circle class="cls-3" cx="529.16" cy="83.85" r="8.5"/><circle class="cls-2" cx="796.19" cy="130.99" r="5"/><circle class="cls-2" cx="729.44" cy="119.17" r="5"/><circle class="cls-2" cx="663.32" cy="107.51" r="5"/><circle class="cls-2" cx="595.92" cy="95.62" r="5"/><circle class="cls-2" cx="529.16" cy="83.85" r="5"/><circle class="cls-3" cx="784.42" cy="197.76" r="8.5"/><circle class="cls-3" cx="772.71" cy="263.87" r="8.5"/><circle class="cls-3" cx="760.88" cy="331.28" r="8.5"/><circle class="cls-2" cx="784.37" cy="197.75" r="5"/><circle class="cls-2" cx="772.71" cy="263.87" r="5"/><circle class="cls-2" cx="760.82" cy="331.27" r="5"/></g><g id="bubble"><path class="cls-5" d="M562.06,215s147.28,190.46,142.65,7.71c0,0,25.45,128.39,94.85,47.81,0,0-45.5,105.64,75.57,45.49,0,0-111.81,88.68,54.75,59.38,0,0-154.23,30.84-37.79,81.73,0,0-109.5-54-45.49,56.29,0,0-77.11-72.48-60.92,37,0,0-61.69-97.16-70.17,8.48,0,0-20-96.39-99.47,17.73,0,0,75.56-159.62-54-91,0,0,99.47-47-37.78-114.12C524.28,371.57,705.48,414,562.06,215Z"/><path class="cls-5" d="M808.62,304.48s26.11-45.05,30.74-39.58S808.62,304.48,808.62,304.48Z"/><path class="cls-5" d="M553.28,319.36s-45-26.11-39.58-30.74S553.28,319.36,553.28,319.36Z"/><path class="cls-5" d="M565.17,524.46S534,566.14,530,560.16,565.17,524.46,565.17,524.46Z"/><path class="cls-5" d="M836,309.06s55.46-57.94,60.4-48.06S836,309.06,836,309.06Z"/><path class="cls-5" d="M533.93,352.91s-76-25.55-69.18-34.23S533.93,352.91,533.93,352.91Z"/><path class="cls-6" d="M632.05,435.4l5.85,8.45a3.47,3.47,0,0,1,.63,2,2.85,2.85,0,0,1-1.34,2.45,3.49,3.49,0,0,1-3.37.44,4.4,4.4,0,0,1-2.2-1.66q-3.09-4.44-9-13.56t-9-13.56a3.21,3.21,0,0,1-.54-2.48,3.52,3.52,0,0,1,4-2.78,3.18,3.18,0,0,1,2.13,1.37q1.25,1.8,3.21,5c1.5,2.48,2.55,4.16,3.12,5q.48-2.31,2.65-18.38a3.44,3.44,0,0,1,4-3.07,3.15,3.15,0,0,1,2.21,1.35q.85,1.25-.28,9.77-.87,6.28-2.18,12.73c2.41.37,4.83.72,7.26,1.08a71.2,71.2,0,0,0,7.31.68,9.69,9.69,0,0,0,3-.41,3.22,3.22,0,0,1,4,1.13,3.58,3.58,0,0,1,.61,2,2.87,2.87,0,0,1-1.31,2.52q-2.87,2-10,1.43Q640.54,436.78,632.05,435.4Z"/><path class="cls-6" d="M681.6,418.36c-1.14.58-3-.1-5.61-2.07a38.85,38.85,0,0,1-5.18-4.7q-1.44,1.13-4.89,3.36c-2.16,1.41-3.77,2.56-4.85,3.44q.34,2.89.55,9a3.33,3.33,0,0,1-1.74,3,3.62,3.62,0,0,1-2.55.39,3,3,0,0,1-2.08-1.51c-.41-.73-.75-3.76-1-9.11a2.85,2.85,0,0,1-1-1.1c-.33-.71.06-1.63,1.17-2.75q.09-6.93.64-14.64.79-11.06,2-11.74,2.34-1.32,4.72,1.07c1.13,1.36,2.86,3.39,5.17,6.09q4.74,5.4,11,12.25a30.42,30.42,0,0,0,2.66,2.2,9.31,9.31,0,0,1,2.3,2.32,3,3,0,0,1,.24,2.58A3.33,3.33,0,0,1,681.6,418.36ZM661.41,401c0,2.53-.12,6-.22,10.34a24.42,24.42,0,0,1,2.79-2c1.53-1,2.49-1.63,2.87-1.92Q664.78,404.9,661.41,401Z"/><path class="cls-6" d="M689.6,398.75c-.25.11-.9.33-1.94.67q1.26,3.18,4.45,10.32a3.05,3.05,0,0,1,.08,2.39A3.3,3.3,0,0,1,688,414a3,3,0,0,1-1.74-1.65l-2.78-6.22q-1.54-3.45-4.13-10.43t-4.15-10.47q-2.57-5.81.78-7a13.41,13.41,0,0,1,2-1.24c.86-.46,1.93-1,3.21-1.55a14.87,14.87,0,0,1,9.46-.84c3.79.84,6.35,2.78,7.71,5.81a11.77,11.77,0,0,1-.47,11.1A17.18,17.18,0,0,1,689.6,398.75Zm-6.4-17.33-1.26.57c-.36.17-.66.33-.9.47l1.38,3.15q1.07,2.5,3,7.9A14.43,14.43,0,0,0,687,393a10.61,10.61,0,0,0,5-4.23,6,6,0,0,0,.37-5.76c-.57-1.26-1.83-2-3.8-2.34A9.51,9.51,0,0,0,683.2,381.42Z"/><path class="cls-6" d="M728.08,399.7a18.8,18.8,0,0,1-13,0,14.17,14.17,0,0,1-8.81-9.17,24.39,24.39,0,0,1,.1-16q3.08-9.15,11.47-12,8.07-2.73,13.35-.38c3.51,1.57,6.1,4.82,7.77,9.78a25.31,25.31,0,0,1,.27,15.77Q736.5,396.87,728.08,399.7ZM720,368.82q-5.16,1.74-7.15,8a18,18,0,0,0,0,11.53,8.06,8.06,0,0,0,5.09,5.24,11.72,11.72,0,0,0,8-.13q5.09-1.71,6.81-7.85a18.92,18.92,0,0,0-.37-11.42q-1.63-4.86-4.45-6C726.17,367.4,723.5,367.63,720,368.82Z"/><path class="cls-6" d="M789.26,351.2q-.21,1.07-.48,2.61t-.51,4.38q-.67,3.78-2.33,11.1t-2.36,11.08a30.54,30.54,0,0,1-1.06,4.39,3.76,3.76,0,0,1-3,2.66,4.42,4.42,0,0,1-2.62-.26,2.94,2.94,0,0,1-1.83-2,23,23,0,0,1-2.27-4.24q-2.06-4.92-5.94-14.83a75.52,75.52,0,0,1-1.66,9.31,56.79,56.79,0,0,0-1.76,9.72,2.87,2.87,0,0,1,.44,1.08,2.93,2.93,0,0,1-.84,2.68,4.47,4.47,0,0,1-2.39,1.29,4.74,4.74,0,0,1-3.07-.32,3.4,3.4,0,0,1-1.82-2.43l-1.29-2.66q-1.53-3.58-4.77-10.66Q747,368.73,741.2,359a3.77,3.77,0,0,1-.45-1.16,2.79,2.79,0,0,1,.66-2.49,3.83,3.83,0,0,1,2.22-1.23,3.43,3.43,0,0,1,3.2,1,13.49,13.49,0,0,1,2,2.78,200.83,200.83,0,0,1,9.15,18.66q1-5.06,1.75-11.79a71.43,71.43,0,0,1,1.17-7.87q1.38-5.68,3.87-6.18a3.69,3.69,0,0,1,3.93,1.9,20.91,20.91,0,0,1,1.89,4.23c.23.63.75,2.2,1.57,4.69q1.3,4,6,14.41,1.38-6.44,3.48-18.47c.09-.48.22-2,.38-4.65a14.28,14.28,0,0,1,.92-4.59,3.63,3.63,0,0,1,2.74-2.27,3.5,3.5,0,0,1,2.6.42,3.15,3.15,0,0,1,1.41,2.13A11.27,11.27,0,0,1,789.26,351.2Z"/><path class="cls-6" d="M801.65,374.79a3.15,3.15,0,0,1-2.33-.62,2.87,2.87,0,0,1-1.11-2.05c-.06-.63-.18-1.57-.35-2.82s-.28-2.19-.35-2.83c-.23-2.23-.55-5.59-1-10.06s-.74-7.83-1-10.06a2.82,2.82,0,0,1,.68-2.24,3.08,3.08,0,0,1,2.14-1.09,3.12,3.12,0,0,1,2.32.63,2.85,2.85,0,0,1,1.12,2.06l2.63,25.77a2.9,2.9,0,0,1-.67,2.23A3.16,3.16,0,0,1,801.65,374.79Zm.82,8.82a3.54,3.54,0,0,1-2.87-1.28,4.45,4.45,0,0,1-1.42-2.55,2.71,2.71,0,0,1,.78-2.22,3.45,3.45,0,0,1,2.17-1.08,3.5,3.5,0,0,1,2.86,1.28,4.42,4.42,0,0,1,1.41,2.53,2.75,2.75,0,0,1-.77,2.22A3.25,3.25,0,0,1,802.47,383.61Z"/></g><g id="umhang"><path id="umhang-2" data-name="umhang" class="cls-7" d="M1038.81,306.09s231.17-14.93,258.1-82.64c0,0,92.51,24.51,23.7,169.15,0,0-11.43,26,4.91,66.66s-27.35,109.48-94.84,91.35-81.41,5.71-81.41,5.71-124.19-46.59-117.33-148.41Z"/><path class="cls-8" d="M1149.27,556.32s11.85-20.28,66.64-9.2h0s-119.39-22.26-162.46-63.42C1087.45,533.12,1149.27,556.32,1149.27,556.32Z"/><path class="cls-8" d="M1325.52,459.26c-16.34-40.68-4.91-66.66-4.91-66.66-106.4,21.17-213-13.12-213-13.12,113.42,72.88,182.91,85,218.91,82.6C1326.22,461.13,1325.89,460.18,1325.52,459.26Z"/></g><path id="bein_hinten" class="cls-9" d="M1093.82,489.43s5.29,18.21,4.8,24.58-17.77,22.57-24.63,22.55c-5,0-5.65-5.1-5.65-5.1l-56.51-34.74,71.38-29Z"/><path id="schwanz" class="cls-10" d="M1122.05,422.34c27.84-27.95,119.89-15.55,154,93.3,0,0-11.1-16.82-35.07-15.24s-74.22,25.52-116-10.92C1096.48,464.62,1112.55,431.87,1122.05,422.34Z"/><path class="cls-10" d="M1168.31,455.85a56.09,56.09,0,0,0-11.49-46.23,64.45,64.45,0,0,0-19.34,3.41,44.05,44.05,0,0,1-17,72,57.35,57.35,0,0,0,4.51,4.41,85.49,85.49,0,0,0,9.84,7.4A56.17,56.17,0,0,0,1168.31,455.85Z"/><path class="cls-10" d="M1220.34,468.54A53.68,53.68,0,0,0,1209,423.92a110.17,110.17,0,0,0-22.82-10.09A55.89,55.89,0,0,1,1155,506.12a91.58,91.58,0,0,0,28.56,3.41A53.78,53.78,0,0,0,1220.34,468.54Z"/><path class="cls-10" d="M1263.83,485.06a171.83,171.83,0,0,0-12.64-21.39,54.64,54.64,0,0,1-1,10.73,53.34,53.34,0,0,1-13.7,26.51c1.6-.24,3.12-.41,4.54-.51a43.44,43.44,0,0,1,14.18,1.32,54.07,54.07,0,0,0,7.12-12.46C1262.89,487.87,1263.39,486.47,1263.83,485.06Z"/><path class="cls-10" d="M1122.07,422.32l0,0c-7.22,7.25-18.25,27.94-10.56,48.37a44.32,44.32,0,0,0,10.58-48.39Z"/><path class="cls-9" d="M1149,452.05a44,44,0,0,0-11.47-39,40.44,40.44,0,0,0-15.41,9.29,44.32,44.32,0,0,1-10.58,48.39,44.27,44.27,0,0,0,9,14.36A44.05,44.05,0,0,0,1149,452.05Z"/><path class="cls-9" d="M1199.49,462a55.81,55.81,0,0,0-13.28-48.15,90.65,90.65,0,0,0-29.39-4.21,56.21,56.21,0,0,1-22,87.26,77.35,77.35,0,0,0,20.2,9.24A55.88,55.88,0,0,0,1199.49,462Z"/><path class="cls-9" d="M1251.19,463.67c-12.59-18.06-27.22-31-42.16-39.75a53.8,53.8,0,0,1-25.44,85.61c20.72-.6,39.7-6.69,52.89-8.62a53.34,53.34,0,0,0,13.7-26.51A54.64,54.64,0,0,0,1251.19,463.67Z"/><path class="cls-9" d="M1263.83,485.06c-.44,1.41-.94,2.81-1.51,4.2a54.07,54.07,0,0,1-7.12,12.46,38.05,38.05,0,0,1,20.89,13.92A207,207,0,0,0,1263.83,485.06Z"/><path id="körper" class="cls-10" d="M1034.69,303.9s84.54-7.89,113.7,28.36c7.86,9.77,3.66,27.47-21.84,22.52-33.62-6.53-42.37-4.31-51,4.71,0,0,79.27,52.32,36.84,113.92-10.62,15.43-36.55,28.23-74.17,16.95,0,0,2.63,4.27,1.61,8.6-2.57,10.83-23.07,24.43-39.63,20.29,0,0-2.92-1-3.2-6.42s-42.06-39.73-45.37-56.21c-3.47-17.28,4-28.25,4-28.25l-4.32-7.64S869,414.52,839.17,400.44s62.61-44.78,62.61-44.78,43.26,9.67,77.42-7.79A188.76,188.76,0,0,0,1034.69,303.9Z"/><path class="cls-9" d="M954.85,429.47c-2.42-4.18-4.55-8.45-6.54-12.82s-3.75-8.8-5.31-13.33a118.77,118.77,0,0,1-3.73-13.84A73.22,73.22,0,0,1,938,375.24a72.34,72.34,0,0,0,1.75,14.14,118.69,118.69,0,0,0,4.18,13.6q2.55,6.66,5.73,13c2.11,4.24,4.39,8.43,6.88,12.41Z"/><polygon class="cls-9" points="1038.15 496.36 1032.14 475.03 1031.99 474.48 1032.2 474.19 1037.13 467.33 1033.95 475.15 1034.01 474.31 1043.76 494.22 1038.15 496.36"/><g id="logo"><polygon class="cls-7" points="1004.04 500.99 1003.14 500.63 987.78 400.13 988.68 400.49 1004.04 500.99"/><path class="cls-11" d="M969.8,371.07c-3.36,1.61-3.47,7.72-.24,13.65a18.8,18.8,0,0,0,5.73,6.59l11.42,74.85,4.23,1.68-11.45-74.95a4.17,4.17,0,0,0,2-.38c3.36-1.62,3.47-7.73.24-13.65S973.16,369.45,969.8,371.07Zm8.83,9.28c1.58,2.91,1.53,5.91-.12,6.7s-4.27-.92-5.86-3.82-1.52-5.91.12-6.7S977,377.45,978.63,380.35Z"/><path class="cls-11" d="M962.93,405.85c-9.16,10-4.7,30.47,7.91,48.22,6.38,9,13.81,15.44,20.75,18.06l-1.92-12.62c-4.06-1.9-8.52-6-12.8-12-8.56-12-11.52-24.74-6.13-30.63s15.16-.67,23.73,11.36,11.09,23.95,5.66,29.9a7.77,7.77,0,0,1-3.15,2.14l2,13.12a12.86,12.86,0,0,0,8.91-4.38c9.19-10.05,4.71-30.48-7.37-47.41C987.88,403.84,972.09,395.82,962.93,405.85Z"/><path class="cls-7" d="M989.67,459.51l1.92,12.62a20.81,20.81,0,0,0,4.14,1.09l-1.91-12.57A12.05,12.05,0,0,1,989.67,459.51Z"/></g><path id="bein_vorne" class="cls-10" d="M1038.32,490.38c1.73,4.08,2.52,4.25,1.5,8.58-2.57,10.83-23.07,24.43-39.63,20.29,0,0-2.92-1-3.2-6.42s-42.06-39.73-45.37-56.21c-3.47-17.28,4-28.25,4-28.25s28.71-42.92,75-27.58,1.64,73.55,1.64,73.55S1036.65,486.44,1038.32,490.38Z"/><g id="bein_vorne-2" data-name="bein_vorne"><path class="cls-9" d="M955.66,428.37a70.39,70.39,0,0,1,32.49-27.87,61.11,61.11,0,0,1,10.51-3.15c.89-.2,1.81-.29,2.71-.44l1.35-.21,1.37-.12c.91-.07,1.82-.18,2.73-.21l2.74,0a55.49,55.49,0,0,1,21.12,4.45,76.16,76.16,0,0,0-21.07-2.11,62.83,62.83,0,0,0-20.33,4.6,65.56,65.56,0,0,0-9.4,4.63,86.18,86.18,0,0,0-8.75,5.87A101.52,101.52,0,0,0,955.66,428.37Z"/></g><g id="kopf"><g id="ohr_rechts"><path class="cls-7" d="M1016.86,174.55s0-82.85-30.27-90.09-64.18,69-64.18,69S972.41,146.85,1016.86,174.55Z"/><path class="cls-9" d="M991.27,162.18a135.65,135.65,0,0,1,25.59,12.37s0-82.85-30.27-90.09a19.41,19.41,0,0,0-10.78.67C994.34,95.94,994.07,134.71,991.27,162.18Z"/></g><g id="ohr_links"><path class="cls-7" d="M869.49,181s-52.27-19.44-71.29-9.13C768.46,188,845,252,845,252S837.8,215.15,869.49,181Z"/><path class="cls-9" d="M792.85,179c16.32-6.22,45.6,2.69,68.5,11.9a102.25,102.25,0,0,1,8.14-9.95s-52.27-19.44-71.29-9.13a12.16,12.16,0,0,0-6.4,7.6Z"/></g><path class="cls-8" d="M1016.72,336.4s35.91-32.86,36.07-33,18.16-.18,18.16-.18Z"/><path id="kopf-2" data-name="kopf" class="cls-10" d="M814.08,291.05s18.11,7.15,25.38-24.05.68-43.89,1.35-55.14c.89-15.15,15.06-57.37,76.79-72.19s106.32,42.14,106.32,42.14,9.68,38.47,20.58,21.64c0,0,12.36,6.47,9.6,10.87,0,0,10.66,2.09,13.37-.83,0,0,23,39.86-10.88,85-18,23.92-60.95,66-129.36,63.74C888.52,361,840.88,338.83,818,308.46c0,0,12.21,3.55,20.53-.84C838.57,307.62,825.08,306.56,814.08,291.05Z"/><path id="kopf-3" data-name="kopf" class="cls-12" d="M854.44,227.65c33.41-6.61,37.07,46.73,37.07,46.73A16,16,0,0,1,911,270.89s-10.46-39.62.67-61.5c23.05-45.29,112.27-27.58,112.27-27.58s26.64,21.1,54.92,8.8a29,29,0,0,1-8.55,20.45s14.63,5.73,27.86-6.85c0,0-7.65,49.14-41.56,94.29-18,23.92-60.95,66-129.36,63.74C888.52,361,840.88,338.83,818,308.46c0,0,12.21,3.55,20.53-.84,0,0-13.49-1.06-24.49-16.57,0,0,18.11,7.15,25.38-24.05a118.32,118.32,0,0,0,3.44-28.48S847.9,228.94,854.44,227.65Z"/><path id="nase" d="M900.72,294.81s-11.76-2.49-9.91-6.25c.94-1.92,5.24-4,7.31-4.54s7.07-1.58,8.83-.72C909.87,284.73,900.72,294.81,900.72,294.81Z"/><line class="cls-13" x1="902.57" y1="303.55" x2="900.37" y2="293.17"/><g id="mund"><path id="mund-2" data-name="mund" class="cls-7" d="M885.81,308.42s10.3,5.11,16.59-6c0,0,20.29,13.58,37.23-6.39,0,0-3.29,41.15-16.92,46S885.81,308.42,885.81,308.42Z"/><path d="M903.56,322.57a35.87,35.87,0,0,1,8-16.42,30.57,30.57,0,0,1-9.11-3.72c-6.29,11.1-16.59,6-16.59,6s7.86,13,17.12,22.94A36.46,36.46,0,0,1,903.56,322.57Z"/></g><path class="cls-9" d="M919.49,279.45s-22.91-66.52,15.75-80.15c38.86-13.69,58.82,33.63,58.82,33.63s14.65,9.52,16.77,13.35c6.09,11-5.91,19.15-20.76,26.55C973,281.33,938,291.5,919.49,279.45Z"/><g id="auge_rechts"><path id="auge_rechts-2" data-name="auge_rechts" d="M932.5,268.54s-19.49-34.79.6-43.28c27.66-11.68,38.61,29.91,38.61,29.91S944,251.91,932.5,268.54Z"/><ellipse class="cls-11" cx="933.54" cy="240.55" rx="6.49" ry="9.93" transform="matrix(0.99, -0.13, 0.13, 0.99, -23.87, 127.75)"/><circle class="cls-11" cx="946.71" cy="247.04" r="3.16"/></g><path class="cls-9" d="M851.5,241.27c-5.38,7.24,3.33,23.32-1.16,37.23-.71,2.18-3.07,9.22,1.1,14.7,4.32,5.7,21.71,2.64,21.71,2.64s9.4-.67,14.38-12.85C894.05,267,869.55,217,851.5,241.27Z"/><g id="auge_links"><path id="auge_links-2" data-name="auge_links" d="M885.31,277.24s-11.65,1.72-17.07,11.18c0,0-14.26-28.29.5-34.11C880,249.88,885.31,277.24,885.31,277.24Z"/><ellipse class="cls-11" cx="868.5" cy="265.55" rx="6.44" ry="4.21" transform="translate(589.06 1129.69) rotate(-89.08)"/><circle class="cls-11" cx="876.61" cy="271.02" r="2.11"/></g><g id="brille"><path class="cls-6" d="M998.58,217.68s2.67-4.28,9.7-5.22l-6-21.32s-62.31,3-95.73,34.28c-7.17,6.71-3.36,22.44-1.17,29.48,1.55,5,2.79,10.08,4.14,13.44,5.36,13.32,11,14.69,15.94,16.8,13.81,5.83,46.78,1.35,65.7-11.37C1013.33,258.84,998.58,217.68,998.58,217.68Zm-19.51,55.81c-4.88,2.65-19.91,7-32.72,8.36s-19.91-.92-24.58-5.6c-6.82-6.83-12.51-18.52-12.84-37.12s60.8-32.75,73.83-30.2c6.47,1.27,9.42,4.78,10.16,7.91,3.67,15.34,6.11,22.48,4.46,37.27C996,266.13,983.83,270.9,979.07,273.49Z"/><path class="cls-6" d="M884.44,238.39s6-13.08,19.47-6l.73,12.66s-10.7-7-15.49,2.81Z"/><path class="cls-6" d="M886.44,236.62s-32.49-5.8-52,16.45l4.54,7.34s1.61-2.48,3.82-1.52c0,0,7.84,34.54,13.81,38.05,4.07,2.39,17,5.91,29-4.16C899.58,281.16,886.44,236.62,886.44,236.62Zm-27.13,55.85c-4.41-3.63-7-13.37-13.06-35.59-1.17-4.31,18.78-19.72,36.12-13,0,0,10.32,29.29,4.41,39.9C883.34,290,868.81,300.32,859.31,292.47Z"/><polygon class="cls-6" points="1002.25 191.14 1028.18 184.61 1041.11 190.94 1008.28 212.46 1002.25 191.14"/></g><path class="cls-12" d="M890.78,302.64c2.2-3.69-1.52-7.5-2.54-10.11-.39-1,3.19-1.5,2.32-2-2.45-1.4-8.58.34-11,5.4-1.64,3.41-2,9.32,3.37,12.19C886.1,309.82,887.74,307.75,890.78,302.64Z"/></g></g></g></svg>