<?xml version="1.0" encoding="utf-8"?>
<!-- Generator: Adobe Illustrator 25.4.0, SVG Export Plug-In . SVG Version: 6.00 Build 0)  -->
<svg version="1.1" id="Ebene_1" xmlns="http://www.w3.org/2000/svg" xmlns:xlink="http://www.w3.org/1999/xlink" x="0px" y="0px"
	 viewBox="0 0 113.4 113.4" style="enable-background:new 0 0 113.4 113.4;" xml:space="preserve">
<style type="text/css">
	.st0{fill:#1E1E1C;}
	.st1{fill:#6702FF;}
	.st2{fill:#AAD9DE;}
	.st3{fill:#1D1D1B;}
	.st4{fill:#FFFFFF;}
	.st5{fill:none;stroke:#000000;stroke-width:5.1821;stroke-miterlimit:10;}
	.st6{fill:#FFFFFF;stroke:#FFFFFF;stroke-width:5.1821;stroke-miterlimit:10;}
	.st7{fill:#020206;}
	.st8{fill:#E20613;}
	.st9{fill:#BDFF9A;}
	.st10{fill:#FF56FF;}
	.st11{fill:#941B80;}
	.st12{fill:#00A099;}
	.st13{fill:#DDDB00;}
	.st14{fill:#35A8E0;}
	.st15{fill:#FFFFFF;stroke:#E20613;stroke-width:10;stroke-miterlimit:10;}
	.st16{fill:#575756;}
	.st17{fill:#868686;}
	.st18{fill:#E9E9EB;}
</style>
<g>
	<g>
		<polygon points="93.1,0.6 79.7,0.6 56.7,23.6 56.7,37 		"/>
		<polygon points="113.4,0.6 106.7,0.6 56.7,50.6 56.7,57.3 63.4,57.3 113.4,7.4 		"/>
		<polygon points="56.7,10 66.1,0.6 56.7,0.6 		"/>
		<polygon points="113.4,34.4 113.4,20.9 77,57.3 90.4,57.3 		"/>
		<polygon points="113.4,47.9 104,57.3 113.4,57.3 		"/>
	</g>
	<g>
		<polygon points="77,57.3 90.4,57.3 113.4,80.3 113.4,93.7 		"/>
		<polygon points="56.7,57.3 63.4,57.3 113.4,107.3 113.4,114 106.7,114 56.7,64 		"/>
		<polygon points="113.4,66.7 104,57.3 113.4,57.3 		"/>
		<polygon points="56.7,91 56.7,77.6 93.1,114 79.7,114 		"/>
		<polygon points="56.7,104.6 66.1,114 56.7,114 		"/>
	</g>
	<g>
		<polygon points="20.3,0.6 33.7,0.6 56.7,23.6 56.7,37 		"/>
		<polygon points="0,0.6 6.7,0.6 56.7,50.6 56.7,57.3 50,57.3 0,7.4 		"/>
		<polygon points="56.7,10 47.3,0.6 56.7,0.6 		"/>
		<polygon points="0,34.4 0,20.9 36.4,57.3 23,57.3 		"/>
		<polygon points="0,47.9 9.4,57.3 0,57.3 		"/>
	</g>
	<g>
		<polygon points="36.4,57.3 23,57.3 0,80.3 0,93.7 		"/>
		<polygon points="56.7,57.3 50,57.3 0,107.3 0,114 6.7,114 56.7,64 		"/>
		<polygon points="0,66.7 9.4,57.3 0,57.3 		"/>
		<polygon points="56.7,91 56.7,77.6 20.3,114 33.7,114 		"/>
		<polygon points="56.7,104.6 47.3,114 56.7,114 		"/>
	</g>
</g>
</svg>
