<?xml version="1.0" encoding="utf-8"?>
<!-- Generator: Adobe Illustrator 25.4.0, SVG Export Plug-In . SVG Version: 6.00 Build 0)  -->
<svg version="1.1" id="Ebene_1" xmlns="http://www.w3.org/2000/svg" xmlns:xlink="http://www.w3.org/1999/xlink" x="0px" y="0px"
	 viewBox="0 0 113.4 113.4" style="enable-background:new 0 0 113.4 113.4;" xml:space="preserve">
<style type="text/css">
	.st0{fill:#1E1E1C;}
	.st1{fill:#6702FF;}
	.st2{fill:#AAD9DE;}
	.st3{fill:#1D1D1B;}
	.st4{fill:#FFFFFF;}
	.st5{fill:none;stroke:#000000;stroke-width:5.1821;stroke-miterlimit:10;}
	.st6{fill:#FFFFFF;stroke:#FFFFFF;stroke-width:5.1821;stroke-miterlimit:10;}
	.st7{fill:#020206;}
	.st8{fill:#E20613;}
	.st9{fill:#BDFF9A;}
	.st10{fill:#FF56FF;}
	.st11{fill:#941B80;}
	.st12{fill:#00A099;}
	.st13{fill:#DDDB00;}
	.st14{fill:#35A8E0;}
	.st15{fill:#FFFFFF;stroke:#E20613;stroke-width:10;stroke-miterlimit:10;}
	.st16{fill:#575756;}
	.st17{fill:#868686;}
	.st18{fill:#E9E9EB;}
</style>
<g>
	<rect x="46.7" y="46.7" transform="matrix(0.7071 -0.7071 0.7071 0.7071 -23.4829 56.693)" width="20" height="20"/>
	<polygon points="70.9,28.3 42.5,28.3 56.7,14.2 	"/>
	<polygon points="70.9,42.5 42.5,42.5 56.7,28.3 	"/>
	<g>
		<polygon points="99.2,14.2 85,28.3 85,14.2 		"/>
		<polygon points="113.4,28.3 99.2,42.5 99.2,28.3 		"/>
		<polygon points="113.4,14.2 99.2,28.3 99.2,14.2 		"/>
		<polygon points="99.2,28.3 85,42.5 85,28.3 		"/>
		<polygon points="85,28.3 70.9,42.5 70.9,28.3 		"/>
		<polygon points="85,0 70.9,14.2 70.9,0 		"/>
		<polygon points="85,14.2 70.9,28.3 70.9,14.2 		"/>
		<polygon points="99.2,0 85,14.2 85,0 		"/>
		<polygon points="113.4,0 99.2,14.2 99.2,0 		"/>
	</g>
	<g>
		<polygon points="28.3,28.3 14.2,14.2 28.3,14.2 		"/>
		<polygon points="14.2,42.5 0,28.3 14.2,28.3 		"/>
		<polygon points="28.3,42.5 14.2,28.3 28.3,28.3 		"/>
		<polygon points="14.2,28.3 0,14.2 14.2,14.2 		"/>
		<polygon points="14.2,14.2 0,0 14.2,0 		"/>
		<polygon points="42.5,14.2 28.3,0 42.5,0 		"/>
		<polygon points="28.3,14.2 14.2,0 28.3,0 		"/>
		<polygon points="42.5,28.3 28.3,14.2 42.5,14.2 		"/>
		<polygon points="42.5,42.5 28.3,28.3 42.5,28.3 		"/>
	</g>
	<g>
		<polygon points="14.2,99.2 28.3,85 28.3,99.2 		"/>
		<polygon points="0,85 14.2,70.9 14.2,85 		"/>
		<polygon points="0,99.2 14.2,85 14.2,99.2 		"/>
		<polygon points="14.2,85 28.3,70.9 28.3,85 		"/>
		<polygon points="28.3,85 42.5,70.9 42.5,85 		"/>
		<polygon points="28.3,113.4 42.5,99.2 42.5,113.4 		"/>
		<polygon points="28.3,99.2 42.5,85 42.5,99.2 		"/>
		<polygon points="14.2,113.4 28.3,99.2 28.3,113.4 		"/>
		<polygon points="0,113.4 14.2,99.2 14.2,113.4 		"/>
	</g>
	<g>
		<polygon points="85,85 99.2,99.2 85,99.2 		"/>
		<polygon points="99.2,70.9 113.4,85 99.2,85 		"/>
		<polygon points="85,70.9 99.2,85 85,85 		"/>
		<polygon points="99.2,85 113.4,99.2 99.2,99.2 		"/>
		<polygon points="99.2,99.2 113.4,113.4 99.2,113.4 		"/>
		<polygon points="70.9,99.2 85,113.4 70.9,113.4 		"/>
		<polygon points="85,99.2 99.2,113.4 85,113.4 		"/>
		<polygon points="70.9,85 85,99.2 70.9,99.2 		"/>
		<polygon points="70.9,70.9 85,85 70.9,85 		"/>
	</g>
	<polygon points="70.9,14.2 42.5,14.2 56.7,0 	"/>
	<polygon points="42.5,85 70.9,85 56.7,99.2 	"/>
	<polygon points="42.5,70.9 70.9,70.9 56.7,85 	"/>
	<polygon points="42.5,99.2 70.9,99.2 56.7,113.4 	"/>
	<polygon points="85,70.9 85,42.5 99.2,56.7 	"/>
	<polygon points="70.9,70.9 70.9,42.5 85,56.7 	"/>
	<polygon points="99.2,70.9 99.2,42.5 113.4,56.7 	"/>
	<polygon points="28.3,42.5 28.3,70.9 14.2,56.7 	"/>
	<polygon points="42.5,42.5 42.5,70.9 28.3,56.7 	"/>
	<polygon points="14.2,42.5 14.2,70.9 0,56.7 	"/>
</g>
</svg>
