<?xml version="1.0" encoding="utf-8"?>
<!-- Generator: Adobe Illustrator 25.4.0, SVG Export Plug-In . SVG Version: 6.00 Build 0)  -->
<svg version="1.1" id="Ebene_1" xmlns="http://www.w3.org/2000/svg" xmlns:xlink="http://www.w3.org/1999/xlink" x="0px" y="0px"
	 viewBox="0 0 113.4 113.4" style="enable-background:new 0 0 113.4 113.4;" xml:space="preserve">
<style type="text/css">
	.st0{fill:#1E1E1C;}
	.st1{fill:#6702FF;}
	.st2{fill:#AAD9DE;}
	.st3{fill:#1D1D1B;}
	.st4{fill:#FFFFFF;}
	.st5{fill:none;stroke:#000000;stroke-width:5.1821;stroke-miterlimit:10;}
	.st6{fill:#FFFFFF;stroke:#FFFFFF;stroke-width:5.1821;stroke-miterlimit:10;}
	.st7{fill:#020206;}
	.st8{fill:#E20613;}
	.st9{fill:#BDFF9A;}
	.st10{fill:#FF56FF;}
	.st11{fill:#941B80;}
	.st12{fill:#00A099;}
	.st13{fill:#DDDB00;}
	.st14{fill:#35A8E0;}
	.st15{fill:#FFFFFF;stroke:#E20613;stroke-width:10;stroke-miterlimit:10;}
	.st16{fill:#575756;}
	.st17{fill:#868686;}
	.st18{fill:#E9E9EB;}
</style>
<g>
	<path class="st3" d="M56.7,28.3C41,28.3,28.3,15.7,28.3,0l0,0l0,0c0,15.7-12.7,28.3-28.3,28.3c15.7,0,28.3,12.7,28.3,28.3
		C28.3,41,41,28.3,56.7,28.3z"/>
	<path class="st3" d="M113.4,28.3C97.7,28.3,85,15.7,85,0l0,0l0,0c0,15.7-12.7,28.3-28.3,28.3C72.3,28.3,85,41,85,56.7
		C85,41,97.7,28.3,113.4,28.3z"/>
	<path class="st3" d="M56.7,85C41,85,28.3,72.3,28.3,56.7l0,0l0,0C28.3,72.3,15.7,85,0,85c15.7,0,28.3,12.7,28.3,28.3
		C28.3,97.7,41,85,56.7,85z"/>
	<path class="st3" d="M113.4,85C97.7,85,85,72.3,85,56.7l0,0l0,0C85,72.3,72.3,85,56.7,85C72.3,85,85,97.7,85,113.4
		C85,97.7,97.7,85,113.4,85z"/>
</g>
</svg>
