<?xml version="1.0" encoding="utf-8"?>
<!-- Generator: Adobe Illustrator 25.4.0, SVG Export Plug-In . SVG Version: 6.00 Build 0)  -->
<svg version="1.1" id="Ebene_1" xmlns="http://www.w3.org/2000/svg" xmlns:xlink="http://www.w3.org/1999/xlink" x="0px" y="0px"
	 viewBox="0 0 113.4 113.4" style="enable-background:new 0 0 113.4 113.4;" xml:space="preserve">
<style type="text/css">
	.st0{fill:#1E1E1C;}
	.st1{fill:#6702FF;}
	.st2{fill:#AAD9DE;}
	.st3{fill:#1D1D1B;}
	.st4{fill:#FFFFFF;}
	.st5{fill:none;stroke:#000000;stroke-width:5.1821;stroke-miterlimit:10;}
	.st6{fill:#FFFFFF;stroke:#FFFFFF;stroke-width:5.1821;stroke-miterlimit:10;}
	.st7{fill:#020206;}
	.st8{fill:#E20613;}
	.st9{fill:#BDFF9A;}
	.st10{fill:#FF56FF;}
	.st11{fill:#941B80;}
	.st12{fill:#00A099;}
	.st13{fill:#DDDB00;}
	.st14{fill:#35A8E0;}
	.st15{fill:#FFFFFF;stroke:#E20613;stroke-width:10;stroke-miterlimit:10;}
	.st16{fill:#575756;}
	.st17{fill:#868686;}
	.st18{fill:#E9E9EB;}
</style>
<g>
	<g>
		<path d="M28.3,0H0v28.3C0,12.7,12.7,0,28.3,0z"/>
		<path d="M56.7,0H28.3v28.3C28.3,12.7,41,0,56.7,0z"/>
		<path d="M28.3,28.3H0v28.3C0,41,12.7,28.3,28.3,28.3z"/>
		<path d="M56.7,28.3H28.3v28.3C28.3,41,41,28.3,56.7,28.3z"/>
	</g>
	<g>
		<path d="M85,0H56.7v28.3C56.7,12.7,69.4,0,85,0z"/>
		<path d="M113.4,0H85v28.3C85,12.7,97.7,0,113.4,0z"/>
		<path d="M85,28.3H56.7v28.3C56.7,41,69.4,28.3,85,28.3z"/>
		<path d="M113.4,28.3H85v28.3C85,41,97.7,28.3,113.4,28.3z"/>
	</g>
	<g>
		<path d="M28.3,56.7H0V85C0,69.4,12.7,56.7,28.3,56.7z"/>
		<path d="M56.7,56.7H28.3V85C28.3,69.4,41,56.7,56.7,56.7z"/>
		<path d="M28.3,85H0v28.3C0,97.7,12.7,85,28.3,85z"/>
		<path d="M56.7,85H28.3v28.3C28.3,97.7,41,85,56.7,85z"/>
	</g>
	<g>
		<path d="M85,56.7H56.7V85C56.7,69.4,69.4,56.7,85,56.7z"/>
		<path d="M113.4,56.7H85V85C85,69.4,97.7,56.7,113.4,56.7z"/>
		<path d="M85,85H56.7v28.3C56.7,97.7,69.4,85,85,85z"/>
		<path d="M113.4,85H85v28.3C85,97.7,97.7,85,113.4,85z"/>
	</g>
</g>
</svg>
