<?xml version="1.0" encoding="utf-8"?>
<!-- Generator: Adobe Illustrator 25.4.0, SVG Export Plug-In . SVG Version: 6.00 Build 0)  -->
<svg version="1.1" id="Ebene_1" xmlns="http://www.w3.org/2000/svg" xmlns:xlink="http://www.w3.org/1999/xlink" x="0px" y="0px"
	 viewBox="0 0 113.4 113.4" style="enable-background:new 0 0 113.4 113.4;" xml:space="preserve">
<style type="text/css">
	.st0{fill:#1E1E1C;}
	.st1{fill:#6702FF;}
	.st2{fill:#AAD9DE;}
	.st3{fill:#1D1D1B;}
	.st4{fill:#FFFFFF;}
	.st5{fill:none;stroke:#000000;stroke-width:5.1821;stroke-miterlimit:10;}
	.st6{fill:#FFFFFF;stroke:#FFFFFF;stroke-width:5.1821;stroke-miterlimit:10;}
	.st7{fill:#020206;}
	.st8{fill:#E20613;}
	.st9{fill:#BDFF9A;}
	.st10{fill:#FF56FF;}
	.st11{fill:#941B80;}
	.st12{fill:#00A099;}
	.st13{fill:#DDDB00;}
	.st14{fill:#35A8E0;}
	.st15{fill:#FFFFFF;stroke:#E20613;stroke-width:10;stroke-miterlimit:10;}
	.st16{fill:#575756;}
	.st17{fill:#868686;}
	.st18{fill:#E9E9EB;}
</style>
<g>
	<polygon points="113.4,106.3 113.4,113.4 85,106.3 	"/>
	<polygon points="113.4,99.2 113.4,106.3 85,99.2 	"/>
	<polygon points="113.4,92.1 113.4,99.2 85,92.1 	"/>
	<polygon points="113.4,85 113.4,92.1 85,85 	"/>
	<polygon points="113.4,78 113.4,85 85,78 	"/>
	<polygon points="113.4,70.9 113.4,78 85,70.9 	"/>
	<polygon points="113.4,63.8 113.4,70.9 85,63.8 	"/>
	<polygon points="113.4,56.7 113.4,63.8 85,56.7 	"/>
	<polygon points="113.4,49.6 113.4,56.7 85,49.6 	"/>
	<polygon points="113.4,42.5 113.4,49.6 85,42.5 	"/>
	<polygon points="113.4,35.4 113.4,42.5 85,35.4 	"/>
	<polygon points="113.4,28.3 113.4,35.4 85,28.3 	"/>
	<polygon points="113.4,21.3 113.4,28.3 85,21.3 	"/>
	<polygon points="113.4,14.2 113.4,21.3 85,14.2 	"/>
	<polygon points="113.4,7.1 113.4,14.2 85,7.1 	"/>
	<polygon points="113.4,0 113.4,7.1 85,0 	"/>
	<polygon points="85,106.3 85,113.4 56.7,106.3 	"/>
	<polygon points="85,99.2 85,106.3 56.7,99.2 	"/>
	<polygon points="85,92.1 85,99.2 56.7,92.1 	"/>
	<polygon points="85,85 85,92.1 56.7,85 	"/>
	<polygon points="85,78 85,85 56.7,78 	"/>
	<polygon points="85,70.9 85,78 56.7,70.9 	"/>
	<polygon points="85,63.8 85,70.9 56.7,63.8 	"/>
	<polygon points="85,56.7 85,63.8 56.7,56.7 	"/>
	<polygon points="85,49.6 85,56.7 56.7,49.6 	"/>
	<polygon points="85,42.5 85,49.6 56.7,42.5 	"/>
	<polygon points="85,35.4 85,42.5 56.7,35.4 	"/>
	<polygon points="85,28.3 85,35.4 56.7,28.3 	"/>
	<polygon points="85,21.3 85,28.3 56.7,21.3 	"/>
	<polygon points="85,14.2 85,21.3 56.7,14.2 	"/>
	<polygon points="85,7.1 85,14.2 56.7,7.1 	"/>
	<polygon points="85,0 85,7.1 56.7,0 	"/>
	<polygon points="56.7,106.3 56.7,113.4 28.3,106.3 	"/>
	<polygon points="56.7,99.2 56.7,106.3 28.3,99.2 	"/>
	<polygon points="56.7,92.1 56.7,99.2 28.3,92.1 	"/>
	<polygon points="56.7,85 56.7,92.1 28.3,85 	"/>
	<polygon points="56.7,78 56.7,85 28.3,78 	"/>
	<polygon points="56.7,70.9 56.7,78 28.3,70.9 	"/>
	<polygon points="56.7,63.8 56.7,70.9 28.3,63.8 	"/>
	<polygon points="56.7,56.7 56.7,63.8 28.3,56.7 	"/>
	<polygon points="56.7,49.6 56.7,56.7 28.3,49.6 	"/>
	<polygon points="56.7,42.5 56.7,49.6 28.3,42.5 	"/>
	<polygon points="56.7,35.4 56.7,42.5 28.3,35.4 	"/>
	<polygon points="56.7,28.3 56.7,35.4 28.3,28.3 	"/>
	<polygon points="56.7,21.3 56.7,28.3 28.3,21.3 	"/>
	<polygon points="56.7,14.2 56.7,21.3 28.3,14.2 	"/>
	<polygon points="56.7,7.1 56.7,14.2 28.3,7.1 	"/>
	<polygon points="56.7,0 56.7,7.1 28.3,0 	"/>
	<polygon points="28.3,106.3 28.3,113.4 0,106.3 	"/>
	<polygon points="28.3,99.2 28.3,106.3 0,99.2 	"/>
	<polygon points="28.3,92.1 28.3,99.2 0,92.1 	"/>
	<polygon points="28.3,85 28.3,92.1 0,85 	"/>
	<polygon points="28.3,78 28.3,85 0,78 	"/>
	<polygon points="28.3,70.9 28.3,78 0,70.9 	"/>
	<polygon points="28.3,63.8 28.3,70.9 0,63.8 	"/>
	<polygon points="28.3,56.7 28.3,63.8 0,56.7 	"/>
	<polygon points="28.3,49.6 28.3,56.7 0,49.6 	"/>
	<polygon points="28.3,42.5 28.3,49.6 0,42.5 	"/>
	<polygon points="28.3,35.4 28.3,42.5 0,35.4 	"/>
	<polygon points="28.3,28.3 28.3,35.4 0,28.3 	"/>
	<polygon points="28.3,21.3 28.3,28.3 0,21.3 	"/>
	<polygon points="28.3,14.2 28.3,21.3 0,14.2 	"/>
	<polygon points="28.3,7.1 28.3,14.2 0,7.1 	"/>
	<polygon points="28.3,0 28.3,7.1 0,0 	"/>
</g>
</svg>
