<?xml version="1.0" encoding="utf-8"?>
<!-- Generator: Adobe Illustrator 25.4.0, SVG Export Plug-In . SVG Version: 6.00 Build 0)  -->
<svg version="1.1" id="Ebene_1" xmlns="http://www.w3.org/2000/svg" xmlns:xlink="http://www.w3.org/1999/xlink" x="0px" y="0px"
	 viewBox="0 0 113.4 113.4" style="enable-background:new 0 0 113.4 113.4;" xml:space="preserve">
<style type="text/css">
	.st0{fill:#1E1E1C;}
	.st1{fill:#6702FF;}
	.st2{fill:#AAD9DE;}
	.st3{fill:#1D1D1B;}
	.st4{fill:#FFFFFF;}
	.st5{fill:none;stroke:#000000;stroke-width:5.1821;stroke-miterlimit:10;}
	.st6{fill:#FFFFFF;stroke:#FFFFFF;stroke-width:5.1821;stroke-miterlimit:10;}
	.st7{fill:#020206;}
	.st8{fill:#E20613;}
	.st9{fill:#BDFF9A;}
	.st10{fill:#FF56FF;}
	.st11{fill:#941B80;}
	.st12{fill:#00A099;}
	.st13{fill:#DDDB00;}
	.st14{fill:#35A8E0;}
	.st15{fill:#FFFFFF;stroke:#E20613;stroke-width:10;stroke-miterlimit:10;}
	.st16{fill:#575756;}
	.st17{fill:#868686;}
	.st18{fill:#E9E9EB;}
</style>
<g>
	<rect x="4.2" y="4.2" transform="matrix(0.7071 -0.7071 0.7071 0.7071 -5.8706 14.1735)" width="20" height="20"/>
	<rect x="32.5" y="4.2" transform="matrix(0.7071 -0.7071 0.7071 0.7071 2.4319 34.2175)" width="20" height="20"/>
	<rect x="60.8" y="4.2" transform="matrix(0.7071 -0.7071 0.7071 0.7071 10.7343 54.2615)" width="20" height="20"/>
	<rect x="89.2" y="4.2" transform="matrix(0.7071 -0.7071 0.7071 0.7071 19.0368 74.3054)" width="20" height="20"/>
	<rect x="4.2" y="32.5" transform="matrix(0.7071 -0.7071 0.7071 0.7071 -25.9146 22.476)" width="20" height="20"/>
	<rect x="32.5" y="32.5" transform="matrix(0.7071 -0.7071 0.7071 0.7071 -17.6121 42.52)" width="20" height="20"/>
	<rect x="60.8" y="32.5" transform="matrix(0.7071 -0.7071 0.7071 0.7071 -9.3096 62.5639)" width="20" height="20"/>
	<rect x="89.2" y="32.5" transform="matrix(0.7071 -0.7071 0.7071 0.7071 -1.0071 82.6079)" width="20" height="20"/>
	<rect x="4.2" y="60.8" transform="matrix(0.7071 -0.7071 0.7071 0.7071 -45.9586 30.7785)" width="20" height="20"/>
	<rect x="32.5" y="60.8" transform="matrix(0.7071 -0.7071 0.7071 0.7071 -37.6561 50.8224)" width="20" height="20"/>
	<rect x="60.8" y="60.8" transform="matrix(0.7071 -0.7071 0.7071 0.7071 -29.3536 70.8664)" width="20" height="20"/>
	<rect x="89.2" y="60.8" transform="matrix(0.7071 -0.7071 0.7071 0.7071 -21.0511 90.9104)" width="20" height="20"/>
	<rect x="4.2" y="89.2" transform="matrix(0.7071 -0.7071 0.7071 0.7071 -66.0025 39.081)" width="20" height="20"/>
	<rect x="32.5" y="89.2" transform="matrix(0.7071 -0.7071 0.7071 0.7071 -57.7001 59.1249)" width="20" height="20"/>
	<rect x="60.8" y="89.2" transform="matrix(0.7071 -0.7071 0.7071 0.7071 -49.3976 79.1689)" width="20" height="20"/>
	<rect x="89.2" y="89.2" transform="matrix(0.7071 -0.7071 0.7071 0.7071 -41.0951 99.2129)" width="20" height="20"/>
</g>
</svg>
