<?xml version="1.0" encoding="utf-8"?>
<!-- Generator: Adobe Illustrator 25.4.0, SVG Export Plug-In . SVG Version: 6.00 Build 0)  -->
<svg version="1.1" id="Ebene_1" xmlns="http://www.w3.org/2000/svg" xmlns:xlink="http://www.w3.org/1999/xlink" x="0px" y="0px"
	 viewBox="0 0 113.4 113.4" style="enable-background:new 0 0 113.4 113.4;" xml:space="preserve">
<style type="text/css">
	.st0{fill:#1E1E1C;}
	.st1{fill:#6702FF;}
	.st2{fill:#AAD9DE;}
	.st3{fill:#1D1D1B;}
	.st4{fill:#FFFFFF;}
	.st5{fill:none;stroke:#000000;stroke-width:5.1821;stroke-miterlimit:10;}
	.st6{fill:#FFFFFF;stroke:#FFFFFF;stroke-width:5.1821;stroke-miterlimit:10;}
	.st7{fill:#020206;}
	.st8{fill:#E20613;}
	.st9{fill:#BDFF9A;}
	.st10{fill:#FF56FF;}
	.st11{fill:#941B80;}
	.st12{fill:#00A099;}
	.st13{fill:#DDDB00;}
	.st14{fill:#35A8E0;}
	.st15{fill:#FFFFFF;stroke:#E20613;stroke-width:10;stroke-miterlimit:10;}
	.st16{fill:#575756;}
	.st17{fill:#868686;}
	.st18{fill:#E9E9EB;}
</style>
<g>
	<g>
		<polygon points="0,0 28.3,28.3 14.2,28.3 0,14.2 		"/>
		<rect x="14.2" y="0" width="14.2" height="14.2"/>
	</g>
	<g>
		<polygon points="56.7,28.3 28.3,0 42.5,0 56.7,14.2 		"/>
		<rect x="28.3" y="14.2" transform="matrix(-1 -1.224647e-16 1.224647e-16 -1 70.8663 42.5196)" width="14.2" height="14.2"/>
	</g>
	<g>
		<polygon points="0,28.3 28.3,56.7 14.2,56.7 0,42.5 		"/>
		<rect x="14.2" y="28.3" width="14.2" height="14.2"/>
	</g>
	<g>
		<polygon points="56.7,56.7 28.3,28.3 42.5,28.3 56.7,42.5 		"/>
		<rect x="28.3" y="42.5" transform="matrix(-1 -1.224647e-16 1.224647e-16 -1 70.8663 99.2125)" width="14.2" height="14.2"/>
	</g>
	<g>
		<polygon points="0,56.7 28.3,85 14.2,85 0,70.9 		"/>
		<rect x="14.2" y="56.7" width="14.2" height="14.2"/>
	</g>
	<g>
		<polygon points="56.7,85 28.3,56.7 42.5,56.7 56.7,70.9 		"/>
		<rect x="28.3" y="70.9" transform="matrix(-1 -1.224647e-16 1.224647e-16 -1 70.8663 155.9054)" width="14.2" height="14.2"/>
	</g>
	<g>
		<polygon points="0,85 28.3,113.4 14.2,113.4 0,99.2 		"/>
		<rect x="14.2" y="85" width="14.2" height="14.2"/>
	</g>
	<g>
		<polygon points="56.7,113.4 28.3,85 42.5,85 56.7,99.2 		"/>
		<rect x="28.3" y="99.2" transform="matrix(-1 -1.224647e-16 1.224647e-16 -1 70.8663 212.5983)" width="14.2" height="14.2"/>
	</g>
	<g>
		<polygon points="56.7,0 85,28.3 70.9,28.3 56.7,14.2 		"/>
		<rect x="70.9" y="0" width="14.2" height="14.2"/>
	</g>
	<g>
		<polygon points="113.4,28.3 85,0 99.2,0 113.4,14.2 		"/>
		<rect x="85" y="14.2" transform="matrix(-1 -1.224647e-16 1.224647e-16 -1 184.2521 42.5196)" width="14.2" height="14.2"/>
	</g>
	<g>
		<polygon points="56.7,28.3 85,56.7 70.9,56.7 56.7,42.5 		"/>
		<rect x="70.9" y="28.3" width="14.2" height="14.2"/>
	</g>
	<g>
		<polygon points="113.4,56.7 85,28.3 99.2,28.3 113.4,42.5 		"/>
		<rect x="85" y="42.5" transform="matrix(-1 -1.224647e-16 1.224647e-16 -1 184.2521 99.2125)" width="14.2" height="14.2"/>
	</g>
	<g>
		<polygon points="56.7,56.7 85,85 70.9,85 56.7,70.9 		"/>
		<rect x="70.9" y="56.7" width="14.2" height="14.2"/>
	</g>
	<g>
		<polygon points="113.4,85 85,56.7 99.2,56.7 113.4,70.9 		"/>
		<rect x="85" y="70.9" transform="matrix(-1 -1.224647e-16 1.224647e-16 -1 184.2521 155.9054)" width="14.2" height="14.2"/>
	</g>
	<g>
		<polygon points="56.7,85 85,113.4 70.9,113.4 56.7,99.2 		"/>
		<rect x="70.9" y="85" width="14.2" height="14.2"/>
	</g>
	<g>
		<polygon points="113.4,113.4 85,85 99.2,85 113.4,99.2 		"/>
		<rect x="85" y="99.2" transform="matrix(-1 -1.224647e-16 1.224647e-16 -1 184.2521 212.5983)" width="14.2" height="14.2"/>
	</g>
</g>
</svg>
