<?xml version="1.0" encoding="utf-8"?>
<!-- Generator: Adobe Illustrator 25.4.0, SVG Export Plug-In . SVG Version: 6.00 Build 0)  -->
<svg version="1.1" id="Ebene_1" xmlns="http://www.w3.org/2000/svg" xmlns:xlink="http://www.w3.org/1999/xlink" x="0px" y="0px"
	 viewBox="0 0 113.4 113.4" style="enable-background:new 0 0 113.4 113.4;" xml:space="preserve">
<style type="text/css">
	.st0{fill:#1E1E1C;}
	.st1{fill:#6702FF;}
	.st2{fill:#AAD9DE;}
	.st3{fill:#1D1D1B;}
	.st4{fill:#FFFFFF;}
	.st5{fill:none;stroke:#000000;stroke-width:5.1821;stroke-miterlimit:10;}
	.st6{fill:#FFFFFF;stroke:#FFFFFF;stroke-width:5.1821;stroke-miterlimit:10;}
	.st7{fill:#020206;}
	.st8{fill:#E20613;}
	.st9{fill:#BDFF9A;}
	.st10{fill:#FF56FF;}
	.st11{fill:#941B80;}
	.st12{fill:#00A099;}
	.st13{fill:#DDDB00;}
	.st14{fill:#35A8E0;}
	.st15{fill:#FFFFFF;stroke:#E20613;stroke-width:10;stroke-miterlimit:10;}
	.st16{fill:#575756;}
	.st17{fill:#868686;}
	.st18{fill:#E9E9EB;}
</style>
<g>
	<circle cx="56.7" cy="56.7" r="28.3"/>
	<path d="M56.7,0C41,0,28.3,12.7,28.3,28.3H85C85,12.7,72.3,0,56.7,0z"/>
	<path d="M56.7,113.4C72.3,113.4,85,100.7,85,85H28.3C28.3,100.7,41,113.4,56.7,113.4z"/>
	<path d="M0,56.7C0,72.3,12.7,85,28.3,85V28.3C12.7,28.3,0,41,0,56.7z"/>
	<path d="M113.4,56.7c0-15.7-12.7-28.3-28.3-28.3V85C100.7,85,113.4,72.3,113.4,56.7z"/>
	<path d="M85,28.3h28.3C113.4,12.7,100.7,0,85,0h0V28.3z"/>
	<path d="M85,85v28.3c15.7,0,28.3-12.7,28.3-28.3v0H85z"/>
	<path d="M28.3,28.3V0C12.7,0,0,12.7,0,28.3v0H28.3z"/>
	<path d="M28.3,85L0,85c0,15.7,12.7,28.3,28.3,28.3h0L28.3,85z"/>
</g>
</svg>
