<?xml version="1.0" encoding="utf-8"?>
<!-- Generator: Adobe Illustrator 25.4.0, SVG Export Plug-In . SVG Version: 6.00 Build 0)  -->
<svg version="1.1" id="Ebene_1" xmlns="http://www.w3.org/2000/svg" xmlns:xlink="http://www.w3.org/1999/xlink" x="0px" y="0px"
	 viewBox="0 0 113.4 113.4" style="enable-background:new 0 0 113.4 113.4;" xml:space="preserve">
<style type="text/css">
	.st0{fill:#1E1E1C;}
	.st1{fill:#6702FF;}
	.st2{fill:#AAD9DE;}
	.st3{fill:#1D1D1B;}
	.st4{fill:#FFFFFF;}
	.st5{fill:none;stroke:#000000;stroke-width:5.1821;stroke-miterlimit:10;}
	.st6{fill:#FFFFFF;stroke:#FFFFFF;stroke-width:5.1821;stroke-miterlimit:10;}
	.st7{fill:#020206;}
	.st8{fill:#E20613;}
	.st9{fill:#BDFF9A;}
	.st10{fill:#FF56FF;}
	.st11{fill:#941B80;}
	.st12{fill:#00A099;}
	.st13{fill:#DDDB00;}
	.st14{fill:#35A8E0;}
	.st15{fill:#FFFFFF;stroke:#E20613;stroke-width:10;stroke-miterlimit:10;}
	.st16{fill:#575756;}
	.st17{fill:#868686;}
	.st18{fill:#E9E9EB;}
</style>
<g>
	<circle cx="56.7" cy="56.7" r="28.3"/>
	<path d="M56.7,28.3C72.3,28.3,85,15.7,85,0L28.3,0C28.3,15.7,41,28.3,56.7,28.3z"/>
	<path d="M56.7,85C41,85,28.3,97.7,28.3,113.4H85C85,97.7,72.3,85,56.7,85z"/>
	<path d="M28.3,56.7C28.3,41,15.7,28.3,0,28.3L0,85C15.7,85,28.3,72.3,28.3,56.7z"/>
	<path d="M85,56.7C85,72.3,97.7,85,113.4,85l0-56.7C97.7,28.3,85,41,85,56.7z"/>
	<path d="M113.4,0L85,0c0,15.7,12.7,28.3,28.3,28.3h0L113.4,0z"/>
	<path d="M113.4,113.4l0-28.3C97.7,85,85,97.7,85,113.4v0L113.4,113.4z"/>
	<path d="M0,0l0,28.3c15.7,0,28.3-12.7,28.3-28.3v0L0,0z"/>
	<path d="M0,113.4l28.3,0C28.3,97.7,15.7,85,0,85h0L0,113.4z"/>
</g>
</svg>
