<?xml version="1.0" encoding="utf-8"?>
<!-- Generator: Adobe Illustrator 25.4.0, SVG Export Plug-In . SVG Version: 6.00 Build 0)  -->
<svg version="1.1" id="Ebene_1" xmlns="http://www.w3.org/2000/svg" xmlns:xlink="http://www.w3.org/1999/xlink" x="0px" y="0px"
	 viewBox="0 0 113.4 113.4" style="enable-background:new 0 0 113.4 113.4;" xml:space="preserve">
<style type="text/css">
	.st0{fill:#1E1E1C;}
	.st1{fill:#6702FF;}
	.st2{fill:#AAD9DE;}
	.st3{fill:#1D1D1B;}
	.st4{fill:#FFFFFF;}
	.st5{fill:none;stroke:#000000;stroke-width:5.1821;stroke-miterlimit:10;}
	.st6{fill:#FFFFFF;stroke:#FFFFFF;stroke-width:5.1821;stroke-miterlimit:10;}
	.st7{fill:#020206;}
	.st8{fill:#E20613;}
	.st9{fill:#BDFF9A;}
	.st10{fill:#FF56FF;}
	.st11{fill:#941B80;}
	.st12{fill:#00A099;}
	.st13{fill:#DDDB00;}
	.st14{fill:#35A8E0;}
	.st15{fill:#FFFFFF;stroke:#E20613;stroke-width:10;stroke-miterlimit:10;}
	.st16{fill:#575756;}
	.st17{fill:#868686;}
	.st18{fill:#E9E9EB;}
</style>
<g>
	<path d="M56.7,0H0v56.7C0,25.4,25.4,0,56.7,0z"/>
	<path d="M56.7,113.4h56.7V56.7C113.4,88,88,113.4,56.7,113.4z"/>
	<path d="M0,56.7v56.7h56.7C25.4,113.4,0,88,0,56.7z"/>
	<path d="M56.7,0c31.3,0,56.7,25.4,56.7,56.7V0H56.7z"/>
	<path d="M56.7,14.2c-23.5,0-42.5,19-42.5,42.5s19,42.5,42.5,42.5s42.5-19,42.5-42.5S80.2,14.2,56.7,14.2z M56.7,85
		C41,85,28.3,72.3,28.3,56.7S41,28.3,56.7,28.3C72.3,28.3,85,41,85,56.7S72.3,85,56.7,85z"/>
	<circle cx="56.7" cy="56.7" r="14.2"/>
</g>
</svg>
