<?xml version="1.0" encoding="utf-8"?>
<!-- Generator: Adobe Illustrator 25.4.0, SVG Export Plug-In . SVG Version: 6.00 Build 0)  -->
<svg version="1.1" id="Ebene_1" xmlns="http://www.w3.org/2000/svg" xmlns:xlink="http://www.w3.org/1999/xlink" x="0px" y="0px"
	 viewBox="0 0 113.4 113.4" style="enable-background:new 0 0 113.4 113.4;" xml:space="preserve">
<style type="text/css">
	.st0{fill:#1E1E1C;}
	.st1{fill:#6702FF;}
	.st2{fill:#AAD9DE;}
	.st3{fill:#1D1D1B;}
	.st4{fill:#FFFFFF;}
	.st5{fill:none;stroke:#000000;stroke-width:5.1821;stroke-miterlimit:10;}
	.st6{fill:#FFFFFF;stroke:#FFFFFF;stroke-width:5.1821;stroke-miterlimit:10;}
	.st7{fill:#020206;}
	.st8{fill:#E20613;}
	.st9{fill:#BDFF9A;}
	.st10{fill:#FF56FF;}
	.st11{fill:#941B80;}
	.st12{fill:#00A099;}
	.st13{fill:#DDDB00;}
	.st14{fill:#35A8E0;}
	.st15{fill:#FFFFFF;stroke:#E20613;stroke-width:10;stroke-miterlimit:10;}
	.st16{fill:#575756;}
	.st17{fill:#868686;}
	.st18{fill:#E9E9EB;}
</style>
<g>
	<g>
		<rect x="84.3" width="1.5" height="113.4"/>
		<rect x="55.9" width="1.5" height="113.4"/>
		<rect x="27.6" width="1.5" height="113.4"/>
		<rect x="0" y="27.6" width="113.4" height="1.5"/>
		<rect x="0" y="55.9" width="113.4" height="1.5"/>
		<rect x="0" y="84.3" width="113.4" height="1.5"/>
		<path d="M1.5,1.5v110.4h110.4V1.5H1.5 M0,0h113.4v113.4H0V0L0,0z"/>
	</g>
	<rect x="85" y="0" transform="matrix(-1 -1.224647e-16 1.224647e-16 -1 198.4252 28.3465)" width="28.3" height="28.3"/>
	<rect x="56.7" y="28.3" transform="matrix(-1 -1.224647e-16 1.224647e-16 -1 141.7323 85.0394)" width="28.3" height="28.3"/>
	<rect x="28.3" y="56.7" transform="matrix(-1 -1.224647e-16 1.224647e-16 -1 85.0394 141.7323)" width="28.3" height="28.3"/>
	<rect x="0" y="85" transform="matrix(-1 -1.224647e-16 1.224647e-16 -1 28.3465 198.4252)" width="28.3" height="28.3"/>
</g>
</svg>
