<?xml version="1.0" encoding="utf-8"?>
<!-- Generator: Adobe Illustrator 25.3.1, SVG Export Plug-In . SVG Version: 6.00 Build 0)  -->
<svg version="1.1" id="Ebene_1" xmlns="http://www.w3.org/2000/svg" xmlns:xlink="http://www.w3.org/1999/xlink" x="0px" y="0px"
	 viewBox="0 0 113.4 113.4" style="enable-background:new 0 0 113.4 113.4;" xml:space="preserve">
<g>
	<path d="M56.7,28.3C56.7,12.7,44,0,28.3,0S0,12.7,0,28.3H56.7z"/>
	<path d="M113.4,28.3C113.4,12.7,100.7,0,85,0S56.7,12.7,56.7,28.3H113.4z"/>
	<path d="M56.7,56.7C56.7,41,44,28.3,28.3,28.3S0,41,0,56.7H56.7z"/>
	<path d="M113.4,56.7c0-15.7-12.7-28.3-28.3-28.3S56.7,41,56.7,56.7H113.4z"/>
	<path d="M56.7,85c0-15.7-12.7-28.3-28.3-28.3S0,69.4,0,85H56.7z"/>
	<path d="M113.4,85c0-15.7-12.7-28.3-28.3-28.3S56.7,69.4,56.7,85H113.4z"/>
	<path d="M56.7,113.4C56.7,97.7,44,85,28.3,85S0,97.7,0,113.4H56.7z"/>
	<path d="M113.4,113.4C113.4,97.7,100.7,85,85,85s-28.3,12.7-28.3,28.3H113.4z"/>
</g>
</svg>
