<?xml version="1.0" encoding="utf-8"?>
<!-- Generator: Adobe Illustrator 25.3.1, SVG Export Plug-In . SVG Version: 6.00 Build 0)  -->
<svg version="1.1" id="Ebene_1" xmlns="http://www.w3.org/2000/svg" xmlns:xlink="http://www.w3.org/1999/xlink" x="0px" y="0px"
	 viewBox="0 0 113.4 113.4" style="enable-background:new 0 0 113.4 113.4;" xml:space="preserve">
<g>
	<polygon points="0,0 0,28.3 14.2,14.2 14.2,0 	"/>
	<polygon points="14.2,28.3 28.3,14.2 28.3,42.5 56.7,42.5 42.5,56.7 14.2,56.7 	"/>
	<polygon points="42.5,14.2 56.7,0 56.7,28.3 42.5,28.3 	"/>
	<polygon points="28.3,0 28.3,14.2 42.5,0 	"/>
	<polygon points="14.2,56.7 0,56.7 0,99.2 14.2,85 	"/>
	<polygon points="0,113.4 14.2,99.2 28.3,99.2 28.3,113.4 	"/>
	<polygon points="14.2,85 42.5,85 28.3,70.9 14.2,70.9 	"/>
	<polygon points="28.3,56.7 42.5,70.9 70.9,70.9 70.9,85 85,85 85,56.7 	"/>
	<polygon points="56.7,85 70.9,99.2 70.9,113.4 56.7,113.4 	"/>
	<polygon points="42.5,99.2 56.7,113.4 42.5,113.4 	"/>
	<polygon points="42.5,70.9 56.7,85 42.5,85 	"/>
	<polygon points="56.7,42.5 70.9,56.7 70.9,42.5 	"/>
	<polygon points="85,56.7 85,28.3 99.2,42.5 99.2,56.7 	"/>
	<polygon points="85,70.9 99.2,85 99.2,70.9 	"/>
	<polygon points="99.2,56.7 99.2,70.9 113.4,56.7 	"/>
	<polygon points="99.2,85 113.4,85 113.4,113.4 70.9,113.4 85,99.2 99.2,99.2 	"/>
	<polygon points="70.9,0 70.9,14.2 113.4,14.2 99.2,0 	"/>
	<polygon points="85,28.3 70.9,28.3 56.7,42.5 56.7,14.2 85,14.2 	"/>
	<polygon points="99.2,28.3 113.4,42.5 99.2,42.5 	"/>
</g>
</svg>
