<svg version="1.1" id="Ebene_1" xmlns="http://www.w3.org/2000/svg" xmlns:xlink="http://www.w3.org/1999/xlink" x="0px" y="0px" viewBox="0 0 100 100" style="enable-background:new 0 0 100 100;" xml:space="preserve">
<g>
	<path d="M53.1,0H50c1.1,0,2.2,0.1,3.2,0.1L53.1,0z"/>
	<path d="M46.9,0L47,0.1C48,0,49,0,50,0H46.9z"/>
	<path d="M96,30.4L69.6,4c-2.9-1.3-6-2.2-9.1-2.9l38.4,38.4C98.2,36.4,97.3,33.3,96,30.4L96,30.4z"/>
	<path d="M27.3,5.4l67.2,67.2c0.7-1.4,1.4-2.8,1.9-4.3L31.6,3.5C30.2,4.1,28.7,4.7,27.3,5.4z"/>
	<path d="M50,0c-1,0-2,0-3,0.1L99.9,53c0.1-1,0.1-2,0.1-3c0-1-0.1-2.2-0.1-3.2L53.2,0.1C52.2,0.1,51.1,0,50,0z"/>
	<path d="M36.3,1.9l61.8,61.7c0.5-1.7,0.9-3.4,1.2-5.1L41.4,0.7C39.7,1,38,1.4,36.3,1.9L36.3,1.9z"/>
	<path d="M19.7,10.3l70.1,70.1c0.9-1.2,1.8-2.4,2.6-3.7L23.3,7.7C22.1,8.5,20.8,9.4,19.7,10.3z"/>
	<path d="M4,69.6L30.4,96c2.9,1.2,6,2.2,9.1,2.9L1.1,60.5C1.8,63.6,2.7,66.7,4,69.6L4,69.6z"/>
	<path d="M0,50c0,1.1,0,2.2,0.1,3.2l46.7,46.7c1.1,0.1,2.1,0.1,3.2,0.1c1.1,0,2,0,3-0.1L0.1,47C0,48,0,49,0,50z"/>
	<path d="M0.8,41.4l57.9,57.9c1.7-0.3,3.4-0.7,5.1-1.2L1.9,36.3C1.4,38,1.1,39.7,0.8,41.4L0.8,41.4z"/>
	<path d="M7.7,23.3l68.9,68.9c1.3-0.8,2.5-1.6,3.7-2.6L10.3,19.7C9.4,20.8,8.5,22.1,7.7,23.3z"/>
	<path d="M13.1,16.2l70.6,70.6c1.1-1,2.1-2,3.1-3.1L16.2,13.1C15.2,14.1,14.1,15.2,13.1,16.2z"/>
	<path d="M3.5,31.6l64.9,64.9c1.5-0.6,2.9-1.2,4.3-1.9L5.4,27.3C4.7,28.7,4.1,30.2,3.5,31.6z"/>
</g>
</svg>
