<svg width="100" height="100" viewBox="0 0 100 100" fill="none" xmlns="http://www.w3.org/2000/svg">
<path d="M53.4481 0.0898438H50.335C51.4197 0.0898438 52.4956 0.14287 53.5628 0.204604L53.4481 0.0898438Z" />
<path d="M47.2129 0.0898438L47.3099 0.195776C48.3065 0.134043 49.3118 0.0898438 50.326 0.0898438H47.2129Z" />
<path d="M96.3261 30.4719L69.9481 4.09375C67.0055 2.83848 63.9488 1.86976 60.8203 1.20105L99.2188 39.5995C98.55 36.471 97.5813 33.4144 96.3261 30.4719V30.4719Z" />
<path d="M27.6523 5.53143L94.8981 72.7684C95.6036 71.3661 96.2563 69.9373 96.8383 68.4733L31.9561 3.6001C30.5186 4.17334 29.0546 4.8259 27.6523 5.53143Z" />
<path d="M50.3345 0.0898438C49.3203 0.0898438 48.3149 0.134043 47.3184 0.195776L100.233 53.1105C100.286 52.1139 100.33 51.1086 100.33 50.0944C100.33 49.0802 100.277 47.9248 100.215 46.8576L53.5623 0.204604C52.4952 0.186966 51.4193 0.0898438 50.3345 0.0898438Z" />
<path d="M36.6299 2.01252L98.4078 63.7463C98.8861 62.078 99.2747 60.3852 99.5719 58.6753L41.7009 0.804199C39.9902 1.11597 38.2974 1.51939 36.6299 2.01252V2.01252Z" />
<path d="M19.9883 10.3643L90.0562 80.4409C90.9381 79.2592 91.82 78.0334 92.6137 76.7634L23.6659 7.81543C22.3959 8.60915 21.17 9.45591 19.9883 10.3643Z" />
<path d="M4.33416 69.7082L30.7121 96.0949C33.6564 97.3433 36.7128 98.309 39.8399 98.9788L1.41504 60.5891C2.09358 63.7153 3.07112 66.7691 4.33416 69.7082V69.7082Z" />
<path d="M0.330078 50.0944C0.330078 51.1792 0.330069 52.255 0.444717 53.3221L47.0978 99.9752C48.165 100.046 49.2409 100.09 50.3256 100.09C51.4104 100.09 52.3452 100.046 53.3506 99.9928L0.435903 47.0781C0.374169 48.0747 0.330078 49.0802 0.330078 50.0944Z" />
<path d="M1.08789 41.4692L58.9501 99.3313C60.6621 99.0338 62.3576 98.6483 64.0299 98.1762L2.24319 36.3894C1.77105 38.0617 1.38544 39.7572 1.08789 41.4692V41.4692Z" />
<path d="M8.04688 23.4254L76.9947 92.3732C78.2647 91.5795 79.4905 90.7268 80.6723 89.8155L10.6044 19.7477C9.69898 20.9294 8.84647 22.1554 8.04688 23.4254Z" />
<path d="M13.4531 16.3348L84.0854 86.9669C85.1731 85.9674 86.2138 84.927 87.2074 83.8451L16.5751 13.2128C15.4933 14.2123 14.4526 15.253 13.4531 16.3348Z" />
<path d="M3.83105 31.7153L68.7045 96.5888C70.1773 96.0067 71.606 95.363 73.0082 94.6486L5.77126 27.4203C5.06573 28.8137 4.41312 30.2425 3.83105 31.7153Z" />
</svg>
