<svg enable-background="new 0 0 100 100" viewBox="0 0 100 100" xmlns="http://www.w3.org/2000/svg"><path d="m53.1 0h-3.1c1.1 0 2.2.1 3.2.1z"/><path d="m46.9 0 .1.1c1-.1 2-.1 3-.1z"/><path d="m96 30.4-26.4-26.4c-2.9-1.3-6-2.2-9.1-2.9l38.4 38.4c-.7-3.1-1.6-6.2-2.9-9.1z"/><path d="m27.3 5.4 67.2 67.2c.7-1.4 1.4-2.8 1.9-4.3l-64.8-64.8c-1.4.6-2.9 1.2-4.3 1.9z"/><path d="m50 0c-1 0-2 0-3 .1l52.9 52.9c.1-1 .1-2 .1-3s-.1-2.2-.1-3.2l-46.7-46.7c-1 0-2.1-.1-3.2-.1z"/><path d="m36.3 1.9 61.8 61.7c.5-1.7.9-3.4 1.2-5.1l-57.9-57.8c-1.7.3-3.4.7-5.1 1.2z"/><path d="m19.7 10.3 70.1 70.1c.9-1.2 1.8-2.4 2.6-3.7l-69.1-69c-1.2.8-2.5 1.7-3.6 2.6z"/><path d="m4 69.6 26.4 26.4c2.9 1.2 6 2.2 9.1 2.9l-38.4-38.4c.7 3.1 1.6 6.2 2.9 9.1z"/><path d="m0 50c0 1.1 0 2.2.1 3.2l46.7 46.7c1.1.1 2.1.1 3.2.1s2 0 3-.1l-52.9-52.9c-.1 1-.1 2-.1 3z"/><path d="m.8 41.4 57.9 57.9c1.7-.3 3.4-.7 5.1-1.2l-61.9-61.8c-.5 1.7-.8 3.4-1.1 5.1z"/><path d="m7.7 23.3 68.9 68.9c1.3-.8 2.5-1.6 3.7-2.6l-70-69.9c-.9 1.1-1.8 2.4-2.6 3.6z"/><path d="m13.1 16.2 70.6 70.6c1.1-1 2.1-2 3.1-3.1l-70.6-70.6c-1 1-2.1 2.1-3.1 3.1z"/><path d="m3.5 31.6 64.9 64.9c1.5-.6 2.9-1.2 4.3-1.9l-67.3-67.3c-.7 1.4-1.3 2.9-1.9 4.3z"/></svg>