<svg version="1.1" id="Ebene_1" xmlns="http://www.w3.org/2000/svg" xmlns:xlink="http://www.w3.org/1999/xlink" x="0px" y="0px" viewBox="0 0 100 100" style="enable-background:new 0 0 100 100;" xml:space="preserve">
<g>
	<path d="M0,0v12.5L12.5,25V12.5H25L12.5,0H0z"/>
	<path d="M25,0v12.5L37.5,25V12.5H50L37.5,0H25z"/>
	<path d="M50,0v12.5L62.5,25V12.5H75L62.5,0H50z"/>
	<path d="M75,0v12.5L87.5,25V12.5H100L87.5,0H75z"/>
	<path d="M0,25v12.5L12.5,50V37.5H25L12.5,25H0z"/>
	<path d="M25,25v12.5L37.5,50V37.5H50L37.5,25H25z"/>
	<path d="M50,25v12.5L62.5,50V37.5H75L62.5,25H50z"/>
	<path d="M75,25v12.5L87.5,50V37.5H100L87.5,25H75z"/>
	<path d="M0,50v12.5L12.5,75V62.5H25L12.5,50H0z"/>
	<path d="M25,50v12.5L37.5,75V62.5H50L37.5,50H25z"/>
	<path d="M50,50v12.5L62.5,75V62.5H75L62.5,50H50z"/>
	<path d="M75,50v12.5L87.5,75V62.5H100L87.5,50H75z"/>
	<path d="M0,75v12.5L12.5,100V87.5H25L12.5,75H0z"/>
	<path d="M25,75v12.5L37.5,100V87.5H50L37.5,75H25z"/>
	<path d="M50,75v12.5L62.5,100V87.5H75L62.5,75H50z"/>
	<path d="M75,75v12.5L87.5,100V87.5H100L87.5,75H75z"/>
</g>
</svg>
