<svg enable-background="new 0 0 100 100" viewBox="0 0 100 100" xmlns="http://www.w3.org/2000/svg"><path d="m0 0v12.5l12.5 12.5v-12.5h12.5l-12.5-12.5z"/><path d="m25 0v12.5l12.5 12.5v-12.5h12.5l-12.5-12.5z"/><path d="m50 0v12.5l12.5 12.5v-12.5h12.5l-12.5-12.5z"/><path d="m75 0v12.5l12.5 12.5v-12.5h12.5l-12.5-12.5z"/><path d="m0 25v12.5l12.5 12.5v-12.5h12.5l-12.5-12.5z"/><path d="m25 25v12.5l12.5 12.5v-12.5h12.5l-12.5-12.5z"/><path d="m50 25v12.5l12.5 12.5v-12.5h12.5l-12.5-12.5z"/><path d="m75 25v12.5l12.5 12.5v-12.5h12.5l-12.5-12.5z"/><path d="m0 50v12.5l12.5 12.5v-12.5h12.5l-12.5-12.5z"/><path d="m25 50v12.5l12.5 12.5v-12.5h12.5l-12.5-12.5z"/><path d="m50 50v12.5l12.5 12.5v-12.5h12.5l-12.5-12.5z"/><path d="m75 50v12.5l12.5 12.5v-12.5h12.5l-12.5-12.5z"/><path d="m0 75v12.5l12.5 12.5v-12.5h12.5l-12.5-12.5z"/><path d="m25 75v12.5l12.5 12.5v-12.5h12.5l-12.5-12.5z"/><path d="m50 75v12.5l12.5 12.5v-12.5h12.5l-12.5-12.5z"/><path d="m75 75v12.5l12.5 12.5v-12.5h12.5l-12.5-12.5z"/></svg>