<svg width="100" height="100" viewBox="0 0 100 100" fill="none" xmlns="http://www.w3.org/2000/svg">
<path d="M0.320312 0.630005V13.1267L12.817 25.6322V13.1267H25.3137L12.817 0.630005H0.320312Z" />
<path d="M25.3135 0.630005V13.1267L37.819 25.6322V13.1267H50.3157L37.819 0.630005H25.3135Z" />
<path d="M50.3154 0.630005V13.1267L62.8121 25.6322V13.1267H75.3088L62.8121 0.630005H50.3154Z" />
<path d="M75.3086 0.630005V13.1267L87.8142 25.6322V13.1267H100.311L87.8142 0.630005H75.3086Z" />
<path d="M0.320312 25.6322V38.1289L12.817 50.6256V38.1289H25.3137L12.817 25.6322H0.320312Z" />
<path d="M25.3135 25.6322V38.1289L37.819 50.6256V38.1289H50.3157L37.819 25.6322H25.3135Z" />
<path d="M50.3154 25.6322V38.1289L62.8121 50.6256V38.1289H75.3088L62.8121 25.6322H50.3154Z" />
<path d="M75.3086 25.6322V38.1289L87.8142 50.6256V38.1289H100.311L87.8142 25.6322H75.3086Z" />
<path d="M0.320312 50.6255V63.1311L12.817 75.6278V63.1311H25.3137L12.817 50.6255H0.320312Z" />
<path d="M25.3135 50.6255V63.1311L37.819 75.6278V63.1311H50.3157L37.819 50.6255H25.3135Z" />
<path d="M50.3154 50.6255V63.1311L62.8121 75.6278V63.1311H75.3088L62.8121 50.6255H50.3154Z" />
<path d="M75.3086 50.6255V63.1311L87.8142 75.6278V63.1311H100.311L87.8142 50.6255H75.3086Z" />
<path d="M0.320312 75.6277V88.1243L12.817 100.63V88.1243H25.3137L12.817 75.6277H0.320312Z" />
<path d="M25.3135 75.6277V88.1243L37.819 100.63V88.1243H50.3157L37.819 75.6277H25.3135Z" />
<path d="M50.3154 75.6277V88.1243L62.8121 100.63V88.1243H75.3088L62.8121 75.6277H50.3154Z" />
<path d="M75.3086 75.6277V88.1243L87.8142 100.63V88.1243H100.311L87.8142 75.6277H75.3086Z" />
</svg>
