<?xml version="1.0" encoding="utf-8"?>
<!-- Generator: Adobe Illustrator 25.4.0, SVG Export Plug-In . SVG Version: 6.00 Build 0)  -->
<svg version="1.1" id="Ebene_1" xmlns="http://www.w3.org/2000/svg" xmlns:xlink="http://www.w3.org/1999/xlink" x="0px" y="0px"
	 viewBox="0 0 113.4 113.4" style="enable-background:new 0 0 113.4 113.4;" xml:space="preserve">
<style type="text/css">
	.st0{fill:#1E1E1C;}
	.st1{fill:#6702FF;}
	.st2{fill:#AAD9DE;}
	.st3{fill:#1D1D1B;}
	.st4{fill:#FFFFFF;}
	.st5{fill:none;stroke:#000000;stroke-width:5.1821;stroke-miterlimit:10;}
	.st6{fill:#FFFFFF;stroke:#FFFFFF;stroke-width:5.1821;stroke-miterlimit:10;}
	.st7{fill:#020206;}
	.st8{fill:#E20613;}
	.st9{fill:#BDFF9A;}
	.st10{fill:#FF56FF;}
	.st11{fill:#941B80;}
	.st12{fill:#00A099;}
	.st13{fill:#DDDB00;}
	.st14{fill:#35A8E0;}
	.st15{fill:#FFFFFF;stroke:#E20613;stroke-width:10;stroke-miterlimit:10;}
	.st16{fill:#575756;}
	.st17{fill:#868686;}
	.st18{fill:#E9E9EB;}
</style>
<g>
	<polygon points="113.4,16.4 102,2 90.7,16.4 79.4,2 68,16.4 56.7,2 45.3,16.4 34,2 22.7,16.4 11.3,2 0,16.4 0,24.2 11.3,9.8 
		22.7,24.2 34,9.8 45.3,24.2 56.7,9.8 68,24.2 79.4,9.8 90.7,24.2 102,9.8 113.4,24.2 	"/>
	<polygon points="113.4,32.6 102,18.2 90.7,32.6 79.4,18.2 68,32.6 56.7,18.2 45.3,32.6 34,18.2 22.7,32.6 11.3,18.2 0,32.6 0,40.4 
		11.3,26 22.7,40.4 34,26 45.3,40.4 56.7,26 68,40.4 79.4,26 90.7,40.4 102,26 113.4,40.4 	"/>
	<polygon points="113.4,48.8 102,34.4 90.7,48.8 79.4,34.4 68,48.8 56.7,34.4 45.3,48.8 34,34.4 22.7,48.8 11.3,34.4 0,48.8 0,56.6 
		11.3,42.2 22.7,56.6 34,42.2 45.3,56.6 56.7,42.2 68,56.6 79.4,42.2 90.7,56.6 102,42.2 113.4,56.6 	"/>
	<polygon points="113.4,65 102,50.6 90.7,65 79.4,50.6 68,65 56.7,50.6 45.3,65 34,50.6 22.7,65 11.3,50.6 0,65 0,72.8 11.3,58.4 
		22.7,72.8 34,58.4 45.3,72.8 56.7,58.4 68,72.8 79.4,58.4 90.7,72.8 102,58.4 113.4,72.8 	"/>
	<polygon points="113.4,81.2 102,66.8 90.7,81.2 79.4,66.8 68,81.2 56.7,66.8 45.3,81.2 34,66.8 22.7,81.2 11.3,66.8 0,81.2 0,89 
		11.3,74.6 22.7,89 34,74.6 45.3,89 56.7,74.6 68,89 79.4,74.6 90.7,89 102,74.6 113.4,89 	"/>
	<polygon points="113.4,97.4 102,83 90.7,97.4 79.4,83 68,97.4 56.7,83 45.3,97.4 34,83 22.7,97.4 11.3,83 0,97.4 0,105.2 
		11.3,90.8 22.7,105.2 34,90.8 45.3,105.2 56.7,90.8 68,105.2 79.4,90.8 90.7,105.2 102,90.8 113.4,105.2 	"/>
	<g>
		<polygon points="74.3,113.4 79.4,107 84.4,113.4 90.5,113.4 79.4,99.2 68.2,113.4 		"/>
		<polygon points="97,113.4 102,107 107.1,113.4 113.2,113.4 102,99.2 90.9,113.4 		"/>
		<polygon points="6.3,113.4 11.3,107 16.4,113.4 22.5,113.4 11.3,99.2 0.2,113.4 		"/>
		<polygon points="29,113.4 34,107 39,113.4 45.1,113.4 34,99.2 22.9,113.4 		"/>
		<polygon points="51.6,113.4 56.7,107 61.7,113.4 67.8,113.4 56.7,99.2 45.5,113.4 		"/>
	</g>
	<g>
		<polygon points="45.5,0 45.3,0.2 45.1,0 39,0 45.3,8 51.6,0 		"/>
		<polygon points="0.2,0 0,0.2 0,8 6.3,0 		"/>
		<polygon points="22.9,0 22.7,0.2 22.5,0 16.4,0 22.7,8 29,0 		"/>
		<polygon points="68.2,0 68,0.2 67.8,0 61.7,0 68,8 74.3,0 		"/>
		<polygon points="107.1,0 113.4,8 113.4,0.2 113.2,0 		"/>
		<polygon points="90.9,0 90.7,0.3 90.5,0 84.4,0 90.7,8 97,0 		"/>
	</g>
</g>
</svg>
