<?xml version="1.0" encoding="utf-8"?>
<!-- Generator: Adobe Illustrator 25.4.0, SVG Export Plug-In . SVG Version: 6.00 Build 0)  -->
<svg version="1.1" id="Ebene_1" xmlns="http://www.w3.org/2000/svg" xmlns:xlink="http://www.w3.org/1999/xlink" x="0px" y="0px"
	 viewBox="0 0 113.4 113.4" style="enable-background:new 0 0 113.4 113.4;" xml:space="preserve">
<style type="text/css">
	.st0{fill:#1E1E1C;}
	.st1{fill:#6702FF;}
	.st2{fill:#AAD9DE;}
	.st3{fill:#1D1D1B;}
	.st4{fill:#FFFFFF;}
	.st5{fill:none;stroke:#000000;stroke-width:5.1821;stroke-miterlimit:10;}
	.st6{fill:#FFFFFF;stroke:#FFFFFF;stroke-width:5.1821;stroke-miterlimit:10;}
	.st7{fill:#020206;}
	.st8{fill:#E20613;}
	.st9{fill:#BDFF9A;}
	.st10{fill:#FF56FF;}
	.st11{fill:#941B80;}
	.st12{fill:#00A099;}
	.st13{fill:#DDDB00;}
	.st14{fill:#35A8E0;}
	.st15{fill:#FFFFFF;stroke:#E20613;stroke-width:10;stroke-miterlimit:10;}
	.st16{fill:#575756;}
	.st17{fill:#868686;}
	.st18{fill:#E9E9EB;}
</style>
<g>
	<g>
		<polygon points="10.1,-0.9 16.9,-0.9 28.3,10.5 28.3,17.3 		"/>
		<polygon points="0,-0.9 3.4,-0.9 28.3,24 28.3,27.4 25,27.4 0,2.4 		"/>
		<polygon points="28.3,3.8 23.6,-0.9 28.3,-0.9 		"/>
		<polygon points="0,15.9 0,9.2 18.2,27.4 11.5,27.4 		"/>
		<polygon points="0,22.7 4.7,27.4 0,27.4 		"/>
	</g>
	<g>
		<polygon points="46.6,-0.9 39.8,-0.9 28.3,10.5 28.3,17.3 		"/>
		<polygon points="56.7,-0.9 53.3,-0.9 28.3,24 28.3,27.4 31.7,27.4 56.7,2.4 		"/>
		<polygon points="28.3,3.8 33.1,-0.9 28.3,-0.9 		"/>
		<polygon points="56.7,15.9 56.7,9.2 38.5,27.4 45.2,27.4 		"/>
		<polygon points="56.7,22.7 52,27.4 56.7,27.4 		"/>
	</g>
	<g>
		<polygon points="66.8,-0.9 73.6,-0.9 85,10.5 85,17.3 		"/>
		<polygon points="56.7,-0.9 60.1,-0.9 85,24 85,27.4 81.7,27.4 56.7,2.4 		"/>
		<polygon points="85,3.8 80.3,-0.9 85,-0.9 		"/>
		<polygon points="56.7,15.9 56.7,9.2 74.9,27.4 68.2,27.4 		"/>
		<polygon points="56.7,22.7 61.4,27.4 56.7,27.4 		"/>
	</g>
	<g>
		<polygon points="103.3,-0.9 96.5,-0.9 85,10.5 85,17.3 		"/>
		<polygon points="113.4,-0.9 110,-0.9 85,24 85,27.4 88.4,27.4 113.4,2.4 		"/>
		<polygon points="85,3.8 89.8,-0.9 85,-0.9 		"/>
		<polygon points="113.4,15.9 113.4,9.2 95.2,27.4 101.9,27.4 		"/>
		<polygon points="113.4,22.7 108.7,27.4 113.4,27.4 		"/>
	</g>
	<g>
		<polygon points="10.1,55.8 16.9,55.8 28.3,44.3 28.3,37.5 		"/>
		<polygon points="0,55.8 3.4,55.8 28.3,30.8 28.3,27.4 25,27.4 0,52.4 		"/>
		<polygon points="28.3,51 23.6,55.8 28.3,55.8 		"/>
		<polygon points="0,38.9 0,45.6 18.2,27.4 11.5,27.4 		"/>
		<polygon points="0,32.1 4.7,27.4 0,27.4 		"/>
	</g>
	<g>
		<polygon points="46.6,55.8 39.8,55.8 28.3,44.3 28.3,37.5 		"/>
		<polygon points="56.7,55.8 53.3,55.8 28.3,30.8 28.3,27.4 31.7,27.4 56.7,52.4 		"/>
		<polygon points="28.3,51 33.1,55.8 28.3,55.8 		"/>
		<polygon points="56.7,38.9 56.7,45.6 38.5,27.4 45.2,27.4 		"/>
		<polygon points="56.7,32.1 52,27.4 56.7,27.4 		"/>
	</g>
	<g>
		<polygon points="66.8,55.8 73.6,55.8 85,44.3 85,37.5 		"/>
		<polygon points="56.7,55.8 60.1,55.8 85,30.8 85,27.4 81.7,27.4 56.7,52.4 		"/>
		<polygon points="85,51 80.3,55.8 85,55.8 		"/>
		<polygon points="56.7,38.9 56.7,45.6 74.9,27.4 68.2,27.4 		"/>
		<polygon points="56.7,32.1 61.4,27.4 56.7,27.4 		"/>
	</g>
	<g>
		<polygon points="103.3,55.8 96.5,55.8 85,44.3 85,37.5 		"/>
		<polygon points="113.4,55.8 110,55.8 85,30.8 85,27.4 88.4,27.4 113.4,52.4 		"/>
		<polygon points="85,51 89.8,55.8 85,55.8 		"/>
		<polygon points="113.4,38.9 113.4,45.6 95.2,27.4 101.9,27.4 		"/>
		<polygon points="113.4,32.1 108.7,27.4 113.4,27.4 		"/>
	</g>
	<g>
		<polygon points="10.1,55.8 16.9,55.8 28.3,67.2 28.3,74 		"/>
		<polygon points="0,55.8 3.4,55.8 28.3,80.7 28.3,84.1 25,84.1 0,59.1 		"/>
		<polygon points="28.3,60.5 23.6,55.8 28.3,55.8 		"/>
		<polygon points="0,72.6 0,65.9 18.2,84.1 11.5,84.1 		"/>
		<polygon points="0,79.4 4.7,84.1 0,84.1 		"/>
	</g>
	<g>
		<polygon points="46.6,55.8 39.8,55.8 28.3,67.2 28.3,74 		"/>
		<polygon points="56.7,55.8 53.3,55.8 28.3,80.7 28.3,84.1 31.7,84.1 56.7,59.1 		"/>
		<polygon points="28.3,60.5 33.1,55.8 28.3,55.8 		"/>
		<polygon points="56.7,72.6 56.7,65.9 38.5,84.1 45.2,84.1 		"/>
		<polygon points="56.7,79.4 52,84.1 56.7,84.1 		"/>
	</g>
	<g>
		<polygon points="66.8,55.8 73.6,55.8 85,67.2 85,74 		"/>
		<polygon points="56.7,55.8 60.1,55.8 85,80.7 85,84.1 81.7,84.1 56.7,59.1 		"/>
		<polygon points="85,60.5 80.3,55.8 85,55.8 		"/>
		<polygon points="56.7,72.6 56.7,65.9 74.9,84.1 68.2,84.1 		"/>
		<polygon points="56.7,79.4 61.4,84.1 56.7,84.1 		"/>
	</g>
	<g>
		<polygon points="103.3,55.8 96.5,55.8 85,67.2 85,74 		"/>
		<polygon points="113.4,55.8 110,55.8 85,80.7 85,84.1 88.4,84.1 113.4,59.1 		"/>
		<polygon points="85,60.5 89.8,55.8 85,55.8 		"/>
		<polygon points="113.4,72.6 113.4,65.9 95.2,84.1 101.9,84.1 		"/>
		<polygon points="113.4,79.4 108.7,84.1 113.4,84.1 		"/>
	</g>
	<g>
		<polygon points="10.1,112.4 16.9,112.4 28.3,101 28.3,94.2 		"/>
		<polygon points="0,112.4 3.4,112.4 28.3,87.5 28.3,84.1 25,84.1 0,109.1 		"/>
		<polygon points="28.3,107.7 23.6,112.4 28.3,112.4 		"/>
		<polygon points="0,95.6 0,102.3 18.2,84.1 11.5,84.1 		"/>
		<polygon points="0,88.8 4.7,84.1 0,84.1 		"/>
	</g>
	<g>
		<polygon points="46.6,112.4 39.8,112.4 28.3,101 28.3,94.2 		"/>
		<polygon points="56.7,112.4 53.3,112.4 28.3,87.5 28.3,84.1 31.7,84.1 56.7,109.1 		"/>
		<polygon points="28.3,107.7 33.1,112.4 28.3,112.4 		"/>
		<polygon points="56.7,95.6 56.7,102.3 38.5,84.1 45.2,84.1 		"/>
		<polygon points="56.7,88.8 52,84.1 56.7,84.1 		"/>
	</g>
	<g>
		<polygon points="66.8,112.4 73.6,112.4 85,101 85,94.2 		"/>
		<polygon points="56.7,112.4 60.1,112.4 85,87.5 85,84.1 81.7,84.1 56.7,109.1 		"/>
		<polygon points="85,107.7 80.3,112.4 85,112.4 		"/>
		<polygon points="56.7,95.6 56.7,102.3 74.9,84.1 68.2,84.1 		"/>
		<polygon points="56.7,88.8 61.4,84.1 56.7,84.1 		"/>
	</g>
	<g>
		<polygon points="103.3,112.4 96.5,112.4 85,101 85,94.2 		"/>
		<polygon points="113.4,112.4 110,112.4 85,87.5 85,84.1 88.4,84.1 113.4,109.1 		"/>
		<polygon points="85,107.7 89.8,112.4 85,112.4 		"/>
		<polygon points="113.4,95.6 113.4,102.3 95.2,84.1 101.9,84.1 		"/>
		<polygon points="113.4,88.8 108.7,84.1 113.4,84.1 		"/>
	</g>
</g>
</svg>
