<?xml version="1.0" encoding="utf-8"?>
<!-- Generator: Adobe Illustrator 25.4.0, SVG Export Plug-In . SVG Version: 6.00 Build 0)  -->
<svg version="1.1" id="Ebene_1" xmlns="http://www.w3.org/2000/svg" xmlns:xlink="http://www.w3.org/1999/xlink" x="0px" y="0px"
	 viewBox="0 0 113.4 113.4" style="enable-background:new 0 0 113.4 113.4;" xml:space="preserve">
<style type="text/css">
	.st0{fill:#1E1E1C;}
	.st1{fill:#6702FF;}
	.st2{fill:#AAD9DE;}
	.st3{fill:#1D1D1B;}
	.st4{fill:#FFFFFF;}
	.st5{fill:none;stroke:#000000;stroke-width:5.1821;stroke-miterlimit:10;}
	.st6{fill:#FFFFFF;stroke:#FFFFFF;stroke-width:5.1821;stroke-miterlimit:10;}
	.st7{fill:#020206;}
	.st8{fill:#E20613;}
	.st9{fill:#BDFF9A;}
	.st10{fill:#FF56FF;}
	.st11{fill:#941B80;}
	.st12{fill:#00A099;}
	.st13{fill:#DDDB00;}
	.st14{fill:#35A8E0;}
	.st15{fill:#FFFFFF;stroke:#E20613;stroke-width:10;stroke-miterlimit:10;}
	.st16{fill:#575756;}
	.st17{fill:#868686;}
	.st18{fill:#E9E9EB;}
</style>
<g>
	<path d="M0,98.9l14.2,14.2H0V98.9z"/>
	<path d="M0,84.7l28.3,28.3h14.2L0,70.5V84.7z"/>
	<path d="M56.7,113.1L0,56.4h14.2l56.7,56.7H56.7z"/>
	<path d="M85,113.1L28.3,56.4h14.2l56.7,56.7H85z"/>
	<path d="M113.4,113.1L56.7,56.4h14.2l42.5,42.5V113.1z"/>
	<path d="M113.4,84.7L85,56.4h14.2l14.2,14.2V84.7z"/>
	<path d="M0,42.2l14.2,14.2H0V42.2z"/>
	<path d="M0,28l28.3,28.3h14.2L0,13.9V28z"/>
	<path d="M56.7,56.4L0-0.3h14.2l56.7,56.7H56.7z"/>
	<path d="M85,56.4L28.3-0.3h14.2l56.7,56.7H85z"/>
	<path d="M113.4,56.4L56.7-0.3h14.2l42.5,42.5V56.4z"/>
	<path d="M113.4,28L85-0.3h14.2l14.2,14.2V28z"/>
</g>
</svg>
