<?xml version="1.0" encoding="utf-8"?>
<!-- Generator: Adobe Illustrator 25.4.0, SVG Export Plug-In . SVG Version: 6.00 Build 0)  -->
<svg version="1.1" id="Ebene_1" xmlns="http://www.w3.org/2000/svg" xmlns:xlink="http://www.w3.org/1999/xlink" x="0px" y="0px"
	 viewBox="0 0 113.4 113.4" style="enable-background:new 0 0 113.4 113.4;" xml:space="preserve">
<style type="text/css">
	.st0{fill:#1E1E1C;}
	.st1{fill:#6702FF;}
	.st2{fill:#AAD9DE;}
	.st3{fill:#1D1D1B;}
	.st4{fill:#FFFFFF;}
	.st5{fill:none;stroke:#000000;stroke-width:5.1821;stroke-miterlimit:10;}
	.st6{fill:#FFFFFF;stroke:#FFFFFF;stroke-width:5.1821;stroke-miterlimit:10;}
	.st7{fill:#020206;}
	.st8{fill:#E20613;}
	.st9{fill:#BDFF9A;}
	.st10{fill:#FF56FF;}
	.st11{fill:#941B80;}
	.st12{fill:#00A099;}
	.st13{fill:#DDDB00;}
	.st14{fill:#35A8E0;}
	.st15{fill:#FFFFFF;stroke:#E20613;stroke-width:10;stroke-miterlimit:10;}
	.st16{fill:#575756;}
	.st17{fill:#868686;}
	.st18{fill:#E9E9EB;}
</style>
<g>
	<path d="M14.2-0.3L0,13.8V-0.3H14.2z"/>
	<path d="M28.3-0.3L0,28v14.2L42.5-0.3H28.3z"/>
	<path d="M0,56.4L56.7-0.3v14.2L0,70.5V56.4z"/>
	<path d="M0,84.7L56.7,28v14.2L0,98.9V84.7z"/>
	<path d="M0,113.1l56.7-56.7v14.2l-42.5,42.5H0z"/>
	<path d="M28.3,113.1l28.3-28.3v14.2l-14.2,14.2H28.3z"/>
	<path d="M70.9-0.3L56.7,13.8V-0.3H70.9z"/>
	<path d="M85-0.3L56.7,28v14.2L99.2-0.3H85z"/>
	<path d="M56.7,56.4l56.7-56.7v14.2L56.7,70.5V56.4z"/>
	<path d="M56.7,84.7L113.4,28v14.2L56.7,98.9V84.7z"/>
	<path d="M56.7,113.1l56.7-56.7v14.2l-42.5,42.5H56.7z"/>
	<path d="M85,113.1l28.3-28.3v14.2l-14.2,14.2H85z"/>
</g>
</svg>
