<?xml version="1.0" encoding="utf-8"?>
<!-- Generator: Adobe Illustrator 25.4.0, SVG Export Plug-In . SVG Version: 6.00 Build 0)  -->
<svg version="1.1" id="Ebene_1" xmlns="http://www.w3.org/2000/svg" xmlns:xlink="http://www.w3.org/1999/xlink" x="0px" y="0px"
	 viewBox="0 0 113.4 113.4" style="enable-background:new 0 0 113.4 113.4;" xml:space="preserve">
<style type="text/css">
	.st0{fill:#1E1E1C;}
	.st1{fill:#6702FF;}
	.st2{fill:#AAD9DE;}
	.st3{fill:#1D1D1B;}
	.st4{fill:#FFFFFF;}
	.st5{fill:none;stroke:#000000;stroke-width:5.1821;stroke-miterlimit:10;}
	.st6{fill:#FFFFFF;stroke:#FFFFFF;stroke-width:5.1821;stroke-miterlimit:10;}
	.st7{fill:#020206;}
	.st8{fill:#E20613;}
	.st9{fill:#BDFF9A;}
	.st10{fill:#FF56FF;}
	.st11{fill:#941B80;}
	.st12{fill:#00A099;}
	.st13{fill:#DDDB00;}
	.st14{fill:#35A8E0;}
	.st15{fill:#FFFFFF;stroke:#E20613;stroke-width:10;stroke-miterlimit:10;}
	.st16{fill:#575756;}
	.st17{fill:#868686;}
	.st18{fill:#E9E9EB;}
</style>
<g>
	<g>
		<path d="M28.7,57.4c-0.2,0-0.4-0.1-0.5-0.2l-28-28C0,29-0.1,28.7,0.1,28.4C0.2,28.2,0.4,28,0.7,28h28c0.4,0,0.7,0.3,0.7,0.7v28
			c0,0.3-0.2,0.6-0.5,0.7C28.9,57.4,28.8,57.4,28.7,57.4z M2.5,29.5L28,54.9V29.5H2.5z"/>
		<path d="M56.7,29.5h-28c-0.4,0-0.7-0.3-0.7-0.7v-28c0-0.3,0.2-0.6,0.5-0.7C28.7-0.1,29,0,29.2,0.2l28,28c0.2,0.2,0.3,0.5,0.2,0.8
			C57.3,29.3,57,29.5,56.7,29.5z M29.5,28h25.4L29.5,2.5V28z"/>
		<path d="M28.7,57.4c-0.1,0-0.2,0-0.3-0.1C28.2,57.3,28,57,28,56.7v-28c0-0.4,0.3-0.7,0.7-0.7h28c0.3,0,0.6,0.2,0.7,0.5
			c0.1,0.3,0.1,0.6-0.2,0.8l-28,28C29.1,57.4,28.9,57.4,28.7,57.4z M29.5,29.5v25.4l25.4-25.4H29.5z"/>
		<path d="M28.7,29.5h-28c-0.3,0-0.6-0.2-0.7-0.5c-0.1-0.3-0.1-0.6,0.2-0.8l28-28C28.4,0,28.7-0.1,29,0.1c0.3,0.1,0.5,0.4,0.5,0.7
			v28C29.5,29.1,29.1,29.5,28.7,29.5z M2.5,28H28V2.5L2.5,28z"/>
	</g>
	<path d="M0.7,29.5c-0.1,0-0.2,0-0.3-0.1C0.2,29.3,0,29,0,28.7v-28C0,0.3,0.3,0,0.7,0h28c0.3,0,0.6,0.2,0.7,0.5
		c0.1,0.3,0.1,0.6-0.2,0.8l-28,28C1.1,29.4,0.9,29.5,0.7,29.5z M1.5,1.5v25.4L26.9,1.5H1.5z"/>
	<g>
		<path d="M84.7,57.4c-0.2,0-0.4-0.1-0.5-0.2l-28-28C56,29,55.9,28.7,56,28.4c0.1-0.3,0.4-0.5,0.7-0.5h28c0.4,0,0.7,0.3,0.7,0.7v28
			c0,0.3-0.2,0.6-0.5,0.7C84.9,57.4,84.8,57.4,84.7,57.4z M58.5,29.5l25.4,25.4V29.5H58.5z"/>
		<path d="M112.6,29.5h-28c-0.4,0-0.7-0.3-0.7-0.7v-28c0-0.3,0.2-0.6,0.5-0.7C84.7-0.1,85,0,85.2,0.2l28,28c0.2,0.2,0.3,0.5,0.2,0.8
			C113.2,29.3,112.9,29.5,112.6,29.5z M85.4,28h25.4L85.4,2.5V28z"/>
		<path d="M84.7,57.4c-0.1,0-0.2,0-0.3-0.1c-0.3-0.1-0.5-0.4-0.5-0.7v-28c0-0.4,0.3-0.7,0.7-0.7h28c0.3,0,0.6,0.2,0.7,0.5
			c0.1,0.3,0.1,0.6-0.2,0.8l-28,28C85.1,57.4,84.9,57.4,84.7,57.4z M85.4,29.5v25.4l25.4-25.4H85.4z"/>
		<path d="M84.7,29.5h-28c-0.3,0-0.6-0.2-0.7-0.5c-0.1-0.3-0.1-0.6,0.2-0.8l28-28C84.4,0,84.7-0.1,85,0.1c0.3,0.1,0.5,0.4,0.5,0.7
			v28C85.4,29.1,85.1,29.5,84.7,29.5z M58.5,28h25.4V2.5L58.5,28z"/>
	</g>
	<g>
		<path d="M84.7,113.4c-0.2,0-0.4-0.1-0.5-0.2l-28-28C56,85,55.9,84.7,56,84.4c0.1-0.3,0.4-0.5,0.7-0.5h28c0.4,0,0.7,0.3,0.7,0.7v28
			c0,0.3-0.2,0.6-0.5,0.7C84.9,113.4,84.8,113.4,84.7,113.4z M58.5,85.4l25.4,25.4V85.4H58.5z"/>
		<path d="M112.6,85.4h-28c-0.4,0-0.7-0.3-0.7-0.7v-28c0-0.3,0.2-0.6,0.5-0.7c0.3-0.1,0.6-0.1,0.8,0.2l28,28
			c0.2,0.2,0.3,0.5,0.2,0.8C113.2,85.2,112.9,85.4,112.6,85.4z M85.4,83.9h25.4L85.4,58.5V83.9z"/>
		<path d="M84.7,113.4c-0.1,0-0.2,0-0.3-0.1c-0.3-0.1-0.5-0.4-0.5-0.7v-28c0-0.4,0.3-0.7,0.7-0.7h28c0.3,0,0.6,0.2,0.7,0.5
			c0.1,0.3,0.1,0.6-0.2,0.8l-28,28C85.1,113.3,84.9,113.4,84.7,113.4z M85.4,85.4v25.4l25.4-25.4H85.4z"/>
		<path d="M84.7,85.4h-28c-0.3,0-0.6-0.2-0.7-0.5c-0.1-0.3-0.1-0.6,0.2-0.8l28-28c0.2-0.2,0.5-0.3,0.8-0.2c0.3,0.1,0.5,0.4,0.5,0.7
			v28C85.4,85.1,85.1,85.4,84.7,85.4z M58.5,83.9h25.4V58.5L58.5,83.9z"/>
	</g>
	<g>
		<path d="M28.7,113.4c-0.2,0-0.4-0.1-0.5-0.2l-28-28C0,85-0.1,84.7,0.1,84.4c0.1-0.3,0.4-0.5,0.7-0.5h28c0.4,0,0.7,0.3,0.7,0.7v28
			c0,0.3-0.2,0.6-0.5,0.7C28.9,113.4,28.8,113.4,28.7,113.4z M2.5,85.4L28,110.9V85.4H2.5z"/>
		<path d="M56.7,85.4h-28c-0.4,0-0.7-0.3-0.7-0.7v-28c0-0.3,0.2-0.6,0.5-0.7c0.3-0.1,0.6-0.1,0.8,0.2l28,28c0.2,0.2,0.3,0.5,0.2,0.8
			C57.3,85.2,57,85.4,56.7,85.4z M29.5,83.9h25.4L29.5,58.5V83.9z"/>
		<path d="M28.7,113.4c-0.1,0-0.2,0-0.3-0.1c-0.3-0.1-0.5-0.4-0.5-0.7v-28c0-0.4,0.3-0.7,0.7-0.7h28c0.3,0,0.6,0.2,0.7,0.5
			c0.1,0.3,0.1,0.6-0.2,0.8l-28,28C29.1,113.3,28.9,113.4,28.7,113.4z M29.5,85.4v25.4l25.4-25.4H29.5z"/>
		<path d="M28.7,85.4h-28c-0.3,0-0.6-0.2-0.7-0.5c-0.1-0.3-0.1-0.6,0.2-0.8l28-28c0.2-0.2,0.5-0.3,0.8-0.2c0.3,0.1,0.5,0.4,0.5,0.7
			v28C29.5,85.1,29.1,85.4,28.7,85.4z M2.5,83.9H28V58.5L2.5,83.9z"/>
	</g>
	<g>
		<path d="M56.7,85.4c-0.2,0-0.4-0.1-0.5-0.2l-28-28C28,57,27.9,56.7,28,56.4c0.1-0.3,0.4-0.5,0.7-0.5h28c0.4,0,0.7,0.3,0.7,0.7v28
			c0,0.3-0.2,0.6-0.5,0.7C56.9,85.4,56.8,85.4,56.7,85.4z M30.5,57.4L56,82.9V57.4H30.5z"/>
		<path d="M84.7,57.4h-28c-0.4,0-0.7-0.3-0.7-0.7v-28c0-0.3,0.2-0.6,0.5-0.7c0.3-0.1,0.6-0.1,0.8,0.2l28,28c0.2,0.2,0.3,0.5,0.2,0.8
			C85.2,57.3,85,57.4,84.7,57.4z M57.4,56h25.4L57.4,30.5V56z"/>
		<path d="M56.7,85.4c-0.1,0-0.2,0-0.3-0.1C56.1,85.2,56,85,56,84.7v-28c0-0.4,0.3-0.7,0.7-0.7h28c0.3,0,0.6,0.2,0.7,0.5
			c0.1,0.3,0.1,0.6-0.2,0.8l-28,28C57.1,85.3,56.9,85.4,56.7,85.4z M57.4,57.4v25.4l25.4-25.4H57.4z"/>
		<path d="M56.7,57.4h-28c-0.3,0-0.6-0.2-0.7-0.5c-0.1-0.3-0.1-0.6,0.2-0.8l28-28c0.2-0.2,0.5-0.3,0.8-0.2c0.3,0.1,0.5,0.4,0.5,0.7
			v28C57.4,57.1,57.1,57.4,56.7,57.4z M30.5,56H56V30.5L30.5,56z"/>
	</g>
	<g>
		<path d="M28.7,113.4h-28c-0.4,0-0.7-0.3-0.7-0.7v-28c0-0.3,0.2-0.6,0.5-0.7c0.3-0.1,0.6-0.1,0.8,0.2l28,28
			c0.2,0.2,0.3,0.5,0.2,0.8C29.3,113.2,29,113.4,28.7,113.4z M1.5,111.9h25.4L1.5,86.5V111.9z"/>
	</g>
	<g>
		<path d="M112.6,113.4h-28c-0.3,0-0.6-0.2-0.7-0.5c-0.1-0.3-0.1-0.6,0.2-0.8l28-28c0.2-0.2,0.5-0.3,0.8-0.2
			c0.3,0.1,0.5,0.4,0.5,0.7v28C113.4,113.1,113.1,113.4,112.6,113.4z M86.5,111.9h25.4V86.5L86.5,111.9z"/>
	</g>
	<g>
		<path d="M112.6,29.5c-0.2,0-0.4-0.1-0.5-0.2l-28-28c-0.2-0.2-0.3-0.5-0.2-0.8C84.1,0.2,84.4,0,84.7,0h28c0.4,0,0.7,0.3,0.7,0.7v28
			c0,0.3-0.2,0.6-0.5,0.7C112.8,29.4,112.7,29.5,112.6,29.5z M86.5,1.5l25.4,25.4V1.5H86.5z"/>
	</g>
</g>
</svg>
