<?xml version="1.0" encoding="utf-8"?>
<!-- Generator: Adobe Illustrator 25.4.0, SVG Export Plug-In . SVG Version: 6.00 Build 0)  -->
<svg version="1.1" id="Ebene_1" xmlns="http://www.w3.org/2000/svg" xmlns:xlink="http://www.w3.org/1999/xlink" x="0px" y="0px"
	 viewBox="0 0 113.4 113.4" style="enable-background:new 0 0 113.4 113.4;" xml:space="preserve">
<style type="text/css">
	.st0{fill:#1E1E1C;}
	.st1{fill:#6702FF;}
	.st2{fill:#AAD9DE;}
	.st3{fill:#1D1D1B;}
	.st4{fill:#FFFFFF;}
	.st5{fill:none;stroke:#000000;stroke-width:5.1821;stroke-miterlimit:10;}
	.st6{fill:#FFFFFF;stroke:#FFFFFF;stroke-width:5.1821;stroke-miterlimit:10;}
	.st7{fill:#020206;}
	.st8{fill:#E20613;}
	.st9{fill:#BDFF9A;}
	.st10{fill:#FF56FF;}
	.st11{fill:#941B80;}
	.st12{fill:#00A099;}
	.st13{fill:#DDDB00;}
	.st14{fill:#35A8E0;}
	.st15{fill:#FFFFFF;stroke:#E20613;stroke-width:10;stroke-miterlimit:10;}
	.st16{fill:#575756;}
	.st17{fill:#868686;}
	.st18{fill:#E9E9EB;}
</style>
<g>
	<polygon points="96.9,113.1 111.4,101.7 96.9,90.4 111.4,79 96.9,67.7 111.4,56.4 96.9,45 111.4,33.7 96.9,22.3 111.4,11 97,-0.3 
		89.2,-0.3 103.6,11 89.2,22.3 103.6,33.7 89.2,45 103.6,56.4 89.2,67.7 103.6,79 89.2,90.4 103.6,101.7 89.2,113.1 	"/>
	<polygon points="80.7,113.1 95.2,101.7 80.7,90.4 95.2,79 80.7,67.7 95.2,56.4 80.7,45 95.2,33.7 80.7,22.3 95.2,11 80.8,-0.3 
		73,-0.3 87.4,11 73,22.3 87.4,33.7 73,45 87.4,56.4 73,67.7 87.4,79 73,90.4 87.4,101.7 73,113.1 	"/>
	<polygon points="64.5,113.1 79,101.7 64.5,90.4 79,79 64.5,67.7 79,56.4 64.5,45 79,33.7 64.5,22.3 79,11 64.6,-0.3 56.8,-0.3 
		71.2,11 56.8,22.3 71.2,33.7 56.8,45 71.2,56.4 56.8,67.7 71.2,79 56.8,90.4 71.2,101.7 56.8,113.1 	"/>
	<polygon points="48.3,113.1 62.8,101.7 48.3,90.4 62.8,79 48.3,67.7 62.8,56.4 48.3,45 62.8,33.7 48.3,22.3 62.8,11 48.4,-0.3 
		40.6,-0.3 55,11 40.6,22.3 55,33.7 40.6,45 55,56.4 40.6,67.7 55,79 40.6,90.4 55,101.7 40.6,113.1 	"/>
	<polygon points="32.1,113.1 46.6,101.7 32.1,90.4 46.6,79 32.1,67.7 46.6,56.4 32.1,45 46.6,33.7 32.1,22.3 46.6,11 32.2,-0.3 
		24.4,-0.3 38.8,11 24.4,22.3 38.8,33.7 24.4,45 38.8,56.4 24.4,67.7 38.8,79 24.4,90.4 38.8,101.7 24.4,113.1 	"/>
	<polygon points="16,113.1 30.4,101.7 15.9,90.4 30.4,79 15.9,67.7 30.4,56.4 15.9,45 30.4,33.7 15.9,22.3 30.4,11 16,-0.3 
		8.2,-0.3 22.6,11 8.2,22.3 22.6,33.7 8.2,45 22.6,56.4 8.2,67.7 22.6,79 8.2,90.4 22.6,101.7 8.2,113.1 	"/>
	<g>
		<polygon points="0,74 6.4,79 0,84.1 0,90.2 14.2,79 0,67.9 		"/>
		<polygon points="0,96.7 6.4,101.7 0,106.8 0,112.9 14.2,101.7 0,90.6 		"/>
		<polygon points="0,6 6.4,11 0,16 0,22.1 14.2,11 0,-0.1 		"/>
		<polygon points="0,28.6 6.4,33.7 0,38.7 0,44.8 14.2,33.7 0,22.5 		"/>
		<polygon points="0,51.3 6.4,56.4 0,61.4 0,67.5 14.2,56.4 0,45.2 		"/>
	</g>
	<g>
		<polygon points="113.4,45.2 113.1,45 113.4,44.8 113.4,38.7 105.4,45 113.4,51.3 		"/>
		<polygon points="113.4,-0.1 113.2,-0.3 105.4,-0.3 113.4,6 		"/>
		<polygon points="113.4,22.5 113.1,22.3 113.4,22.1 113.4,16 105.4,22.3 113.4,28.6 		"/>
		<polygon points="113.4,67.9 113.1,67.7 113.4,67.5 113.4,61.4 105.4,67.7 113.4,74 		"/>
		<polygon points="113.4,106.8 105.4,113.1 113.1,113.1 113.4,112.9 		"/>
		<polygon points="113.4,90.6 113.1,90.4 113.4,90.2 113.4,84.1 105.4,90.4 113.4,96.7 		"/>
	</g>
</g>
</svg>
