<?xml version="1.0" encoding="utf-8"?>
<!-- Generator: Adobe Illustrator 25.4.0, SVG Export Plug-In . SVG Version: 6.00 Build 0)  -->
<svg version="1.1" id="Ebene_1" xmlns="http://www.w3.org/2000/svg" xmlns:xlink="http://www.w3.org/1999/xlink" x="0px" y="0px"
	 viewBox="0 0 113.4 113.4" style="enable-background:new 0 0 113.4 113.4;" xml:space="preserve">
<style type="text/css">
	.st0{fill:#1E1E1C;}
	.st1{fill:#6702FF;}
	.st2{fill:#AAD9DE;}
	.st3{fill:#1D1D1B;}
	.st4{fill:#FFFFFF;}
	.st5{fill:none;stroke:#000000;stroke-width:5.1821;stroke-miterlimit:10;}
	.st6{fill:#FFFFFF;stroke:#FFFFFF;stroke-width:5.1821;stroke-miterlimit:10;}
	.st7{fill:#020206;}
	.st8{fill:#E20613;}
	.st9{fill:#BDFF9A;}
	.st10{fill:#FF56FF;}
	.st11{fill:#941B80;}
	.st12{fill:#00A099;}
	.st13{fill:#DDDB00;}
	.st14{fill:#35A8E0;}
	.st15{fill:#FFFFFF;stroke:#E20613;stroke-width:10;stroke-miterlimit:10;}
	.st16{fill:#575756;}
	.st17{fill:#868686;}
	.st18{fill:#E9E9EB;}
</style>
<g>
	<g>
		<path d="M56.7,14.2c-3.5,0-5.3-2.3-6.8-4.2c-1.3-1.7-2.3-2.9-4.5-2.9c-2.2,0-3.2,1.2-4.5,2.9c-1.5,1.9-3.4,4.2-6.8,4.2
			c-3.5,0-5.3-2.3-6.8-4.2c-1.3-1.7-2.3-2.9-4.5-2.9c-2.2,0-3.2,1.2-4.5,2.9c-1.5,1.9-3.4,4.2-6.8,4.2c-3.5,0-5.3-2.3-6.8-4.2
			C3.2,8.3,2.2,7.1,0,7.1V0c3.5,0,5.3,2.3,6.8,4.2c1.3,1.7,2.3,2.9,4.5,2.9s3.2-1.2,4.5-2.9C17.3,2.3,19.2,0,22.7,0
			c3.5,0,5.3,2.3,6.8,4.2c1.3,1.7,2.3,2.9,4.5,2.9c2.2,0,3.2-1.2,4.5-2.9C40,2.3,41.9,0,45.4,0c3.5,0,5.3,2.3,6.8,4.2
			c1.3,1.7,2.3,2.9,4.5,2.9V14.2z"/>
		<path d="M56.7,28.3c-3.5,0-5.3-2.3-6.8-4.2c-1.3-1.7-2.3-2.9-4.5-2.9c-2.2,0-3.2,1.2-4.5,2.9c-1.5,1.9-3.4,4.2-6.8,4.2
			c-3.5,0-5.3-2.3-6.8-4.2c-1.3-1.7-2.3-2.9-4.5-2.9c-2.2,0-3.2,1.2-4.5,2.9c-1.5,1.9-3.4,4.2-6.8,4.2c-3.5,0-5.3-2.3-6.8-4.2
			c-1.3-1.7-2.3-2.9-4.5-2.9v-7.1c3.5,0,5.3,2.3,6.8,4.2c1.3,1.7,2.3,2.9,4.5,2.9s3.2-1.2,4.5-2.9c1.5-1.9,3.4-4.2,6.8-4.2
			c3.5,0,5.3,2.3,6.8,4.2c1.3,1.7,2.3,2.9,4.5,2.9c2.2,0,3.2-1.2,4.5-2.9c1.5-1.9,3.4-4.2,6.8-4.2c3.5,0,5.3,2.3,6.8,4.2
			c1.3,1.7,2.3,2.9,4.5,2.9V28.3z"/>
		<path d="M56.7,42.5c-3.5,0-5.3-2.3-6.8-4.2c-1.3-1.7-2.3-2.9-4.5-2.9c-2.2,0-3.2,1.2-4.5,2.9c-1.5,1.9-3.4,4.2-6.8,4.2
			c-3.5,0-5.3-2.3-6.8-4.2c-1.3-1.7-2.3-2.9-4.5-2.9c-2.2,0-3.2,1.2-4.5,2.9c-1.5,1.9-3.4,4.2-6.8,4.2c-3.5,0-5.3-2.3-6.8-4.2
			c-1.3-1.7-2.3-2.9-4.5-2.9v-7.1c3.5,0,5.3,2.3,6.8,4.2c1.3,1.7,2.3,2.9,4.5,2.9s3.2-1.2,4.5-2.9c1.5-1.9,3.4-4.2,6.8-4.2
			c3.5,0,5.3,2.3,6.8,4.2c1.3,1.7,2.3,2.9,4.5,2.9c2.2,0,3.2-1.2,4.5-2.9c1.5-1.9,3.4-4.2,6.8-4.2c3.5,0,5.3,2.3,6.8,4.2
			c1.3,1.7,2.3,2.9,4.5,2.9V42.5z"/>
		<path d="M56.7,56.7c-3.5,0-5.3-2.3-6.8-4.2c-1.3-1.7-2.3-2.9-4.5-2.9c-2.2,0-3.2,1.2-4.5,2.9c-1.5,1.9-3.4,4.2-6.8,4.2
			c-3.5,0-5.3-2.3-6.8-4.2c-1.3-1.7-2.3-2.9-4.5-2.9c-2.2,0-3.2,1.2-4.5,2.9c-1.5,1.9-3.4,4.2-6.8,4.2c-3.5,0-5.3-2.3-6.8-4.2
			c-1.3-1.7-2.3-2.9-4.5-2.9v-7.1c3.5,0,5.3,2.3,6.8,4.2c1.3,1.7,2.3,2.9,4.5,2.9s3.2-1.2,4.5-2.9c1.5-1.9,3.4-4.2,6.8-4.2
			c3.5,0,5.3,2.3,6.8,4.2c1.3,1.7,2.3,2.9,4.5,2.9c2.2,0,3.2-1.2,4.5-2.9c1.5-1.9,3.4-4.2,6.8-4.2c3.5,0,5.3,2.3,6.8,4.2
			c1.3,1.7,2.3,2.9,4.5,2.9V56.7z"/>
		<path d="M56.7,70.9c-3.5,0-5.3-2.3-6.8-4.2c-1.3-1.7-2.3-2.9-4.5-2.9c-2.2,0-3.2,1.2-4.5,2.9c-1.5,1.9-3.4,4.2-6.8,4.2
			c-3.5,0-5.3-2.3-6.8-4.2c-1.3-1.7-2.3-2.9-4.5-2.9c-2.2,0-3.2,1.2-4.5,2.9c-1.5,1.9-3.4,4.2-6.8,4.2c-3.5,0-5.3-2.3-6.8-4.2
			C3.2,65,2.2,63.8,0,63.8v-7.1c3.5,0,5.3,2.3,6.8,4.2c1.3,1.7,2.3,2.9,4.5,2.9s3.2-1.2,4.5-2.9c1.5-1.9,3.4-4.2,6.8-4.2
			c3.5,0,5.3,2.3,6.8,4.2c1.3,1.7,2.3,2.9,4.5,2.9c2.2,0,3.2-1.2,4.5-2.9c1.5-1.9,3.4-4.2,6.8-4.2c3.5,0,5.3,2.3,6.8,4.2
			c1.3,1.7,2.3,2.9,4.5,2.9V70.9z"/>
		<path d="M56.7,85c-3.5,0-5.3-2.3-6.8-4.2c-1.3-1.7-2.3-2.9-4.5-2.9c-2.2,0-3.2,1.2-4.5,2.9C39.3,82.7,37.5,85,34,85
			c-3.5,0-5.3-2.3-6.8-4.2c-1.3-1.7-2.3-2.9-4.5-2.9c-2.2,0-3.2,1.2-4.5,2.9c-1.5,1.9-3.4,4.2-6.8,4.2c-3.5,0-5.3-2.3-6.8-4.2
			C3.2,79.2,2.2,78,0,78v-7.1c3.5,0,5.3,2.3,6.8,4.2c1.3,1.7,2.3,2.9,4.5,2.9s3.2-1.2,4.5-2.9c1.5-1.9,3.4-4.2,6.8-4.2
			c3.5,0,5.3,2.3,6.8,4.2c1.3,1.7,2.3,2.9,4.5,2.9c2.2,0,3.2-1.2,4.5-2.9c1.5-1.9,3.4-4.2,6.8-4.2c3.5,0,5.3,2.3,6.8,4.2
			c1.3,1.7,2.3,2.9,4.5,2.9V85z"/>
		<path d="M56.7,99.2c-3.5,0-5.3-2.3-6.8-4.2c-1.3-1.7-2.3-2.9-4.5-2.9c-2.2,0-3.2,1.2-4.5,2.9c-1.5,1.9-3.4,4.2-6.8,4.2
			c-3.5,0-5.3-2.3-6.8-4.2c-1.3-1.7-2.3-2.9-4.5-2.9c-2.2,0-3.2,1.2-4.5,2.9c-1.5,1.9-3.4,4.2-6.8,4.2c-3.5,0-5.3-2.3-6.8-4.2
			c-1.3-1.7-2.3-2.9-4.5-2.9V85c3.5,0,5.3,2.3,6.8,4.2c1.3,1.7,2.3,2.9,4.5,2.9s3.2-1.2,4.5-2.9c1.5-1.9,3.4-4.2,6.8-4.2
			c3.5,0,5.3,2.3,6.8,4.2c1.3,1.7,2.3,2.9,4.5,2.9c2.2,0,3.2-1.2,4.5-2.9c1.5-1.9,3.4-4.2,6.8-4.2c3.5,0,5.3,2.3,6.8,4.2
			c1.3,1.7,2.3,2.9,4.5,2.9V99.2z"/>
		<path d="M56.7,113.4c-3.5,0-5.3-2.3-6.8-4.2c-1.3-1.7-2.3-2.9-4.5-2.9c-2.2,0-3.2,1.2-4.5,2.9c-1.5,1.9-3.4,4.2-6.8,4.2
			c-3.5,0-5.3-2.3-6.8-4.2c-1.3-1.7-2.3-2.9-4.5-2.9c-2.2,0-3.2,1.2-4.5,2.9c-1.5,1.9-3.4,4.2-6.8,4.2c-3.5,0-5.3-2.3-6.8-4.2
			c-1.3-1.7-2.3-2.9-4.5-2.9v-7.1c3.5,0,5.3,2.3,6.8,4.2c1.3,1.7,2.3,2.9,4.5,2.9s3.2-1.2,4.5-2.9c1.5-1.9,3.4-4.2,6.8-4.2
			c3.5,0,5.3,2.3,6.8,4.2c1.3,1.7,2.3,2.9,4.5,2.9c2.2,0,3.2-1.2,4.5-2.9c1.5-1.9,3.4-4.2,6.8-4.2c3.5,0,5.3,2.3,6.8,4.2
			c1.3,1.7,2.3,2.9,4.5,2.9V113.4z"/>
	</g>
	<g>
		<path d="M56.7,14.2c3.5,0,5.3-2.3,6.8-4.2c1.3-1.7,2.3-2.9,4.5-2.9c2.2,0,3.2,1.2,4.5,2.9c1.5,1.9,3.4,4.2,6.8,4.2
			c3.5,0,5.3-2.3,6.8-4.2c1.3-1.7,2.3-2.9,4.5-2.9c2.2,0,3.2,1.2,4.5,2.9c1.5,1.9,3.4,4.2,6.8,4.2c3.5,0,5.3-2.3,6.8-4.2
			c1.3-1.7,2.3-2.9,4.5-2.9V0c-3.5,0-5.3,2.3-6.8,4.2c-1.3,1.7-2.3,2.9-4.5,2.9c-2.2,0-3.2-1.2-4.5-2.9C96,2.3,94.2,0,90.7,0
			c-3.5,0-5.3,2.3-6.8,4.2c-1.3,1.7-2.3,2.9-4.5,2.9c-2.2,0-3.2-1.2-4.5-2.9C73.4,2.3,71.5,0,68,0c-3.5,0-5.3,2.3-6.8,4.2
			c-1.3,1.7-2.3,2.9-4.5,2.9V14.2z"/>
		<path d="M56.7,28.3c3.5,0,5.3-2.3,6.8-4.2c1.3-1.7,2.3-2.9,4.5-2.9c2.2,0,3.2,1.2,4.5,2.9c1.5,1.9,3.4,4.2,6.8,4.2
			c3.5,0,5.3-2.3,6.8-4.2c1.3-1.7,2.3-2.9,4.5-2.9c2.2,0,3.2,1.2,4.5,2.9c1.5,1.9,3.4,4.2,6.8,4.2c3.5,0,5.3-2.3,6.8-4.2
			c1.3-1.7,2.3-2.9,4.5-2.9v-7.1c-3.5,0-5.3,2.3-6.8,4.2c-1.3,1.7-2.3,2.9-4.5,2.9c-2.2,0-3.2-1.2-4.5-2.9c-1.5-1.9-3.4-4.2-6.8-4.2
			c-3.5,0-5.3,2.3-6.8,4.2c-1.3,1.7-2.3,2.9-4.5,2.9c-2.2,0-3.2-1.2-4.5-2.9c-1.5-1.9-3.4-4.2-6.8-4.2c-3.5,0-5.3,2.3-6.8,4.2
			c-1.3,1.7-2.3,2.9-4.5,2.9V28.3z"/>
		<path d="M56.7,42.5c3.5,0,5.3-2.3,6.8-4.2c1.3-1.7,2.3-2.9,4.5-2.9c2.2,0,3.2,1.2,4.5,2.9c1.5,1.9,3.4,4.2,6.8,4.2
			c3.5,0,5.3-2.3,6.8-4.2c1.3-1.7,2.3-2.9,4.5-2.9c2.2,0,3.2,1.2,4.5,2.9c1.5,1.9,3.4,4.2,6.8,4.2c3.5,0,5.3-2.3,6.8-4.2
			c1.3-1.7,2.3-2.9,4.5-2.9v-7.1c-3.5,0-5.3,2.3-6.8,4.2c-1.3,1.7-2.3,2.9-4.5,2.9c-2.2,0-3.2-1.2-4.5-2.9c-1.5-1.9-3.4-4.2-6.8-4.2
			c-3.5,0-5.3,2.3-6.8,4.2c-1.3,1.7-2.3,2.9-4.5,2.9c-2.2,0-3.2-1.2-4.5-2.9c-1.5-1.9-3.4-4.2-6.8-4.2c-3.5,0-5.3,2.3-6.8,4.2
			c-1.3,1.7-2.3,2.9-4.5,2.9V42.5z"/>
		<path d="M56.7,56.7c3.5,0,5.3-2.3,6.8-4.2c1.3-1.7,2.3-2.9,4.5-2.9c2.2,0,3.2,1.2,4.5,2.9c1.5,1.9,3.4,4.2,6.8,4.2
			c3.5,0,5.3-2.3,6.8-4.2c1.3-1.7,2.3-2.9,4.5-2.9c2.2,0,3.2,1.2,4.5,2.9c1.5,1.9,3.4,4.2,6.8,4.2c3.5,0,5.3-2.3,6.8-4.2
			c1.3-1.7,2.3-2.9,4.5-2.9v-7.1c-3.5,0-5.3,2.3-6.8,4.2c-1.3,1.7-2.3,2.9-4.5,2.9c-2.2,0-3.2-1.2-4.5-2.9c-1.5-1.9-3.4-4.2-6.8-4.2
			c-3.5,0-5.3,2.3-6.8,4.2c-1.3,1.7-2.3,2.9-4.5,2.9c-2.2,0-3.2-1.2-4.5-2.9c-1.5-1.9-3.4-4.2-6.8-4.2c-3.5,0-5.3,2.3-6.8,4.2
			c-1.3,1.7-2.3,2.9-4.5,2.9V56.7z"/>
		<path d="M56.7,70.9c3.5,0,5.3-2.3,6.8-4.2c1.3-1.7,2.3-2.9,4.5-2.9c2.2,0,3.2,1.2,4.5,2.9c1.5,1.9,3.4,4.2,6.8,4.2
			c3.5,0,5.3-2.3,6.8-4.2c1.3-1.7,2.3-2.9,4.5-2.9c2.2,0,3.2,1.2,4.5,2.9c1.5,1.9,3.4,4.2,6.8,4.2c3.5,0,5.3-2.3,6.8-4.2
			c1.3-1.7,2.3-2.9,4.5-2.9v-7.1c-3.5,0-5.3,2.3-6.8,4.2c-1.3,1.7-2.3,2.9-4.5,2.9c-2.2,0-3.2-1.2-4.5-2.9c-1.5-1.9-3.4-4.2-6.8-4.2
			c-3.5,0-5.3,2.3-6.8,4.2c-1.3,1.7-2.3,2.9-4.5,2.9c-2.2,0-3.2-1.2-4.5-2.9c-1.5-1.9-3.4-4.2-6.8-4.2c-3.5,0-5.3,2.3-6.8,4.2
			c-1.3,1.7-2.3,2.9-4.5,2.9V70.9z"/>
		<path d="M56.7,85c3.5,0,5.3-2.3,6.8-4.2c1.3-1.7,2.3-2.9,4.5-2.9c2.2,0,3.2,1.2,4.5,2.9c1.5,1.9,3.4,4.2,6.8,4.2
			c3.5,0,5.3-2.3,6.8-4.2c1.3-1.7,2.3-2.9,4.5-2.9c2.2,0,3.2,1.2,4.5,2.9c1.5,1.9,3.4,4.2,6.8,4.2c3.5,0,5.3-2.3,6.8-4.2
			c1.3-1.7,2.3-2.9,4.5-2.9v-7.1c-3.5,0-5.3,2.3-6.8,4.2c-1.3,1.7-2.3,2.9-4.5,2.9c-2.2,0-3.2-1.2-4.5-2.9c-1.5-1.9-3.4-4.2-6.8-4.2
			c-3.5,0-5.3,2.3-6.8,4.2c-1.3,1.7-2.3,2.9-4.5,2.9c-2.2,0-3.2-1.2-4.5-2.9c-1.5-1.9-3.4-4.2-6.8-4.2c-3.5,0-5.3,2.3-6.8,4.2
			c-1.3,1.7-2.3,2.9-4.5,2.9V85z"/>
		<path d="M56.7,99.2c3.5,0,5.3-2.3,6.8-4.2c1.3-1.7,2.3-2.9,4.5-2.9c2.2,0,3.2,1.2,4.5,2.9c1.5,1.9,3.4,4.2,6.8,4.2
			c3.5,0,5.3-2.3,6.8-4.2c1.3-1.7,2.3-2.9,4.5-2.9c2.2,0,3.2,1.2,4.5,2.9c1.5,1.9,3.4,4.2,6.8,4.2c3.5,0,5.3-2.3,6.8-4.2
			c1.3-1.7,2.3-2.9,4.5-2.9V85c-3.5,0-5.3,2.3-6.8,4.2c-1.3,1.7-2.3,2.9-4.5,2.9c-2.2,0-3.2-1.2-4.5-2.9C96,87.4,94.2,85,90.7,85
			c-3.5,0-5.3,2.3-6.8,4.2c-1.3,1.7-2.3,2.9-4.5,2.9c-2.2,0-3.2-1.2-4.5-2.9C73.4,87.4,71.5,85,68,85c-3.5,0-5.3,2.3-6.8,4.2
			c-1.3,1.7-2.3,2.9-4.5,2.9V99.2z"/>
		<path d="M56.7,113.4c3.5,0,5.3-2.3,6.8-4.2c1.3-1.7,2.3-2.9,4.5-2.9c2.2,0,3.2,1.2,4.5,2.9c1.5,1.9,3.4,4.2,6.8,4.2
			c3.5,0,5.3-2.3,6.8-4.2c1.3-1.7,2.3-2.9,4.5-2.9c2.2,0,3.2,1.2,4.5,2.9c1.5,1.9,3.4,4.2,6.8,4.2c3.5,0,5.3-2.3,6.8-4.2
			c1.3-1.7,2.3-2.9,4.5-2.9v-7.1c-3.5,0-5.3,2.3-6.8,4.2c-1.3,1.7-2.3,2.9-4.5,2.9c-2.2,0-3.2-1.2-4.5-2.9c-1.5-1.9-3.4-4.2-6.8-4.2
			c-3.5,0-5.3,2.3-6.8,4.2c-1.3,1.7-2.3,2.9-4.5,2.9c-2.2,0-3.2-1.2-4.5-2.9c-1.5-1.9-3.4-4.2-6.8-4.2c-3.5,0-5.3,2.3-6.8,4.2
			c-1.3,1.7-2.3,2.9-4.5,2.9V113.4z"/>
	</g>
</g>
</svg>
