<?xml version="1.0" encoding="utf-8"?>
<!-- Generator: Adobe Illustrator 25.4.0, SVG Export Plug-In . SVG Version: 6.00 Build 0)  -->
<svg version="1.1" id="Ebene_1" xmlns="http://www.w3.org/2000/svg" xmlns:xlink="http://www.w3.org/1999/xlink" x="0px" y="0px"
	 viewBox="0 0 113.4 113.4" style="enable-background:new 0 0 113.4 113.4;" xml:space="preserve">
<style type="text/css">
	.st0{fill:#1E1E1C;}
	.st1{fill:#6702FF;}
	.st2{fill:#AAD9DE;}
	.st3{fill:#1D1D1B;}
	.st4{fill:#FFFFFF;}
	.st5{fill:none;stroke:#000000;stroke-width:5.1821;stroke-miterlimit:10;}
	.st6{fill:#FFFFFF;stroke:#FFFFFF;stroke-width:5.1821;stroke-miterlimit:10;}
	.st7{fill:#020206;}
	.st8{fill:#E20613;}
	.st9{fill:#BDFF9A;}
	.st10{fill:#FF56FF;}
	.st11{fill:#941B80;}
	.st12{fill:#00A099;}
	.st13{fill:#DDDB00;}
	.st14{fill:#35A8E0;}
	.st15{fill:#FFFFFF;stroke:#E20613;stroke-width:10;stroke-miterlimit:10;}
	.st16{fill:#575756;}
	.st17{fill:#868686;}
	.st18{fill:#E9E9EB;}
</style>
<g>
	<g>
		<path d="M99.2,56.7c0-3.5,2.3-5.3,4.2-6.8c1.7-1.3,2.9-2.3,2.9-4.5s-1.2-3.2-2.9-4.5c-1.9-1.5-4.2-3.4-4.2-6.8
			c0-3.5,2.3-5.3,4.2-6.8c1.7-1.3,2.9-2.3,2.9-4.5c0-2.2-1.2-3.2-2.9-4.5c-1.9-1.5-4.2-3.4-4.2-6.8c0-3.5,2.3-5.3,4.2-6.8
			c1.7-1.3,2.9-2.3,2.9-4.5l7.1,0c0,3.5-2.3,5.3-4.2,6.8c-1.7,1.3-2.9,2.3-2.9,4.5s1.2,3.2,2.9,4.5c1.9,1.5,4.2,3.4,4.2,6.8
			c0,3.5-2.3,5.3-4.2,6.8c-1.7,1.3-2.9,2.3-2.9,4.5c0,2.2,1.2,3.2,2.9,4.5c1.9,1.5,4.2,3.4,4.2,6.8c0,3.5-2.3,5.3-4.2,6.8
			c-1.7,1.3-2.9,2.3-2.9,4.5H99.2z"/>
		<path d="M85,56.7c0-3.5,2.3-5.3,4.2-6.8c1.7-1.3,2.9-2.3,2.9-4.5c0-2.2-1.2-3.2-2.9-4.5C87.4,39.3,85,37.5,85,34
			c0-3.5,2.3-5.3,4.2-6.8c1.7-1.3,2.9-2.3,2.9-4.5c0-2.2-1.2-3.2-2.9-4.5c-1.9-1.5-4.2-3.4-4.2-6.8c0-3.5,2.3-5.3,4.2-6.8
			c1.7-1.3,2.9-2.3,2.9-4.5l7.1,0c0,3.5-2.3,5.3-4.2,6.8c-1.7,1.3-2.9,2.3-2.9,4.5s1.2,3.2,2.9,4.5c1.9,1.5,4.2,3.4,4.2,6.8
			c0,3.5-2.3,5.3-4.2,6.8c-1.7,1.3-2.9,2.3-2.9,4.5c0,2.2,1.2,3.2,2.9,4.5c1.9,1.5,4.2,3.4,4.2,6.8c0,3.5-2.3,5.3-4.2,6.8
			c-1.7,1.3-2.9,2.3-2.9,4.5H85z"/>
		<path d="M70.9,56.7c0-3.5,2.3-5.3,4.2-6.8c1.7-1.3,2.9-2.3,2.9-4.5s-1.2-3.2-2.9-4.5c-1.9-1.5-4.2-3.4-4.2-6.8
			c0-3.5,2.3-5.3,4.2-6.8c1.7-1.3,2.9-2.3,2.9-4.5c0-2.2-1.2-3.2-2.9-4.5c-1.9-1.5-4.2-3.4-4.2-6.8c0-3.5,2.3-5.3,4.2-6.8
			C76.7,3.2,78,2.2,78,0L85,0c0,3.5-2.3,5.3-4.2,6.8C79.2,8.2,78,9.1,78,11.3s1.2,3.2,2.9,4.5c1.9,1.5,4.2,3.4,4.2,6.8
			c0,3.5-2.3,5.3-4.2,6.8C79.2,30.8,78,31.8,78,34c0,2.2,1.2,3.2,2.9,4.5c1.9,1.5,4.2,3.4,4.2,6.8s-2.3,5.3-4.2,6.8
			c-1.7,1.3-2.9,2.3-2.9,4.5L70.9,56.7z"/>
		<path d="M56.7,56.7c0-3.5,2.3-5.3,4.2-6.8c1.7-1.3,2.9-2.3,2.9-4.5c0-2.2-1.2-3.2-2.9-4.5c-1.9-1.5-4.2-3.4-4.2-6.8
			c0-3.5,2.3-5.3,4.2-6.8c1.7-1.3,2.9-2.3,2.9-4.5c0-2.2-1.2-3.2-2.9-4.5c-1.9-1.5-4.2-3.4-4.2-6.8c0-3.5,2.3-5.3,4.2-6.8
			c1.7-1.3,2.9-2.3,2.9-4.5l7.1,0c0,3.5-2.3,5.3-4.2,6.8c-1.7,1.3-2.9,2.3-2.9,4.5s1.2,3.2,2.9,4.5c1.9,1.5,4.2,3.4,4.2,6.8
			c0,3.5-2.3,5.3-4.2,6.8c-1.7,1.3-2.9,2.3-2.9,4.5c0,2.2,1.2,3.2,2.9,4.5c1.9,1.5,4.2,3.4,4.2,6.8c0,3.5-2.3,5.3-4.2,6.8
			c-1.7,1.3-2.9,2.3-2.9,4.5H56.7z"/>
		<path d="M42.5,56.7c0-3.5,2.3-5.3,4.2-6.8c1.7-1.3,2.9-2.3,2.9-4.5c0-2.2-1.2-3.2-2.9-4.5c-1.9-1.5-4.2-3.4-4.2-6.8
			c0-3.5,2.3-5.3,4.2-6.8c1.7-1.3,2.9-2.3,2.9-4.5c0-2.2-1.2-3.2-2.9-4.5c-1.9-1.5-4.2-3.4-4.2-6.8c0-3.5,2.3-5.3,4.2-6.8
			c1.7-1.3,2.9-2.3,2.9-4.5l7.1,0c0,3.5-2.3,5.3-4.2,6.8c-1.7,1.3-2.9,2.3-2.9,4.5s1.2,3.2,2.9,4.5c1.9,1.5,4.2,3.4,4.2,6.8
			c0,3.5-2.3,5.3-4.2,6.8c-1.7,1.3-2.9,2.3-2.9,4.5c0,2.2,1.2,3.2,2.9,4.5c1.9,1.5,4.2,3.4,4.2,6.8s-2.3,5.3-4.2,6.8
			c-1.7,1.3-2.9,2.3-2.9,4.5L42.5,56.7z"/>
		<path d="M28.3,56.7c0-3.5,2.3-5.3,4.2-6.8c1.7-1.3,2.9-2.3,2.9-4.5s-1.2-3.2-2.9-4.5c-1.9-1.5-4.2-3.4-4.2-6.8
			c0-3.5,2.3-5.3,4.2-6.8c1.7-1.3,2.9-2.3,2.9-4.5c0-2.2-1.2-3.2-2.9-4.5c-1.9-1.5-4.2-3.4-4.2-6.8c0-3.5,2.3-5.3,4.2-6.8
			c1.7-1.3,2.9-2.3,2.9-4.5l7.1,0c0,3.5-2.3,5.3-4.2,6.8c-1.7,1.3-2.9,2.3-2.9,4.5s1.2,3.2,2.9,4.5c1.9,1.5,4.2,3.4,4.2,6.8
			c0,3.5-2.3,5.3-4.2,6.8c-1.7,1.3-2.9,2.3-2.9,4.5c0,2.2,1.2,3.2,2.9,4.5c1.9,1.5,4.2,3.4,4.2,6.8s-2.3,5.3-4.2,6.8
			c-1.7,1.3-2.9,2.3-2.9,4.5H28.3z"/>
		<path d="M14.2,56.7c0-3.5,2.3-5.3,4.2-6.8c1.7-1.3,2.9-2.3,2.9-4.5c0-2.2-1.2-3.2-2.9-4.5c-1.9-1.5-4.2-3.4-4.2-6.8
			c0-3.5,2.3-5.3,4.2-6.8c1.7-1.3,2.9-2.3,2.9-4.5c0-2.2-1.2-3.2-2.9-4.5c-1.9-1.5-4.2-3.4-4.2-6.8c0-3.5,2.3-5.3,4.2-6.8
			C20,3.2,21.3,2.2,21.3,0l7.1,0c0,3.5-2.3,5.3-4.2,6.8c-1.7,1.3-2.9,2.3-2.9,4.5s1.2,3.2,2.9,4.5c1.9,1.5,4.2,3.4,4.2,6.8
			c0,3.5-2.3,5.3-4.2,6.8c-1.7,1.3-2.9,2.3-2.9,4.5c0,2.2,1.2,3.2,2.9,4.5c1.9,1.5,4.2,3.4,4.2,6.8c0,3.5-2.3,5.3-4.2,6.8
			c-1.7,1.3-2.9,2.3-2.9,4.5H14.2z"/>
		<path d="M0,56.7c0-3.5,2.3-5.3,4.2-6.8c1.7-1.3,2.9-2.3,2.9-4.5c0-2.2-1.2-3.2-2.9-4.5C2.3,39.3,0,37.5,0,34
			c0-3.5,2.3-5.3,4.2-6.8c1.7-1.3,2.9-2.3,2.9-4.5c0-2.2-1.2-3.2-2.9-4.5C2.3,16.7,0,14.8,0,11.3C0,7.9,2.3,6,4.2,4.5
			C5.9,3.2,7.1,2.2,7.1,0l7.1,0c0,3.5-2.3,5.3-4.2,6.8c-1.7,1.3-2.9,2.3-2.9,4.5s1.2,3.2,2.9,4.5c1.9,1.5,4.2,3.4,4.2,6.8
			c0,3.5-2.3,5.3-4.2,6.8c-1.7,1.3-2.9,2.3-2.9,4.5c0,2.2,1.2,3.2,2.9,4.5c1.9,1.5,4.2,3.4,4.2,6.8c0,3.5-2.3,5.3-4.2,6.8
			c-1.7,1.3-2.9,2.3-2.9,4.5L0,56.7z"/>
	</g>
	<g>
		<path d="M99.2,56.7c0,3.5,2.3,5.3,4.2,6.8c1.7,1.3,2.9,2.3,2.9,4.5c0,2.2-1.2,3.2-2.9,4.5c-1.9,1.5-4.2,3.4-4.2,6.8
			c0,3.5,2.3,5.3,4.2,6.8c1.7,1.3,2.9,2.3,2.9,4.5c0,2.2-1.2,3.2-2.9,4.5c-1.9,1.5-4.2,3.4-4.2,6.8c0,3.5,2.3,5.3,4.2,6.8
			c1.7,1.3,2.9,2.3,2.9,4.5h7.1c0-3.5-2.3-5.3-4.2-6.8c-1.7-1.3-2.9-2.3-2.9-4.5c0-2.2,1.2-3.2,2.9-4.5c1.9-1.5,4.2-3.4,4.2-6.8
			c0-3.5-2.3-5.3-4.2-6.8c-1.7-1.3-2.9-2.3-2.9-4.5c0-2.2,1.2-3.2,2.9-4.5c1.9-1.5,4.2-3.4,4.2-6.8c0-3.5-2.3-5.3-4.2-6.8
			c-1.7-1.3-2.9-2.3-2.9-4.5H99.2z"/>
		<path d="M85,56.7c0,3.5,2.3,5.3,4.2,6.8c1.7,1.3,2.9,2.3,2.9,4.5c0,2.2-1.2,3.2-2.9,4.5C87.4,74,85,75.9,85,79.4
			c0,3.5,2.3,5.3,4.2,6.8c1.7,1.3,2.9,2.3,2.9,4.5c0,2.2-1.2,3.2-2.9,4.5c-1.9,1.5-4.2,3.4-4.2,6.8c0,3.5,2.3,5.3,4.2,6.8
			c1.7,1.3,2.9,2.3,2.9,4.5h7.1c0-3.5-2.3-5.3-4.2-6.8c-1.7-1.3-2.9-2.3-2.9-4.5c0-2.2,1.2-3.2,2.9-4.5c1.9-1.5,4.2-3.4,4.2-6.8
			c0-3.5-2.3-5.3-4.2-6.8c-1.7-1.3-2.9-2.3-2.9-4.5c0-2.2,1.2-3.2,2.9-4.5c1.9-1.5,4.2-3.4,4.2-6.8c0-3.5-2.3-5.3-4.2-6.8
			c-1.7-1.3-2.9-2.3-2.9-4.5H85z"/>
		<path d="M70.9,56.7c0,3.5,2.3,5.3,4.2,6.8c1.7,1.3,2.9,2.3,2.9,4.5s-1.2,3.2-2.9,4.5c-1.9,1.5-4.2,3.4-4.2,6.8
			c0,3.5,2.3,5.3,4.2,6.8c1.7,1.3,2.9,2.3,2.9,4.5c0,2.2-1.2,3.2-2.9,4.5c-1.9,1.5-4.2,3.4-4.2,6.8c0,3.5,2.3,5.3,4.2,6.8
			c1.7,1.3,2.9,2.3,2.9,4.5H85c0-3.5-2.3-5.3-4.2-6.8c-1.7-1.3-2.9-2.3-2.9-4.5s1.2-3.2,2.9-4.5c1.9-1.5,4.2-3.4,4.2-6.8
			c0-3.5-2.3-5.3-4.2-6.8c-1.7-1.3-2.9-2.3-2.9-4.5c0-2.2,1.2-3.2,2.9-4.5c1.9-1.5,4.2-3.4,4.2-6.8s-2.3-5.3-4.2-6.8
			c-1.7-1.3-2.9-2.3-2.9-4.5L70.9,56.7z"/>
		<path d="M56.7,56.7c0,3.5,2.3,5.3,4.2,6.8c1.7,1.3,2.9,2.3,2.9,4.5c0,2.2-1.2,3.2-2.9,4.5c-1.9,1.5-4.2,3.4-4.2,6.8
			c0,3.5,2.3,5.3,4.2,6.8c1.7,1.3,2.9,2.3,2.9,4.5c0,2.2-1.2,3.2-2.9,4.5c-1.9,1.5-4.2,3.4-4.2,6.8c0,3.5,2.3,5.3,4.2,6.8
			c1.7,1.3,2.9,2.3,2.9,4.5h7.1c0-3.5-2.3-5.3-4.2-6.8c-1.7-1.3-2.9-2.3-2.9-4.5c0-2.2,1.2-3.2,2.9-4.5c1.9-1.5,4.2-3.4,4.2-6.8
			c0-3.5-2.3-5.3-4.2-6.8c-1.7-1.3-2.9-2.3-2.9-4.5c0-2.2,1.2-3.2,2.9-4.5c1.9-1.5,4.2-3.4,4.2-6.8c0-3.5-2.3-5.3-4.2-6.8
			c-1.7-1.3-2.9-2.3-2.9-4.5H56.7z"/>
		<path d="M42.5,56.7c0,3.5,2.3,5.3,4.2,6.8c1.7,1.3,2.9,2.3,2.9,4.5c0,2.2-1.2,3.2-2.9,4.5c-1.9,1.5-4.2,3.4-4.2,6.8
			c0,3.5,2.3,5.3,4.2,6.8c1.7,1.3,2.9,2.3,2.9,4.5c0,2.2-1.2,3.2-2.9,4.5c-1.9,1.5-4.2,3.4-4.2,6.8c0,3.5,2.3,5.3,4.2,6.8
			c1.7,1.3,2.9,2.3,2.9,4.5h7.1c0-3.5-2.3-5.3-4.2-6.8c-1.7-1.3-2.9-2.3-2.9-4.5c0-2.2,1.2-3.2,2.9-4.5c1.9-1.5,4.2-3.4,4.2-6.8
			c0-3.5-2.3-5.3-4.2-6.8c-1.7-1.3-2.9-2.3-2.9-4.5c0-2.2,1.2-3.2,2.9-4.5c1.9-1.5,4.2-3.4,4.2-6.8c0-3.5-2.3-5.3-4.2-6.8
			c-1.7-1.3-2.9-2.3-2.9-4.5L42.5,56.7z"/>
		<path d="M28.3,56.7c0,3.5,2.3,5.3,4.2,6.8c1.7,1.3,2.9,2.3,2.9,4.5s-1.2,3.2-2.9,4.5c-1.9,1.5-4.2,3.4-4.2,6.8
			c0,3.5,2.3,5.3,4.2,6.8c1.7,1.3,2.9,2.3,2.9,4.5c0,2.2-1.2,3.2-2.9,4.5c-1.9,1.5-4.2,3.4-4.2,6.8c0,3.5,2.3,5.3,4.2,6.8
			c1.7,1.3,2.9,2.3,2.9,4.5h7.1c0-3.5-2.3-5.3-4.2-6.8c-1.7-1.3-2.9-2.3-2.9-4.5c0-2.2,1.2-3.2,2.9-4.5c1.9-1.5,4.2-3.4,4.2-6.8
			c0-3.5-2.3-5.3-4.2-6.8c-1.7-1.3-2.9-2.3-2.9-4.5c0-2.2,1.2-3.2,2.9-4.5c1.9-1.5,4.2-3.4,4.2-6.8c0-3.5-2.3-5.3-4.2-6.8
			c-1.7-1.3-2.9-2.3-2.9-4.5H28.3z"/>
		<path d="M14.2,56.7c0,3.5,2.3,5.3,4.2,6.8c1.7,1.3,2.9,2.3,2.9,4.5c0,2.2-1.2,3.2-2.9,4.5c-1.9,1.5-4.2,3.4-4.2,6.8
			c0,3.5,2.3,5.3,4.2,6.8c1.7,1.3,2.9,2.3,2.9,4.5c0,2.2-1.2,3.2-2.9,4.5c-1.9,1.5-4.2,3.4-4.2,6.8c0,3.5,2.3,5.3,4.2,6.8
			c1.7,1.3,2.9,2.3,2.9,4.5h7.1c0-3.5-2.3-5.3-4.2-6.8c-1.7-1.3-2.9-2.3-2.9-4.5c0-2.2,1.2-3.2,2.9-4.5c1.9-1.5,4.2-3.4,4.2-6.8
			c0-3.5-2.3-5.3-4.2-6.8c-1.7-1.3-2.9-2.3-2.9-4.5c0-2.2,1.2-3.2,2.9-4.5c1.9-1.5,4.2-3.4,4.2-6.8c0-3.5-2.3-5.3-4.2-6.8
			c-1.7-1.3-2.9-2.3-2.9-4.5H14.2z"/>
		<path d="M0,56.7c0,3.5,2.3,5.3,4.2,6.8c1.7,1.3,2.9,2.3,2.9,4.5c0,2.2-1.2,3.2-2.9,4.5C2.3,74,0,75.9,0,79.4
			c0,3.5,2.3,5.3,4.2,6.8c1.7,1.3,2.9,2.3,2.9,4.5c0,2.2-1.2,3.2-2.9,4.5C2.3,96.7,0,98.6,0,102c0,3.5,2.3,5.3,4.2,6.8
			c1.7,1.3,2.9,2.3,2.9,4.5l7.1,0c0-3.5-2.3-5.3-4.2-6.8c-1.7-1.3-2.9-2.3-2.9-4.5c0-2.2,1.2-3.2,2.9-4.5c1.9-1.5,4.2-3.4,4.2-6.8
			c0-3.5-2.3-5.3-4.2-6.8c-1.7-1.3-2.9-2.3-2.9-4.5c0-2.2,1.2-3.2,2.9-4.5c1.9-1.5,4.2-3.4,4.2-6.8c0-3.5-2.3-5.3-4.2-6.8
			c-1.7-1.3-2.9-2.3-2.9-4.5L0,56.7z"/>
	</g>
</g>
</svg>
