<?xml version="1.0" encoding="utf-8"?>
<!-- Generator: Adobe Illustrator 25.4.0, SVG Export Plug-In . SVG Version: 6.00 Build 0)  -->
<svg version="1.1" id="Ebene_1" xmlns="http://www.w3.org/2000/svg" xmlns:xlink="http://www.w3.org/1999/xlink" x="0px" y="0px"
	 viewBox="0 0 113.4 113.4" style="enable-background:new 0 0 113.4 113.4;" xml:space="preserve">
<style type="text/css">
	.st0{fill:#1E1E1C;}
	.st1{fill:#6702FF;}
	.st2{fill:#AAD9DE;}
	.st3{fill:#1D1D1B;}
	.st4{fill:#FFFFFF;}
	.st5{fill:none;stroke:#000000;stroke-width:5.1821;stroke-miterlimit:10;}
	.st6{fill:#FFFFFF;stroke:#FFFFFF;stroke-width:5.1821;stroke-miterlimit:10;}
	.st7{fill:#020206;}
	.st8{fill:#E20613;}
	.st9{fill:#BDFF9A;}
	.st10{fill:#FF56FF;}
	.st11{fill:#941B80;}
	.st12{fill:#00A099;}
	.st13{fill:#DDDB00;}
	.st14{fill:#35A8E0;}
	.st15{fill:#FFFFFF;stroke:#E20613;stroke-width:10;stroke-miterlimit:10;}
	.st16{fill:#575756;}
	.st17{fill:#868686;}
	.st18{fill:#E9E9EB;}
</style>
<path d="M45.9,21.5C42.3,13.3,38.4,5.9,33.3,0l46.9,0c7.5,8.6,17.5,14.2,33.3,14.2l0,14.2c-22.5,0-36.2-9-45.9-21.4
	c9,19.9,19.4,35.5,45.9,35.5l0,14.2c-22.5,0-36.3-9-45.9-21.4c9,19.9,19.4,35.6,45.9,35.6V85c-22.5,0-36.3-9-45.9-21.5
	c9,19.9,19.4,35.6,45.9,35.6l0,14.2h-1C90.5,113.1,77,104.2,67.5,92c3.7,8.1,7.6,15.5,12.6,21.4l-46.9,0
	C25.8,104.7,15.8,99.2,0,99.2L0,85c22.5,0,36.3,9,45.9,21.4C36.9,86.5,26.6,70.9,0,70.9l0-14.2c22.5,0,36.3,9,45.9,21.4
	C36.9,58.2,26.6,42.5,0,42.5l0-14.2c22.5,0,36.2,9,45.9,21.4C36.9,29.8,26.5,14.2,0,14.2L0,0C22.5,0,36.3,9,45.9,21.5z"/>
</svg>
