<?xml version="1.0" encoding="utf-8"?>
<!-- Generator: Adobe Illustrator 25.3.1, SVG Export Plug-In . SVG Version: 6.00 Build 0)  -->
<svg version="1.1" id="Ebene_1" xmlns="http://www.w3.org/2000/svg" xmlns:xlink="http://www.w3.org/1999/xlink" x="0px" y="0px"
	 viewBox="0 0 113.4 113.4" style="enable-background:new 0 0 113.4 113.4;" xml:space="preserve">
<style type="text/css">
	.st0{fill:#020206;}
</style>
<path d="M67.4,21.5C71.1,13.3,75,5.9,80.1,0H33.3C25.8,8.6,15.8,14.2,0,14.2v14.2c22.5,0,36.2-9,45.9-21.4
	C36.9,26.9,26.5,42.5,0,42.5v14.2c22.5,0,36.3-9,45.9-21.4C36.9,55.2,26.6,70.8,0,70.8V85c22.5,0,36.3-9,45.9-21.5
	C36.9,83.5,26.6,99.2,0,99.2v14.2h1c21.9-0.3,35.4-9.2,44.9-21.4c-3.7,8.1-7.6,15.5-12.6,21.4h46.9c7.5-8.6,17.5-14.2,33.3-14.2V85
	c-22.5,0-36.3,9-45.9,21.4c9-19.9,19.4-35.6,45.9-35.6V56.7c-22.5,0-36.3,9-45.9,21.4c9-19.9,19.4-35.6,45.9-35.6V28.3
	c-22.5,0-36.2,9-45.9,21.4c9-19.9,19.4-35.5,45.9-35.5V0C90.8,0,77.1,9,67.4,21.5z"/>
</svg>
