<?xml version="1.0" encoding="utf-8"?>
<!-- Generator: Adobe Illustrator 25.3.1, SVG Export Plug-In . SVG Version: 6.00 Build 0)  -->
<svg version="1.1" id="Ebene_1" xmlns="http://www.w3.org/2000/svg" xmlns:xlink="http://www.w3.org/1999/xlink" x="0px" y="0px"
	 viewBox="0 0 113.4 113.4" style="enable-background:new 0 0 113.4 113.4;" xml:space="preserve">
<style type="text/css">
	.st0{fill:#020206;}
</style>
<g>
	<rect x="0" y="0" width="28.3" height="7.1"/>
	<rect x="0" y="14.2" width="28.3" height="7.1"/>
	<rect x="0" y="28.3" width="28.3" height="7.1"/>
	<rect x="0" y="42.5" width="28.3" height="7.1"/>
	<rect x="0" y="56.7" width="28.3" height="7.1"/>
	<rect x="0" y="70.9" width="28.3" height="7.1"/>
	<rect x="0" y="85" width="28.3" height="7.1"/>
	<rect x="0" y="99.2" width="28.3" height="7.1"/>
	<rect x="28.3" y="7.1" width="28.3" height="7.1"/>
	<rect x="28.3" y="21.3" width="28.3" height="7.1"/>
	<rect x="28.3" y="35.4" width="28.3" height="7.1"/>
	<rect x="28.3" y="49.6" width="28.3" height="7.1"/>
	<rect x="28.3" y="63.8" width="28.3" height="7.1"/>
	<rect x="28.3" y="78" width="28.3" height="7.1"/>
	<rect x="28.3" y="92.1" width="28.3" height="7.1"/>
	<rect x="28.3" y="106.3" width="28.3" height="7.1"/>
	<rect x="56.7" y="0" width="28.3" height="7.1"/>
	<rect x="56.7" y="14.2" width="28.3" height="7.1"/>
	<rect x="56.7" y="28.3" width="28.3" height="7.1"/>
	<rect x="56.7" y="42.5" width="28.3" height="7.1"/>
	<rect x="56.7" y="56.7" width="28.3" height="7.1"/>
	<rect x="56.7" y="70.9" width="28.3" height="7.1"/>
	<rect x="56.7" y="85" width="28.3" height="7.1"/>
	<rect x="56.7" y="99.2" width="28.3" height="7.1"/>
	<rect x="85" y="7.1" width="28.3" height="7.1"/>
	<rect x="85" y="21.3" width="28.3" height="7.1"/>
	<rect x="85" y="35.4" width="28.3" height="7.1"/>
	<rect x="85" y="49.6" width="28.3" height="7.1"/>
	<rect x="85" y="63.8" width="28.3" height="7.1"/>
	<rect x="85" y="78" width="28.3" height="7.1"/>
	<rect x="85" y="92.1" width="28.3" height="7.1"/>
	<rect x="85" y="106.3" width="28.3" height="7.1"/>
</g>
</svg>
