<?xml version="1.0" encoding="utf-8"?>
<!-- Generator: Adobe Illustrator 25.3.1, SVG Export Plug-In . SVG Version: 6.00 Build 0)  -->
<svg version="1.1" id="Ebene_1" xmlns="http://www.w3.org/2000/svg" xmlns:xlink="http://www.w3.org/1999/xlink" x="0px" y="0px"
	 viewBox="0 0 113.4 113.4" style="enable-background:new 0 0 113.4 113.4;" xml:space="preserve">
<style type="text/css">
	.st0{fill:#020206;}
</style>
<g>
	<g>
		<polygon points="10.1,0 16.9,0 28.3,11.5 28.3,18.2 		"/>
		<polygon points="0,0 3.4,0 28.3,25 28.3,28.3 25,28.3 0,3.4 		"/>
		<polygon points="28.3,4.7 23.6,0 28.3,0 		"/>
		<polygon points="0,16.9 0,10.1 18.2,28.3 11.5,28.3 		"/>
		<polygon points="0,23.6 4.7,28.3 0,28.3 		"/>
	</g>
	<g>
		<polygon points="46.6,0 39.8,0 28.3,11.5 28.3,18.2 		"/>
		<polygon points="56.7,0 53.3,0 28.3,25 28.3,28.3 31.7,28.3 56.7,3.4 		"/>
		<polygon points="28.3,4.7 33.1,0 28.3,0 		"/>
		<polygon points="56.7,16.9 56.7,10.1 38.5,28.3 45.2,28.3 		"/>
		<polygon points="56.7,23.6 52,28.3 56.7,28.3 		"/>
	</g>
	<g>
		<polygon points="66.8,0 73.6,0 85,11.5 85,18.2 		"/>
		<polygon points="56.7,0 60.1,0 85,25 85,28.3 81.7,28.3 56.7,3.4 		"/>
		<polygon points="85,4.7 80.3,0 85,0 		"/>
		<polygon points="56.7,16.9 56.7,10.1 74.9,28.3 68.2,28.3 		"/>
		<polygon points="56.7,23.6 61.4,28.3 56.7,28.3 		"/>
	</g>
	<g>
		<polygon points="103.3,0 96.5,0 85,11.5 85,18.2 		"/>
		<polygon points="113.4,0 110,0 85,25 85,28.3 88.4,28.3 113.4,3.4 		"/>
		<polygon points="85,4.7 89.8,0 85,0 		"/>
		<polygon points="113.4,16.9 113.4,10.1 95.2,28.3 101.9,28.3 		"/>
		<polygon points="113.4,23.6 108.7,28.3 113.4,28.3 		"/>
	</g>
	<g>
		<polygon points="10.1,56.7 16.9,56.7 28.3,45.2 28.3,38.5 		"/>
		<polygon points="0,56.7 3.4,56.7 28.3,31.7 28.3,28.3 25,28.3 0,53.3 		"/>
		<polygon points="28.3,52 23.6,56.7 28.3,56.7 		"/>
		<polygon points="0,39.8 0,46.6 18.2,28.3 11.5,28.3 		"/>
		<polygon points="0,33.1 4.7,28.3 0,28.3 		"/>
	</g>
	<g>
		<polygon points="46.6,56.7 39.8,56.7 28.3,45.2 28.3,38.5 		"/>
		<polygon points="56.7,56.7 53.3,56.7 28.3,31.7 28.3,28.3 31.7,28.3 56.7,53.3 		"/>
		<polygon points="28.3,52 33.1,56.7 28.3,56.7 		"/>
		<polygon points="56.7,39.8 56.7,46.6 38.5,28.3 45.2,28.3 		"/>
		<polygon points="56.7,33.1 52,28.3 56.7,28.3 		"/>
	</g>
	<g>
		<polygon points="66.8,56.7 73.6,56.7 85,45.2 85,38.5 		"/>
		<polygon points="56.7,56.7 60.1,56.7 85,31.7 85,28.3 81.7,28.3 56.7,53.3 		"/>
		<polygon points="85,52 80.3,56.7 85,56.7 		"/>
		<polygon points="56.7,39.8 56.7,46.6 74.9,28.3 68.2,28.3 		"/>
		<polygon points="56.7,33.1 61.4,28.3 56.7,28.3 		"/>
	</g>
	<g>
		<polygon points="103.3,56.7 96.5,56.7 85,45.2 85,38.5 		"/>
		<polygon points="113.4,56.7 110,56.7 85,31.7 85,28.3 88.4,28.3 113.4,53.3 		"/>
		<polygon points="85,52 89.8,56.7 85,56.7 		"/>
		<polygon points="113.4,39.8 113.4,46.6 95.2,28.3 101.9,28.3 		"/>
		<polygon points="113.4,33.1 108.7,28.3 113.4,28.3 		"/>
	</g>
	<g>
		<polygon points="10.1,56.7 16.9,56.7 28.3,68.2 28.3,74.9 		"/>
		<polygon points="0,56.7 3.4,56.7 28.3,81.7 28.3,85 25,85 0,60.1 		"/>
		<polygon points="28.3,61.4 23.6,56.7 28.3,56.7 		"/>
		<polygon points="0,73.6 0,66.8 18.2,85 11.5,85 		"/>
		<polygon points="0,80.3 4.7,85 0,85 		"/>
	</g>
	<g>
		<polygon points="46.6,56.7 39.8,56.7 28.3,68.2 28.3,74.9 		"/>
		<polygon points="56.7,56.7 53.3,56.7 28.3,81.7 28.3,85 31.7,85 56.7,60.1 		"/>
		<polygon points="28.3,61.4 33.1,56.7 28.3,56.7 		"/>
		<polygon points="56.7,73.6 56.7,66.8 38.5,85 45.2,85 		"/>
		<polygon points="56.7,80.3 52,85 56.7,85 		"/>
	</g>
	<g>
		<polygon points="66.8,56.7 73.6,56.7 85,68.2 85,74.9 		"/>
		<polygon points="56.7,56.7 60.1,56.7 85,81.7 85,85 81.7,85 56.7,60.1 		"/>
		<polygon points="85,61.4 80.3,56.7 85,56.7 		"/>
		<polygon points="56.7,73.6 56.7,66.8 74.9,85 68.2,85 		"/>
		<polygon points="56.7,80.3 61.4,85 56.7,85 		"/>
	</g>
	<g>
		<polygon points="103.3,56.7 96.5,56.7 85,68.2 85,74.9 		"/>
		<polygon points="113.4,56.7 110,56.7 85,81.7 85,85 88.4,85 113.4,60.1 		"/>
		<polygon points="85,61.4 89.8,56.7 85,56.7 		"/>
		<polygon points="113.4,73.6 113.4,66.8 95.2,85 101.9,85 		"/>
		<polygon points="113.4,80.3 108.7,85 113.4,85 		"/>
	</g>
	<g>
		<polygon points="10.1,113.4 16.9,113.4 28.3,101.9 28.3,95.2 		"/>
		<polygon points="0,113.4 3.4,113.4 28.3,88.4 28.3,85 25,85 0,110 		"/>
		<polygon points="28.3,108.7 23.6,113.4 28.3,113.4 		"/>
		<polygon points="0,96.5 0,103.3 18.2,85 11.5,85 		"/>
		<polygon points="0,89.8 4.7,85 0,85 		"/>
	</g>
	<g>
		<polygon points="46.6,113.4 39.8,113.4 28.3,101.9 28.3,95.2 		"/>
		<polygon points="56.7,113.4 53.3,113.4 28.3,88.4 28.3,85 31.7,85 56.7,110 		"/>
		<polygon points="28.3,108.7 33.1,113.4 28.3,113.4 		"/>
		<polygon points="56.7,96.5 56.7,103.3 38.5,85 45.2,85 		"/>
		<polygon points="56.7,89.8 52,85 56.7,85 		"/>
	</g>
	<g>
		<polygon points="66.8,113.4 73.6,113.4 85,101.9 85,95.2 		"/>
		<polygon points="56.7,113.4 60.1,113.4 85,88.4 85,85 81.7,85 56.7,110 		"/>
		<polygon points="85,108.7 80.3,113.4 85,113.4 		"/>
		<polygon points="56.7,96.5 56.7,103.3 74.9,85 68.2,85 		"/>
		<polygon points="56.7,89.8 61.4,85 56.7,85 		"/>
	</g>
	<g>
		<polygon points="103.3,113.4 96.5,113.4 85,101.9 85,95.2 		"/>
		<polygon points="113.4,113.4 110,113.4 85,88.4 85,85 88.4,85 113.4,110 		"/>
		<polygon points="85,108.7 89.8,113.4 85,113.4 		"/>
		<polygon points="113.4,96.5 113.4,103.3 95.2,85 101.9,85 		"/>
		<polygon points="113.4,89.8 108.7,85 113.4,85 		"/>
	</g>
</g>
</svg>
