<?xml version="1.0" encoding="utf-8"?>
<!-- Generator: Adobe Illustrator 25.3.1, SVG Export Plug-In . SVG Version: 6.00 Build 0)  -->
<svg version="1.1" id="Ebene_1" xmlns="http://www.w3.org/2000/svg" xmlns:xlink="http://www.w3.org/1999/xlink" x="0px" y="0px"
	 viewBox="0 0 113.4 113.4" style="enable-background:new 0 0 113.4 113.4;" xml:space="preserve">
<style type="text/css">
	.st0{fill:#020206;}
</style>
<g>
	<polygon points="0,0 28.3,28.3 14.2,28.3 0,14.2 	"/>
	<rect x="14.2" y="0" width="14.2" height="14.2"/>
	<polygon points="28.3,0 56.7,28.3 42.5,28.3 28.3,14.2 	"/>
	<rect x="42.5" y="0" width="14.2" height="14.2"/>
	<polygon points="56.7,0 85,28.3 70.9,28.3 56.7,14.2 	"/>
	<rect x="70.9" y="0" width="14.2" height="14.2"/>
	<polygon points="85,0 113.4,28.3 99.2,28.3 85,14.2 	"/>
	<rect x="99.2" y="0" width="14.2" height="14.2"/>
	<polygon points="0,28.3 28.3,56.7 14.2,56.7 0,42.5 	"/>
	<rect x="14.2" y="28.3" width="14.2" height="14.2"/>
	<polygon points="28.3,28.3 56.7,56.7 42.5,56.7 28.3,42.5 	"/>
	<rect x="42.5" y="28.3" width="14.2" height="14.2"/>
	<polygon points="56.7,28.3 85,56.7 70.9,56.7 56.7,42.5 	"/>
	<rect x="70.9" y="28.3" width="14.2" height="14.2"/>
	<polygon points="85,28.3 113.4,56.7 99.2,56.7 85,42.5 	"/>
	<rect x="99.2" y="28.3" width="14.2" height="14.2"/>
	<polygon points="0,56.7 28.3,85 14.2,85 0,70.9 	"/>
	<rect x="14.2" y="56.7" width="14.2" height="14.2"/>
	<polygon points="28.3,56.7 56.7,85 42.5,85 28.3,70.9 	"/>
	<rect x="42.5" y="56.7" width="14.2" height="14.2"/>
	<polygon points="56.7,56.7 85,85 70.9,85 56.7,70.9 	"/>
	<rect x="70.9" y="56.7" width="14.2" height="14.2"/>
	<polygon points="85,56.7 113.4,85 99.2,85 85,70.9 	"/>
	<rect x="99.2" y="56.7" width="14.2" height="14.2"/>
	<polygon points="0,85 28.3,113.4 14.2,113.4 0,99.2 	"/>
	<rect x="14.2" y="85" width="14.2" height="14.2"/>
	<polygon points="28.3,85 56.7,113.4 42.5,113.4 28.3,99.2 	"/>
	<rect x="42.5" y="85" width="14.2" height="14.2"/>
	<polygon points="56.7,85 85,113.4 70.9,113.4 56.7,99.2 	"/>
	<rect x="70.9" y="85" width="14.2" height="14.2"/>
	<polygon points="85,85 113.4,113.4 99.2,113.4 85,99.2 	"/>
	<rect x="99.2" y="85" width="14.2" height="14.2"/>
</g>
</svg>
