<?xml version="1.0" encoding="utf-8"?>
<!-- Generator: Adobe Illustrator 25.3.1, SVG Export Plug-In . SVG Version: 6.00 Build 0)  -->
<svg version="1.1" id="Ebene_1" xmlns="http://www.w3.org/2000/svg" xmlns:xlink="http://www.w3.org/1999/xlink" x="0px" y="0px"
	 viewBox="0 0 113.4 113.4" style="enable-background:new 0 0 113.4 113.4;" xml:space="preserve">
<style type="text/css">
	.st0{fill:#020206;}
</style>
<g>
	<path d="M56.7,0H0v56.7C0,25.4,25.4,0,56.7,0z"/>
	<path d="M113.4,0H56.7v56.7C56.7,25.4,82.1,0,113.4,0z"/>
	<path d="M56.7,56.7H0v56.7C0,82.1,25.4,56.7,56.7,56.7z"/>
	<path d="M113.4,56.7H56.7v56.7C56.7,82.1,82.1,56.7,113.4,56.7z"/>
</g>
<g>
	<path d="M56.7,113.4h56.7V56.7C113.4,88,88,113.4,56.7,113.4z"/>
	<path d="M0,113.4h56.7V56.7C56.7,88,31.3,113.4,0,113.4z"/>
	<path d="M56.7,56.7h56.7V0C113.4,31.3,88,56.7,56.7,56.7z"/>
	<path d="M0,56.7h56.7V0C56.7,31.3,31.3,56.7,0,56.7z"/>
</g>
</svg>
