<?xml version="1.0" encoding="utf-8"?>
<!-- Generator: Adobe Illustrator 25.3.1, SVG Export Plug-In . SVG Version: 6.00 Build 0)  -->
<svg version="1.1" id="Ebene_1" xmlns="http://www.w3.org/2000/svg" xmlns:xlink="http://www.w3.org/1999/xlink" x="0px" y="0px"
	 viewBox="0 0 113.4 113.4" style="enable-background:new 0 0 113.4 113.4;" xml:space="preserve">
<style type="text/css">
	.st0{fill:#020206;}
</style>
<g>
	<path d="M14.2,0L0,14.2V0H14.2z"/>
	<path d="M28.3,0L0,28.3v14.2L42.5,0H28.3z"/>
	<path d="M0,56.7L56.7,0v14.2L0,70.9V56.7z"/>
	<path d="M0,85l56.7-56.7v14.2L0,99.2V85z"/>
	<path d="M0,113.4l56.7-56.7v14.2l-42.5,42.5H0z"/>
	<path d="M28.3,113.4L56.7,85v14.2l-14.2,14.2H28.3z"/>
	<path d="M99.2,0l14.2,14.2V0H99.2z"/>
	<path d="M85,0l28.3,28.3v14.2L70.9,0H85z"/>
	<path d="M113.4,56.7L56.7,0v14.2l56.7,56.7V56.7z"/>
	<path d="M113.4,85L56.7,28.3v14.2l56.7,56.7V85z"/>
	<path d="M113.4,113.4L56.7,56.7v14.2l42.5,42.5H113.4z"/>
	<path d="M85,113.4L56.7,85v14.2l14.2,14.2H85z"/>
</g>
</svg>
