<?xml version="1.0" encoding="utf-8"?>
<!-- Generator: Adobe Illustrator 25.3.1, SVG Export Plug-In . SVG Version: 6.00 Build 0)  -->
<svg version="1.1" id="Ebene_1" xmlns="http://www.w3.org/2000/svg" xmlns:xlink="http://www.w3.org/1999/xlink" x="0px" y="0px"
	 viewBox="0 0 113.4 113.4" style="enable-background:new 0 0 113.4 113.4;" xml:space="preserve">
<style type="text/css">
	.st0{fill:#020206;}
</style>
<g>
	<g>
		<polygon points="93.1,0 79.7,0 56.7,23 56.7,36.4 		"/>
		<polygon points="113.4,0 106.7,0 56.7,50 56.7,56.7 63.4,56.7 113.4,6.7 		"/>
		<polygon points="56.7,9.4 66.1,0 56.7,0 		"/>
		<polygon points="113.4,33.7 113.4,20.3 77,56.7 90.4,56.7 		"/>
		<polygon points="113.4,47.3 104,56.7 113.4,56.7 		"/>
	</g>
	<g>
		<polygon points="77,56.7 90.4,56.7 113.4,79.7 113.4,93.1 		"/>
		<polygon points="56.7,56.7 63.4,56.7 113.4,106.7 113.4,113.4 106.7,113.4 56.7,63.4 		"/>
		<polygon points="113.4,66.1 104,56.7 113.4,56.7 		"/>
		<polygon points="56.7,90.4 56.7,77 93.1,113.4 79.7,113.4 		"/>
		<polygon points="56.7,104 66.1,113.4 56.7,113.4 		"/>
	</g>
	<g>
		<polygon points="20.3,0 33.7,0 56.7,23 56.7,36.4 		"/>
		<polygon points="0,0 6.7,0 56.7,50 56.7,56.7 50,56.7 0,6.7 		"/>
		<polygon points="56.7,9.4 47.3,0 56.7,0 		"/>
		<polygon points="0,33.7 0,20.3 36.4,56.7 23,56.7 		"/>
		<polygon points="0,47.3 9.4,56.7 0,56.7 		"/>
	</g>
	<g>
		<polygon points="36.4,56.7 23,56.7 0,79.7 0,93.1 		"/>
		<polygon points="56.7,56.7 50,56.7 0,106.7 0,113.4 6.7,113.4 56.7,63.4 		"/>
		<polygon points="0,66.1 9.4,56.7 0,56.7 		"/>
		<polygon points="56.7,90.4 56.7,77 20.3,113.4 33.7,113.4 		"/>
		<polygon points="56.7,104 47.3,113.4 56.7,113.4 		"/>
	</g>
</g>
</svg>
