<svg width="100" height="100" viewBox="0 0 100 100" fill="none" xmlns="http://www.w3.org/2000/svg">
<path d="M25.4725 50.7624C25.3863 50.764 25.3006 50.7485 25.2204 50.7167C25.1402 50.6849 25.0672 50.6375 25.0054 50.5773L0.323976 25.8898C0.230074 25.7996 0.166174 25.6826 0.140944 25.5549C0.115715 25.4271 0.130347 25.2947 0.182909 25.1756C0.232018 25.0573 0.315331 24.9564 0.42211 24.8857C0.528889 24.815 0.654325 24.7778 0.782363 24.7788H25.4638C25.5495 24.7788 25.6342 24.7957 25.7133 24.8285C25.7925 24.8613 25.8644 24.9093 25.925 24.9699C25.9856 25.0305 26.0336 25.1024 26.0664 25.1816C26.0992 25.2607 26.1161 25.3456 26.1161 25.4313V50.1188C26.1158 50.2489 26.0772 50.3759 26.0051 50.4841C25.9329 50.5924 25.8305 50.6769 25.7105 50.7272C25.6344 50.7547 25.5534 50.7666 25.4725 50.7624V50.7624ZM2.38661 26.0749L24.8202 48.5141V26.1014L2.38661 26.0749Z" fill="black"/>
<path d="M50.1277 26.1016H25.4463C25.2733 26.1016 25.1073 26.0329 24.985 25.9105C24.8626 25.7881 24.794 25.6222 24.794 25.4491V0.761617C24.7929 0.633547 24.8302 0.50808 24.9008 0.401275C24.9715 0.294469 25.0723 0.211135 25.1906 0.162015C25.3101 0.111906 25.442 0.0985728 25.5691 0.123699C25.6963 0.148825 25.8131 0.211301 25.9046 0.303117L50.5861 24.9906C50.6794 25.0812 50.7434 25.1976 50.7701 25.3248C50.7968 25.4521 50.7849 25.5844 50.7359 25.7048C50.6843 25.8231 50.5992 25.9237 50.4911 25.9942C50.383 26.0647 50.2567 26.102 50.1277 26.1016V26.1016ZM26.125 24.7966H48.5498L26.125 2.35749V24.7966Z" fill="black"/>
<path d="M25.4726 50.7624C25.3852 50.7658 25.2982 50.7508 25.217 50.7184C25.0995 50.6658 24.9994 50.5805 24.9291 50.4726C24.8587 50.3647 24.821 50.2388 24.8203 50.11V25.4225C24.8203 25.2494 24.8891 25.0835 25.0114 24.9611C25.1337 24.8388 25.2996 24.77 25.4726 24.77H50.154C50.2828 24.7707 50.4087 24.8085 50.5166 24.8788C50.6244 24.9492 50.7098 25.0492 50.7623 25.1668C50.8113 25.2872 50.8232 25.4195 50.7965 25.5468C50.7698 25.674 50.7057 25.7904 50.6124 25.881L25.931 50.5685C25.8713 50.6296 25.8001 50.6783 25.7214 50.7116C25.6427 50.7449 25.5581 50.7622 25.4726 50.7624V50.7624ZM26.125 26.0749V48.5141L48.5498 26.0749H26.125Z" fill="black"/>
<path d="M25.4725 26.1016H0.791045C0.661994 26.1019 0.535853 26.0634 0.428962 25.9911C0.322071 25.9188 0.239429 25.8159 0.191698 25.696C0.139136 25.5769 0.124504 25.4445 0.149733 25.3167C0.174963 25.189 0.238863 25.072 0.332765 24.9818L25.0142 0.294314C25.1057 0.202499 25.2225 0.140023 25.3497 0.114896C25.4769 0.0897701 25.6086 0.103157 25.7282 0.153266C25.8481 0.201009 25.9509 0.283671 26.0232 0.390588C26.0955 0.497506 26.1339 0.623731 26.1336 0.752814V25.4403C26.1348 25.5275 26.1185 25.614 26.0857 25.6948C26.0529 25.7755 26.0042 25.8489 25.9426 25.9106C25.881 25.9722 25.8077 26.0209 25.727 26.0537C25.6462 26.0865 25.5596 26.1028 25.4725 26.1016V26.1016ZM2.38658 24.7967H24.8202V2.35751L2.38658 24.7967Z" fill="black"/>
<path d="M0.808539 26.1014C0.723417 26.1017 0.639305 26.0837 0.561806 26.0485C0.441906 26.0007 0.339068 25.918 0.26676 25.8111C0.194451 25.7042 0.15594 25.578 0.156252 25.4489V0.761388C0.156252 0.588346 0.225025 0.422395 0.347354 0.300036C0.469683 0.177677 0.635539 0.108887 0.808539 0.108887H25.49C25.6185 0.110893 25.7437 0.150349 25.8501 0.222382C25.9566 0.294415 26.0398 0.39592 26.0894 0.514487C26.1376 0.632945 26.1499 0.762984 26.1248 0.88839C26.0998 1.0138 26.0384 1.12903 25.9484 1.21983L1.26693 25.9074C1.14577 26.0301 0.980954 26.0998 0.808539 26.1014V26.1014ZM1.46083 1.41384V23.853L23.8946 1.41384H1.46083Z" fill="black"/>
<path d="M74.7906 50.7624C74.6169 50.7628 74.4497 50.6965 74.3234 50.5773L49.6419 25.8898C49.5501 25.7982 49.4877 25.6814 49.4626 25.5542C49.4374 25.427 49.4508 25.2952 49.5009 25.1756C49.55 25.0573 49.6333 24.9564 49.7401 24.8857C49.8468 24.815 49.9723 24.7778 50.1003 24.7788H74.7818C74.8674 24.7788 74.9523 24.7957 75.0314 24.8285C75.1106 24.8613 75.1824 24.9093 75.243 24.9699C75.3035 25.0305 75.3517 25.1024 75.3845 25.1816C75.4172 25.2607 75.4341 25.3456 75.4341 25.4313V50.1188C75.4338 50.2489 75.3951 50.3759 75.323 50.4841C75.2509 50.5924 75.1485 50.6769 75.0286 50.7272C74.9524 50.7547 74.8715 50.7666 74.7906 50.7624V50.7624ZM51.7046 26.0749L74.1383 48.5141V26.1014L51.7046 26.0749Z" fill="black"/>
<path d="M99.4461 26.1016H74.7646C74.5916 26.1016 74.4258 26.0329 74.3034 25.9105C74.1811 25.7881 74.1123 25.6222 74.1123 25.4491V0.761617C74.1113 0.633547 74.1485 0.50808 74.2192 0.401275C74.2898 0.294469 74.3907 0.211135 74.5089 0.162015C74.6285 0.111906 74.7603 0.0985728 74.8875 0.123699C75.0147 0.148825 75.1315 0.211301 75.223 0.303117L99.9044 24.9906C99.9943 25.0834 100.055 25.2002 100.08 25.3269C100.105 25.4536 100.093 25.5848 100.046 25.7048C99.9945 25.8217 99.9107 25.9214 99.8044 25.9918C99.698 26.0622 99.5736 26.1003 99.4461 26.1016ZM75.4434 24.7966H97.877L75.4345 2.35749L75.4434 24.7966Z" fill="black"/>
<path d="M74.791 50.7624C74.7037 50.765 74.6167 50.75 74.5353 50.7184C74.4177 50.6658 74.3178 50.5805 74.2475 50.4726C74.1771 50.3647 74.1393 50.2388 74.1387 50.11V25.4225C74.1387 25.2494 74.2073 25.0835 74.3297 24.9611C74.452 24.8388 74.618 24.77 74.791 24.77H99.4724C99.6012 24.7707 99.7271 24.8085 99.8349 24.8788C99.9428 24.9492 100.028 25.0492 100.081 25.1668C100.128 25.2868 100.141 25.418 100.116 25.5447C100.091 25.6714 100.029 25.7882 99.9396 25.881L75.2582 50.5685C75.1974 50.6307 75.1247 50.68 75.0444 50.7133C74.9641 50.7466 74.8779 50.7634 74.791 50.7624V50.7624ZM75.4432 26.0749V48.5141L97.8769 26.0749H75.4432Z" fill="black"/>
<path d="M74.7915 26.1016H50.1101C49.981 26.1019 49.8549 26.0634 49.748 25.9911C49.6411 25.9188 49.5584 25.8159 49.5106 25.696C49.4605 25.5764 49.4472 25.4446 49.4723 25.3174C49.4974 25.1902 49.5599 25.0734 49.6517 24.9818L74.3332 0.294314C74.4247 0.202499 74.5415 0.140023 74.6687 0.114896C74.7958 0.0897701 74.9276 0.103157 75.0472 0.153266C75.1671 0.201009 75.2698 0.283671 75.3421 0.390588C75.4144 0.497506 75.453 0.623731 75.4526 0.752814V25.4403C75.4538 25.5275 75.4376 25.614 75.4048 25.6948C75.372 25.7755 75.3233 25.8489 75.2617 25.9106C75.2 25.9722 75.1267 26.0209 75.0459 26.0537C74.9652 26.0865 74.8787 26.1028 74.7915 26.1016V26.1016ZM51.7055 24.7967H74.1393V2.35751L51.7055 24.7967Z" fill="black"/>
<path d="M74.7912 100.102C74.6167 100.098 74.4499 100.029 74.324 99.9083L49.6426 75.2208C49.5505 75.1313 49.4877 75.0159 49.4625 74.89C49.4374 74.7641 49.4509 74.6335 49.5015 74.5154C49.5492 74.3955 49.632 74.2927 49.7389 74.2203C49.8457 74.148 49.9719 74.1096 50.1009 74.1099H74.7824C74.868 74.1099 74.9529 74.1267 75.032 74.1595C75.1112 74.1923 75.183 74.2404 75.2436 74.301C75.3041 74.3615 75.3523 74.4335 75.3851 74.5126C75.4179 74.5918 75.4347 74.6766 75.4347 74.7623V99.4498C75.435 99.5789 75.3965 99.7051 75.3242 99.812C75.2519 99.9189 75.1491 100.002 75.0292 100.049C74.9541 100.082 74.8732 100.1 74.7912 100.102V100.102ZM51.7052 75.4148L74.1389 97.854V75.4324L51.7052 75.4148Z" fill="black"/>
<path d="M99.4461 75.4325H74.7646C74.5916 75.4325 74.4258 75.3637 74.3034 75.2413C74.1811 75.119 74.1123 74.953 74.1123 74.78V50.0924C74.1113 49.9644 74.1485 49.8389 74.2192 49.7321C74.2898 49.6253 74.3907 49.542 74.5089 49.4929C74.6289 49.4451 74.7602 49.433 74.8868 49.458C75.0135 49.4831 75.1302 49.5442 75.223 49.634L99.9044 74.3215C99.9945 74.4123 100.056 74.5276 100.081 74.653C100.106 74.7784 100.094 74.9084 100.046 75.0269C99.9958 75.1454 99.9127 75.2469 99.8062 75.319C99.6997 75.391 99.5746 75.4305 99.4461 75.4325ZM75.4434 74.1275H97.877L75.4345 51.6883L75.4434 74.1275Z" fill="black"/>
<path d="M74.791 100.102C74.7031 100.102 74.6162 100.084 74.5353 100.049C74.4171 100 74.3162 99.917 74.2455 99.8102C74.1749 99.7034 74.1377 99.5779 74.1387 99.4498V74.7623C74.1387 74.5893 74.2074 74.4233 74.3297 74.301C74.452 74.1786 74.618 74.1099 74.791 74.1099H99.4724C99.6024 74.1102 99.7294 74.1487 99.8376 74.2209C99.9458 74.293 100.03 74.3955 100.081 74.5154C100.129 74.6339 100.141 74.7639 100.116 74.8893C100.091 75.0147 100.03 75.13 99.9396 75.2208L75.2582 99.9083C75.1972 99.9701 75.1244 100.019 75.0442 100.052C74.9639 100.086 74.8778 100.103 74.791 100.102ZM75.4433 75.4148V97.854L97.8769 75.4148H75.4433Z" fill="black"/>
<path d="M74.7912 75.4325H50.1097C49.9807 75.4328 49.8545 75.3943 49.7476 75.3219C49.6408 75.2496 49.558 75.1468 49.5103 75.0269C49.4597 74.9088 49.4461 74.7782 49.4713 74.6523C49.4965 74.5263 49.5593 74.411 49.6513 74.3215L74.3328 49.634C74.4256 49.5442 74.5423 49.4831 74.6689 49.458C74.7956 49.433 74.9269 49.4451 75.0468 49.4929C75.1667 49.5406 75.2695 49.6234 75.3418 49.7303C75.4141 49.8372 75.4526 49.9634 75.4523 50.0924V74.78C75.4523 74.8664 75.4352 74.952 75.4018 75.0317C75.3685 75.1115 75.3196 75.1838 75.2581 75.2445C75.1966 75.3052 75.1237 75.3531 75.0435 75.3853C74.9633 75.4176 74.8776 75.4336 74.7912 75.4325V75.4325ZM51.7052 74.1275H74.1389V51.6883L51.7052 74.1275Z" fill="black"/>
<path d="M25.4725 100.102C25.2973 100.102 25.1293 100.032 25.0054 99.9083L0.323991 75.2208C0.230834 75.132 0.167273 75.0166 0.142035 74.8904C0.116797 74.7642 0.13108 74.6332 0.182924 74.5154C0.230655 74.3955 0.313297 74.2927 0.420188 74.2203C0.527078 74.148 0.653327 74.1096 0.782378 74.1099H25.4638C25.6368 74.1099 25.8027 74.1786 25.925 74.301C26.0473 74.4233 26.1161 74.5893 26.1161 74.7623V99.4498C26.1164 99.5789 26.0779 99.7051 26.0056 99.812C25.9333 99.9189 25.8305 100.002 25.7106 100.049C25.6355 100.082 25.5546 100.1 25.4725 100.102V100.102ZM2.38662 75.4148L24.8203 97.854V75.4324L2.38662 75.4148Z" fill="black"/>
<path d="M50.1277 75.4325H25.4463C25.2733 75.4325 25.1073 75.3637 24.985 75.2413C24.8626 75.119 24.794 74.953 24.794 74.78V50.0924C24.7929 49.9644 24.8302 49.8389 24.9008 49.7321C24.9715 49.6253 25.0723 49.542 25.1906 49.4929C25.3105 49.4451 25.4417 49.433 25.5684 49.458C25.6951 49.4831 25.8119 49.5442 25.9046 49.634L50.5861 74.3215C50.6786 74.4107 50.7423 74.5255 50.769 74.6512C50.7957 74.777 50.7842 74.9078 50.7359 75.0269C50.6856 75.1468 50.6011 75.2493 50.4929 75.3214C50.3847 75.3935 50.2577 75.4322 50.1277 75.4325ZM26.125 74.1275H48.5498L26.125 51.6883V74.1275Z" fill="black"/>
<path d="M25.4726 100.102C25.3847 100.103 25.2977 100.085 25.2171 100.049C25.0988 100 24.9978 99.917 24.9272 99.8102C24.8565 99.7034 24.8193 99.5779 24.8203 99.4498V74.7623C24.8203 74.5893 24.8891 74.4233 25.0114 74.301C25.1338 74.1786 25.2996 74.1099 25.4726 74.1099H50.1541C50.2841 74.1102 50.4112 74.1487 50.5194 74.2209C50.6276 74.293 50.7121 74.3955 50.7623 74.5154C50.8106 74.6345 50.8222 74.7653 50.7955 74.891C50.7688 75.0167 50.705 75.1316 50.6125 75.2208L25.931 99.9083C25.8099 100.031 25.645 100.101 25.4726 100.102V100.102ZM26.125 75.4148V97.854L48.5498 75.4148H26.125Z" fill="black"/>
<path d="M25.4725 75.4325H0.791059C0.662008 75.4328 0.535868 75.3943 0.428977 75.3219C0.322086 75.2496 0.239444 75.1468 0.191713 75.0269C0.139869 74.9091 0.125586 74.7781 0.150824 74.6519C0.176062 74.5257 0.239623 74.4103 0.33278 74.3215L25.0142 49.634C25.107 49.5442 25.2237 49.4831 25.3504 49.458C25.4771 49.433 25.6082 49.4451 25.7282 49.4929C25.8481 49.5406 25.9509 49.6234 26.0232 49.7303C26.0955 49.8372 26.1339 49.9634 26.1336 50.0924V74.78C26.1336 74.8664 26.1165 74.952 26.0832 75.0317C26.0498 75.1115 26.001 75.1838 25.9395 75.2445C25.878 75.3052 25.805 75.3531 25.7248 75.3853C25.6447 75.4176 25.5589 75.4336 25.4725 75.4325V75.4325ZM2.38659 74.1275H24.8202V51.6883L2.38659 74.1275Z" fill="black"/>
<path d="M50.1273 75.4325C49.9549 75.4309 49.7901 75.3612 49.6689 75.2385L24.9875 50.5509C24.8977 50.4581 24.8366 50.3414 24.8115 50.2147C24.7865 50.088 24.7986 49.9567 24.8464 49.8368C24.8967 49.7168 24.9812 49.6144 25.0894 49.5422C25.1975 49.4701 25.3247 49.4314 25.4547 49.4312H50.1361C50.3091 49.4312 50.475 49.4999 50.5973 49.6222C50.7196 49.7446 50.7884 49.9106 50.7884 50.0837V74.7712C50.7887 74.9003 50.7502 75.0264 50.6779 75.1334C50.6056 75.2403 50.5028 75.323 50.3829 75.3707C50.3034 75.4103 50.2161 75.4314 50.1273 75.4325V75.4325ZM27.0413 50.7449L49.475 73.1841V50.7625L27.0413 50.7449Z" fill="black"/>
<path d="M74.7908 50.7626H50.1093C49.9363 50.7626 49.7704 50.6939 49.648 50.5715C49.5257 50.4491 49.457 50.2832 49.457 50.1101V25.4226C49.4573 25.2926 49.496 25.1655 49.5681 25.0573C49.6402 24.9491 49.7426 24.8645 49.8625 24.8142C49.9809 24.766 50.1109 24.7537 50.2363 24.7788C50.3617 24.8039 50.4769 24.8653 50.5677 24.9553L75.2492 49.6429C75.3409 49.7344 75.4033 49.8512 75.4284 49.9784C75.4535 50.1056 75.4402 50.2375 75.3901 50.357C75.3424 50.477 75.2597 50.5797 75.1529 50.6521C75.046 50.7244 74.9198 50.7629 74.7908 50.7626V50.7626ZM50.7793 49.4577H73.2129L50.7528 27.0185L50.7793 49.4577Z" fill="black"/>
<path d="M50.1279 75.4324C50.0429 75.4317 49.9589 75.4137 49.881 75.3795C49.7611 75.3318 49.6583 75.2491 49.586 75.1421C49.5137 75.0352 49.4753 74.909 49.4756 74.7799V50.0924C49.4756 49.9193 49.5443 49.7534 49.6666 49.631C49.7889 49.5087 49.9549 49.4399 50.1279 49.4399H74.8093C74.9384 49.4396 75.0645 49.4782 75.1714 49.5505C75.2783 49.6228 75.3609 49.7256 75.4087 49.8455C75.4588 49.9651 75.4721 50.0969 75.447 50.2241C75.4219 50.3513 75.3595 50.4682 75.2677 50.5597L50.5863 75.2472C50.4637 75.3667 50.299 75.4332 50.1279 75.4324V75.4324ZM50.7802 50.7449V73.184L73.2138 50.7449H50.7802Z" fill="black"/>
<path d="M50.1283 50.7626H25.4469C25.3181 50.7619 25.1922 50.7241 25.0844 50.6537C24.9765 50.5834 24.8911 50.4834 24.8386 50.3658C24.7908 50.2458 24.7787 50.1146 24.8037 49.9879C24.8287 49.8612 24.8898 49.7444 24.9797 49.6516L49.6611 24.9641C49.7519 24.874 49.8671 24.8127 49.9925 24.7876C50.1179 24.7625 50.2479 24.7748 50.3663 24.823C50.4862 24.8733 50.5886 24.9578 50.6607 25.0661C50.7329 25.1743 50.7715 25.3014 50.7718 25.4314V50.1189C50.7695 50.2889 50.701 50.4513 50.5808 50.5715C50.4606 50.6917 50.2983 50.7603 50.1283 50.7626V50.7626ZM27.0423 49.4577H49.476V27.0185L27.0423 49.4577Z" fill="black"/>
<path d="M25.4724 100.102H0.790959C0.617959 100.102 0.452103 100.034 0.329774 99.9114C0.207445 99.789 0.138672 99.6231 0.138672 99.45V74.7625C0.138961 74.6325 0.177596 74.5054 0.249718 74.3972C0.32184 74.2889 0.424319 74.2044 0.544226 74.1541C0.663296 74.1058 0.794079 74.0943 0.919759 74.121C1.04544 74.1477 1.1602 74.2115 1.24935 74.304L25.9308 98.9915C26.0206 99.0843 26.0817 99.2011 26.1067 99.3278C26.1317 99.4545 26.1197 99.5857 26.0719 99.7057C26.0209 99.8226 25.9371 99.9223 25.8307 99.9927C25.7244 100.063 25.5999 100.101 25.4724 100.102V100.102ZM1.46089 98.7976H23.8946L1.46089 76.3584V98.7976Z" fill="black"/>
<path d="M99.4457 100.102H74.7642C74.6342 100.102 74.5072 100.064 74.399 99.9914C74.2908 99.9193 74.2063 99.8168 74.156 99.6969C74.1082 99.5769 74.0961 99.4457 74.1211 99.319C74.1461 99.1923 74.2072 99.0755 74.297 98.9827L98.9785 74.2952C99.069 74.2019 99.1853 74.1378 99.3126 74.1111C99.4398 74.0844 99.5721 74.0963 99.6925 74.1453C99.8101 74.1979 99.91 74.2832 99.9803 74.3911C100.051 74.499 100.088 74.6249 100.089 74.7537V99.4412C100.09 99.5269 100.075 99.6119 100.043 99.6916C100.011 99.7712 99.9641 99.8437 99.9044 99.9051C99.8446 99.9665 99.7734 100.016 99.6947 100.049C99.616 100.083 99.5313 100.101 99.4457 100.102V100.102ZM76.3686 98.7976H98.7934V76.3584L76.3686 98.7976Z" fill="black"/>
<path d="M99.4461 26.1014C99.2737 26.0998 99.1089 26.0301 98.9878 25.9074L74.3063 1.21983C74.2163 1.12903 74.1549 1.0138 74.1298 0.88839C74.1048 0.762984 74.1172 0.632945 74.1653 0.514487C74.2156 0.394551 74.3001 0.2921 74.4083 0.21996C74.5165 0.14782 74.6435 0.109176 74.7735 0.108887H99.455C99.5406 0.108887 99.6255 0.125769 99.7046 0.158558C99.7837 0.191347 99.8557 0.23945 99.9163 0.300036C99.9768 0.360622 100.025 0.432529 100.058 0.511689C100.09 0.590848 100.107 0.675706 100.107 0.761388V25.4489C100.108 25.577 100.071 25.7025 100 25.8093C99.9297 25.9161 99.8289 25.9993 99.7106 26.0485C99.6273 26.0848 99.5371 26.1029 99.4461 26.1014V26.1014ZM76.369 1.41384L98.7939 23.853V1.43143L76.369 1.41384Z" fill="black"/>
</svg>
