<svg width="101" height="101" viewBox="0 0 101 101" fill="none" xmlns="http://www.w3.org/2000/svg">
<path d="M68.3885 68.6195C70.7091 66.3056 72.5497 63.5565 73.8058 60.5298C75.0619 57.5031 75.7086 54.2582 75.7083 50.9812C75.7094 47.6982 75.0639 44.4472 73.8084 41.4138C72.5528 38.3804 70.7121 35.6242 68.3911 33.3024C66.0701 30.9806 63.3146 29.1388 60.2816 27.8822C57.2487 26.6257 53.9979 25.9788 50.7149 25.9788C47.4306 25.9736 44.1776 26.6178 41.1431 27.874C38.1085 29.1302 35.3524 30.9737 33.0327 33.2987L68.3885 68.6195Z" fill="black"/>
<path d="M0.709961 0.950195V100.942H100.71L0.709961 0.950195ZM25.7119 50.9459C25.7126 47.669 26.3601 44.4244 27.6161 41.3978C28.8721 38.3712 30.7127 35.622 33.0325 33.3076L68.3883 68.6635C66.0739 70.9833 63.3244 72.8239 60.2978 74.0799C57.2712 75.3359 54.0269 75.9828 50.75 75.9835C47.4604 75.9893 44.2021 75.3456 41.1618 74.0894C38.1215 72.8332 35.3586 70.9892 33.0325 68.6631C30.7064 66.337 28.8628 63.5746 27.6066 60.5342C26.3504 57.4939 25.7061 54.2355 25.7119 50.9459V50.9459Z" fill="black"/>
</svg>
