<svg version="1.1" id="Ebene_1" xmlns="http://www.w3.org/2000/svg" xmlns:xlink="http://www.w3.org/1999/xlink" x="0px" y="0px" viewBox="0 0 100 100" style="enable-background:new 0 0 100 100;" xml:space="preserve">
<g>
	<path d="M67.7,67.7c2.3-2.3,4.2-5.1,5.4-8.1c1.3-3,1.9-6.3,1.9-9.5c0-3.3-0.6-6.5-1.9-9.6c-1.3-3-3.1-5.8-5.4-8.1
		s-5.1-4.2-8.1-5.4c-3-1.3-6.3-1.9-9.6-1.9c-3.3,0-6.5,0.6-9.6,1.9c-3,1.3-5.8,3.1-8.1,5.4L67.7,67.7z"/>
	<path d="M0,0v100h100L0,0z M25,50c0-3.3,0.6-6.5,1.9-9.5s3.1-5.8,5.4-8.1l35.4,35.4c-2.3,2.3-5.1,4.2-8.1,5.4
		c-3,1.3-6.3,1.9-9.5,1.9c-3.3,0-6.5-0.6-9.6-1.9c-3-1.3-5.8-3.1-8.1-5.4c-2.3-2.3-4.2-5.1-5.4-8.1C25.6,56.5,25,53.3,25,50L25,50z"
		/>
</g>
</svg>
