<svg enable-background="new 0 0 100 100" viewBox="0 0 100 100" xmlns="http://www.w3.org/2000/svg"><path d="m67.7 67.7c2.3-2.3 4.2-5.1 5.4-8.1 1.3-3 1.9-6.3 1.9-9.5 0-3.3-.6-6.5-1.9-9.6-1.3-3-3.1-5.8-5.4-8.1s-5.1-4.2-8.1-5.4c-3-1.3-6.3-1.9-9.6-1.9s-6.5.6-9.6 1.9c-3 1.3-5.8 3.1-8.1 5.4z"/><path d="m0 0v100h100zm25 50c0-3.3.6-6.5 1.9-9.5s3.1-5.8 5.4-8.1l35.4 35.4c-2.3 2.3-5.1 4.2-8.1 5.4-3 1.3-6.3 1.9-9.5 1.9-3.3 0-6.5-.6-9.6-1.9-3-1.3-5.8-3.1-8.1-5.4s-4.2-5.1-5.4-8.1c-1.4-3.2-2-6.4-2-9.7z"/></svg>