<svg width="101" height="101" viewBox="0 0 101 101" fill="none" xmlns="http://www.w3.org/2000/svg">
<path d="M50.7101 0.390137H0.709961V50.3813C0.712299 37.122 5.98097 24.4066 15.3575 15.0317C24.7341 5.65677 37.4508 0.390137 50.7101 0.390137V0.390137Z" fill="black"/>
<path d="M50.71 100.39H100.701V50.3989C100.701 63.6574 95.4343 76.3729 86.0591 85.7481C76.6839 95.1232 63.9684 100.39 50.71 100.39V100.39Z" fill="black"/>
<path d="M0.709961 50.3989V100.39H50.7101C37.4508 100.39 24.7341 95.1235 15.3575 85.7486C5.98097 76.3737 0.712299 63.6582 0.709961 50.3989V50.3989Z" fill="black"/>
<path d="M50.71 0.390137C63.9684 0.390137 76.6839 5.65706 86.0591 15.0322C95.4343 24.4074 100.701 37.1228 100.701 50.3813V0.390137H50.71Z" fill="black"/>
<path d="M50.7099 12.9033C40.7655 12.9033 31.2281 16.8538 24.1963 23.8856C17.1645 30.9173 13.2139 40.4545 13.2139 50.3989C13.2139 60.3434 17.1645 69.8805 24.1963 76.9123C31.2281 83.9441 40.7655 87.8945 50.7099 87.8945C60.6543 87.8945 70.1917 83.9441 77.2235 76.9123C84.2553 69.8805 88.2051 60.3434 88.2051 50.3989C88.2051 40.4545 84.2553 30.9173 77.2235 23.8856C70.1917 16.8538 60.6543 12.9033 50.7099 12.9033ZM50.7099 75.399C44.0795 75.399 37.7203 72.765 33.0319 68.0766C28.3435 63.3882 25.7094 57.0293 25.7094 50.3989C25.7094 43.7685 28.3435 37.4097 33.0319 32.7213C37.7203 28.0329 44.0795 25.3989 50.7099 25.3989C53.9925 25.3989 57.2431 26.0456 60.2757 27.3021C63.3084 28.5586 66.0637 30.4003 68.3845 32.7219C70.7052 35.0435 72.5458 37.7995 73.8012 40.8326C75.0566 43.8656 75.7021 47.1163 75.7009 50.3989C75.7009 57.0278 73.0684 63.3853 68.3819 68.0735C63.6954 72.7617 57.3388 75.3967 50.7099 75.399Z" fill="black"/>
<path d="M50.7104 62.8854C57.6115 62.8854 63.2061 57.2909 63.2061 50.3898C63.2061 43.4887 57.6115 37.8943 50.7104 37.8943C43.8092 37.8943 38.2148 43.4887 38.2148 50.3898C38.2148 57.2909 43.8092 62.8854 50.7104 62.8854Z" fill="black"/>
</svg>
