<svg enable-background="new 0 0 100 100" viewBox="0 0 100 100" xmlns="http://www.w3.org/2000/svg"><path d="m50 0h-50v50c0-13.3 5.3-26 14.6-35.3 9.4-9.4 22.1-14.7 35.4-14.7z"/><path d="m50 100h50v-50c0 13.3-5.3 26-14.6 35.3-9.4 9.4-22.1 14.7-35.4 14.7z"/><path d="m0 50v50h50c-13.3 0-26-5.3-35.4-14.6-9.3-9.4-14.6-22.1-14.6-35.4z"/><path d="m50 0c13.3 0 26 5.3 35.3 14.6 9.4 9.4 14.7 22.1 14.7 35.4v-50z"/><path d="m50 12.5c-9.9 0-19.5 4-26.5 11s-11 16.6-11 26.5 4 19.5 11 26.5 16.6 11 26.5 11 19.5-4 26.5-11 11-16.6 11-26.5-3.9-19.5-11-26.5c-7-7-16.6-11-26.5-11zm0 62.5c-6.6 0-13-2.6-17.7-7.3s-7.3-11.1-7.3-17.7 2.6-13 7.3-17.7 11.1-7.3 17.7-7.3c3.3 0 6.5.6 9.6 1.9 3 1.3 5.8 3.1 8.1 5.4s4.2 5.1 5.4 8.1c1.3 3 1.9 6.3 1.9 9.6 0 6.6-2.6 13-7.3 17.7s-11.1 7.3-17.7 7.3z"/><path d="m50 62.5c6.9 0 12.5-5.6 12.5-12.5s-5.6-12.5-12.5-12.5-12.5 5.6-12.5 12.5 5.6 12.5 12.5 12.5z"/></svg>