<svg width="100" height="100" viewBox="0 0 100 100" fill="none" xmlns="http://www.w3.org/2000/svg">
<path d="M25.7123 51.3992C25.537 51.399 25.3687 51.3293 25.2449 51.2053L0.563505 26.5239C0.469602 26.4337 0.40538 26.3168 0.380151 26.1891C0.354921 26.0614 0.369769 25.929 0.422331 25.8099C0.470061 25.69 0.553026 25.5872 0.659916 25.5149C0.766807 25.4426 0.89327 25.4041 1.02232 25.4044H25.7037C25.8767 25.4044 26.0419 25.4731 26.1642 25.5955C26.2865 25.7178 26.3553 25.8837 26.3553 26.0567V50.7381C26.3556 50.8671 26.3174 50.9933 26.2451 51.1002C26.1728 51.2071 26.0698 51.2897 25.9499 51.3375C25.8754 51.3736 25.7949 51.3946 25.7123 51.3992V51.3992ZM2.62602 26.7178L25.0598 49.1514V26.7354L2.62602 26.7178Z" />
<path d="M50.3671 26.7355H25.6857C25.6 26.7355 25.5152 26.7186 25.4361 26.6858C25.3569 26.6531 25.2849 26.605 25.2243 26.5444C25.1637 26.4839 25.1159 26.412 25.0831 26.3328C25.0503 26.2537 25.0332 26.1689 25.0332 26.0832V1.40184C25.0339 1.27306 25.0722 1.1472 25.1425 1.03933C25.2129 0.931461 25.3125 0.846157 25.43 0.793628C25.55 0.74583 25.6813 0.73371 25.8079 0.758732C25.9346 0.783753 26.0518 0.844846 26.1445 0.934661L50.8259 25.616C50.9157 25.7088 50.9765 25.8255 51.0015 25.9522C51.0265 26.0789 51.014 26.2101 50.9662 26.33C50.9156 26.4479 50.8323 26.5488 50.726 26.6207C50.6198 26.6925 50.4953 26.7324 50.3671 26.7355V26.7355ZM26.3649 25.4309H48.7892L26.3649 2.99732V25.4309Z" />
<path d="M25.7126 51.3992C25.6246 51.3994 25.5375 51.3814 25.4569 51.3463C25.3387 51.2972 25.2375 51.2139 25.1668 51.1071C25.0962 51.0003 25.0591 50.8749 25.0601 50.7469V26.0655C25.0601 25.8925 25.1289 25.7266 25.2512 25.6043C25.3735 25.4819 25.5396 25.4132 25.7126 25.4132H50.3939C50.524 25.4135 50.6507 25.4521 50.7589 25.5242C50.8671 25.5964 50.9514 25.6988 51.0017 25.8187C51.0495 25.9386 51.062 26.0698 51.037 26.1965C51.0119 26.3232 50.9512 26.4399 50.8614 26.5327L26.18 51.214C26.1182 51.2743 26.045 51.3216 25.9648 51.3534C25.8846 51.3852 25.7988 51.4007 25.7126 51.3992V51.3992ZM26.3651 26.7178V49.1514L48.7894 26.7178H26.3651Z" />
<path d="M25.7121 26.7355H1.03074C0.902699 26.7365 0.776833 26.6993 0.670054 26.6286C0.563276 26.558 0.480716 26.4571 0.431608 26.3388C0.379046 26.2197 0.364199 26.0873 0.389428 25.9596C0.414657 25.8319 0.478019 25.715 0.571921 25.6248L25.2533 0.943452C25.346 0.853637 25.4632 0.792544 25.5899 0.767522C25.7165 0.742501 25.8478 0.754614 25.9678 0.802413C26.0877 0.852686 26.19 0.937202 26.2622 1.04538C26.3343 1.15357 26.3729 1.28061 26.3732 1.41063V26.092C26.3721 26.1777 26.3537 26.2623 26.3198 26.341C26.286 26.4197 26.2375 26.4909 26.1761 26.5507C26.1147 26.6104 26.0422 26.6575 25.9626 26.6892C25.883 26.7209 25.7978 26.7366 25.7121 26.7355V26.7355ZM2.62583 25.4309H25.0596V2.99729L2.62583 25.4309Z" />
<path d="M1.04812 26.7355C0.963991 26.7344 0.881226 26.7195 0.801929 26.6914C0.682023 26.6411 0.579651 26.5566 0.50753 26.4484C0.435408 26.3402 0.396773 26.2132 0.396484 26.0832V1.4018C0.396484 1.2288 0.465257 1.06289 0.587586 0.940566C0.709914 0.818237 0.875124 0.749512 1.04812 0.749512H25.7295C25.8573 0.749651 25.9827 0.787316 26.0893 0.857833C26.1959 0.928351 26.2794 1.02861 26.3295 1.14617C26.3773 1.26612 26.3889 1.39733 26.3639 1.524C26.3389 1.65067 26.2781 1.76741 26.1883 1.86017L1.50694 26.5415C1.44724 26.6027 1.3756 26.6513 1.2969 26.6846C1.2182 26.7179 1.13357 26.7352 1.04812 26.7355V26.7355ZM1.70062 2.05409V24.4877L24.1344 2.05409H1.70062Z" />
<path d="M75.0317 51.3992C74.8572 51.3954 74.6902 51.3262 74.5643 51.2053L49.8829 26.5239C49.7911 26.4324 49.729 26.3156 49.7039 26.1884C49.6788 26.0612 49.6917 25.9294 49.7418 25.8099C49.7895 25.69 49.8725 25.5872 49.9793 25.5149C50.0862 25.4426 50.2118 25.4041 50.3409 25.4044H75.0222C75.1079 25.4044 75.1927 25.4213 75.2719 25.4541C75.351 25.4868 75.4231 25.5349 75.4836 25.5955C75.5442 25.656 75.592 25.728 75.6248 25.8071C75.6576 25.8862 75.6747 25.9711 75.6747 26.0567V50.7381C75.6751 50.8671 75.6369 50.9933 75.5646 51.1002C75.4923 51.2071 75.3892 51.2897 75.2693 51.3375C75.1948 51.3736 75.1143 51.3946 75.0317 51.3992V51.3992ZM51.9455 26.7178L74.3792 49.1514V26.7354L51.9455 26.7178Z" />
<path d="M99.6859 26.7355H75.0046C74.9189 26.7355 74.8341 26.7186 74.7549 26.6858C74.6758 26.6531 74.6037 26.605 74.5432 26.5444C74.4826 26.4839 74.4348 26.412 74.402 26.3328C74.3692 26.2537 74.3521 26.1689 74.3521 26.0832V1.40184C74.3527 1.27306 74.391 1.1472 74.4614 1.03933C74.5317 0.931461 74.6313 0.846157 74.7489 0.793628C74.8688 0.74583 75.0001 0.73371 75.1268 0.758732C75.2535 0.783753 75.3697 0.844846 75.4625 0.934661L100.144 25.616C100.234 25.7088 100.295 25.8255 100.32 25.9522C100.345 26.0789 100.333 26.2101 100.285 26.33C100.234 26.4479 100.151 26.5488 100.045 26.6207C99.9386 26.6925 99.8142 26.7324 99.6859 26.7355V26.7355ZM75.6829 25.4309H98.1166L75.6829 2.99732V25.4309Z" />
<path d="M75.0314 51.3992C74.9435 51.3987 74.8566 51.3807 74.7758 51.3463C74.6575 51.2972 74.5563 51.2139 74.4857 51.1071C74.415 51.0003 74.3779 50.8749 74.3789 50.7469V26.0655C74.3789 25.8925 74.4477 25.7266 74.57 25.6043C74.6924 25.4819 74.8584 25.4132 75.0314 25.4132H99.7128C99.8428 25.4135 99.9696 25.4521 100.078 25.5242C100.186 25.5964 100.27 25.6988 100.321 25.8187C100.368 25.9386 100.381 26.0698 100.356 26.1965C100.331 26.3232 100.269 26.4399 100.179 26.5327L75.498 51.214C75.4362 51.2743 75.3638 51.3216 75.2836 51.3534C75.2035 51.3852 75.1177 51.4007 75.0314 51.3992V51.3992ZM75.6831 26.7178V49.1514L98.1168 26.7178H75.6831Z" />
<path d="M75.0314 26.7355H50.3501C50.222 26.7365 50.0961 26.6993 49.9894 26.6286C49.8826 26.558 49.7992 26.4571 49.7501 26.3388C49.7 26.2192 49.6871 26.0875 49.7122 25.9603C49.7373 25.8331 49.7994 25.7163 49.8912 25.6248L74.5726 0.943452C74.6654 0.853637 74.7825 0.792544 74.9092 0.767522C75.0358 0.742501 75.1671 0.754614 75.2871 0.802413C75.407 0.852686 75.5093 0.937202 75.5815 1.04538C75.6536 1.15357 75.6922 1.28061 75.6925 1.41063V26.092C75.6914 26.1777 75.673 26.2623 75.6391 26.341C75.6053 26.4197 75.5559 26.4909 75.4945 26.5507C75.4331 26.6104 75.3606 26.6575 75.281 26.6892C75.2015 26.7209 75.1171 26.7366 75.0314 26.7355V26.7355ZM51.9451 25.4309H74.3789V2.99729L51.9451 25.4309Z" />
<path d="M75.0317 100.718C74.9449 100.718 74.8589 100.701 74.7786 100.668C74.6984 100.635 74.6253 100.586 74.5643 100.524L49.8829 75.8426C49.7911 75.7511 49.729 75.6343 49.7039 75.5071C49.6788 75.38 49.6917 75.2482 49.7418 75.1286C49.7895 75.0087 49.8725 74.9059 49.9793 74.8336C50.0862 74.7613 50.2118 74.7228 50.3409 74.7231H75.0222C75.1952 74.7231 75.3613 74.7919 75.4836 74.9142C75.606 75.0365 75.6747 75.2024 75.6747 75.3754V100.057C75.6745 100.187 75.6358 100.314 75.5637 100.422C75.4916 100.53 75.3892 100.615 75.2693 100.665C75.1931 100.695 75.1133 100.712 75.0317 100.718V100.718ZM51.9455 76.0366L74.3792 98.4613V76.063L51.9455 76.0366Z" />
<path d="M99.6859 76.0629H75.0046C74.8308 76.0606 74.6644 75.9899 74.5423 75.8662C74.4202 75.7425 74.3521 75.5756 74.3521 75.4018V50.7205C74.351 50.5924 74.3882 50.467 74.4588 50.3602C74.5295 50.2534 74.6307 50.1701 74.7489 50.121C74.868 50.0685 74.9999 50.0538 75.1277 50.079C75.2554 50.1043 75.3723 50.1682 75.4625 50.2621L100.144 74.9434C100.234 75.0362 100.295 75.1529 100.32 75.2796C100.345 75.4063 100.333 75.5375 100.285 75.6574C100.234 75.7747 100.15 75.875 100.044 75.9467C99.938 76.0185 99.8139 76.0588 99.6859 76.0629V76.0629ZM75.6829 74.7495H98.1167L75.6829 52.3247V74.7495Z" />
<path d="M75.0314 100.718C74.9445 100.716 74.8583 100.701 74.7757 100.674C74.6582 100.621 74.5577 100.536 74.4874 100.428C74.417 100.32 74.3796 100.194 74.3789 100.065V75.3841C74.3789 75.2111 74.4477 75.0452 74.57 74.9229C74.6923 74.8005 74.8584 74.7318 75.0314 74.7318H99.7128C99.8428 74.7321 99.9696 74.7707 100.078 74.8428C100.186 74.915 100.27 75.0174 100.32 75.1373C100.368 75.2572 100.381 75.3884 100.356 75.5151C100.331 75.6418 100.269 75.7585 100.179 75.8513L75.498 100.533C75.4374 100.595 75.365 100.643 75.2845 100.675C75.204 100.707 75.1179 100.721 75.0314 100.718V100.718ZM75.683 76.0364V98.4612L98.1168 76.0364H75.683Z" />
<path d="M75.0314 76.0629H50.3501C50.2213 76.0621 50.0952 76.0231 49.9885 75.9509C49.8818 75.8788 49.7988 75.7766 49.7501 75.6574C49.7 75.5379 49.6871 75.4061 49.7122 75.2789C49.7373 75.1518 49.7994 75.035 49.8912 74.9434L74.5726 50.2621C74.6635 50.1693 74.78 50.1061 74.9074 50.0809C75.0349 50.0558 75.1677 50.0697 75.2871 50.121C75.407 50.1688 75.5092 50.2515 75.5815 50.3583C75.6538 50.4652 75.6928 50.5914 75.6925 50.7205V75.4018C75.6925 75.5772 75.6228 75.7453 75.4988 75.8693C75.3748 75.9933 75.2067 76.0629 75.0314 76.0629ZM51.9451 74.7495H74.3789V52.3247L51.9451 74.7495Z" />
<path d="M25.7123 100.718C25.6252 100.72 25.5388 100.704 25.4583 100.67C25.3779 100.637 25.305 100.587 25.2449 100.524L0.563505 75.8426C0.469602 75.7524 0.40538 75.6356 0.380151 75.5078C0.354921 75.3801 0.369769 75.2477 0.422331 75.1286C0.470061 75.0087 0.553026 74.9059 0.659916 74.8336C0.766807 74.7613 0.89327 74.7228 1.02232 74.7231H25.7037C25.876 74.7254 26.0398 74.7949 26.1616 74.9167C26.2835 75.0386 26.353 75.2032 26.3553 75.3754V100.057C26.355 100.187 26.3164 100.314 26.2443 100.422C26.1721 100.53 26.0698 100.615 25.9499 100.665C25.8737 100.695 25.7938 100.712 25.7123 100.718V100.718ZM2.62602 76.0366L25.0598 98.4613V76.063L2.62602 76.0366Z" />
<path d="M50.3671 76.0629H25.6857C25.5119 76.0606 25.3464 75.9899 25.2243 75.8662C25.1022 75.7425 25.0332 75.5756 25.0332 75.4018V50.7205C25.0322 50.5924 25.0693 50.467 25.14 50.3602C25.2106 50.2534 25.3118 50.1701 25.4301 50.121C25.5492 50.0685 25.682 50.0538 25.8097 50.079C25.9374 50.1043 26.0544 50.1682 26.1445 50.2621L50.8259 74.9434C50.9157 75.0362 50.9765 75.1529 51.0015 75.2796C51.0265 75.4063 51.014 75.5375 50.9662 75.6574C50.9147 75.7747 50.8312 75.875 50.7252 75.9467C50.6191 76.0185 50.4951 76.0588 50.3671 76.0629V76.0629ZM26.3649 74.7495H48.7892L26.3649 52.3247V74.7495Z" />
<path d="M25.7126 100.718C25.6255 100.717 25.5392 100.702 25.4569 100.674C25.3393 100.621 25.2389 100.536 25.1685 100.428C25.0982 100.32 25.0607 100.194 25.0601 100.065V75.3841C25.0601 75.2111 25.1288 75.0452 25.2512 74.9229C25.3735 74.8005 25.5396 74.7318 25.7126 74.7318H50.3939C50.5239 74.7321 50.6507 74.7707 50.7589 74.8428C50.8671 74.915 50.9514 75.0174 51.0017 75.1373C51.0494 75.2572 51.062 75.3884 51.0369 75.5151C51.0119 75.6418 50.9512 75.7585 50.8613 75.8513L26.18 100.533C26.1195 100.595 26.0461 100.643 25.9656 100.675C25.8851 100.707 25.7991 100.721 25.7126 100.718V100.718ZM26.3651 76.0364V98.4612L48.7894 76.0364H26.3651Z" />
<path d="M25.7121 76.0629H1.03074C0.901957 76.062 0.775862 76.0231 0.669194 75.9509C0.562525 75.8788 0.480333 75.7766 0.431608 75.6574C0.379046 75.5383 0.364199 75.4059 0.389428 75.2782C0.414657 75.1505 0.478019 75.0336 0.571921 74.9434L25.2533 50.2621C25.3435 50.1682 25.4604 50.1043 25.5881 50.079C25.7159 50.0538 25.8486 50.0685 25.9678 50.121C26.0877 50.1688 26.1898 50.2515 26.2622 50.3583C26.3345 50.4652 26.3735 50.5914 26.3732 50.7205V75.4018C26.3732 75.5771 26.3035 75.7453 26.1795 75.8693C26.0555 75.9933 25.8874 76.0629 25.7121 76.0629ZM2.62583 74.7495H25.0596V52.3247L2.62583 74.7495Z" />
<path d="M50.3666 76.0628C50.1942 76.0613 50.0298 75.9916 49.9086 75.8689L25.2273 51.1876C25.1372 51.0968 25.0759 50.9815 25.0508 50.8562C25.0257 50.7308 25.0379 50.6008 25.0861 50.4824C25.1364 50.3625 25.2207 50.26 25.3288 50.1879C25.437 50.1158 25.5638 50.0772 25.6938 50.0769H50.3752C50.5482 50.0769 50.7142 50.1456 50.8366 50.268C50.9589 50.3903 51.0277 50.5562 51.0277 50.7292V75.4105C51.027 75.5393 50.9896 75.6652 50.9192 75.7731C50.8489 75.8809 50.7484 75.9662 50.6308 76.0188C50.5466 76.0514 50.4568 76.0664 50.3666 76.0628V76.0628ZM27.2812 51.3815L49.7141 73.8151V51.3991L27.2812 51.3815Z" />
<path d="M75.0311 51.3991H50.3498C50.1768 51.3991 50.0107 51.3304 49.8884 51.2081C49.766 51.0857 49.6973 50.9198 49.6973 50.7468V26.0655C49.697 25.9364 49.7351 25.8102 49.8075 25.7034C49.8798 25.5965 49.9828 25.5138 50.1027 25.466C50.2227 25.4182 50.3539 25.4061 50.4806 25.4312C50.6073 25.4562 50.7236 25.5173 50.8163 25.6071L75.4977 50.2884C75.5898 50.3779 75.6533 50.4932 75.6785 50.6191C75.7036 50.745 75.6894 50.8756 75.6389 50.9936C75.5906 51.1149 75.5065 51.2187 75.3978 51.2911C75.2892 51.3635 75.1617 51.4012 75.0311 51.3991V51.3991ZM51.0195 50.0945H73.4532L51.0195 27.6609V50.0945Z" />
<path d="M50.3669 76.0629C50.2818 76.0622 50.1976 76.0442 50.1198 76.01C49.9999 75.9597 49.8975 75.8752 49.8254 75.767C49.7533 75.6588 49.7146 75.5318 49.7144 75.4018V50.7204C49.7144 50.6348 49.7315 50.5499 49.7643 50.4708C49.7971 50.3917 49.8449 50.3197 49.9055 50.2592C49.966 50.1986 50.0381 50.1506 50.1172 50.1178C50.1964 50.085 50.2812 50.0681 50.3669 50.0681H75.0482C75.1773 50.0678 75.3037 50.1063 75.4106 50.1786C75.5175 50.2509 75.5996 50.3537 75.6473 50.4736C75.6979 50.5916 75.7121 50.7222 75.6869 50.8481C75.6618 50.974 75.5991 51.0893 75.507 51.1788L50.8257 75.8601C50.7033 75.9823 50.5395 76.0545 50.3669 76.0629ZM51.0194 51.3815V73.8151L73.4531 51.3815H51.0194Z" />
<path d="M50.3675 51.3991H25.6862C25.5561 51.3988 25.4294 51.3602 25.3212 51.2881C25.213 51.216 25.1287 51.1135 25.0784 50.9936C25.0302 50.8752 25.0172 50.7452 25.0423 50.6198C25.0673 50.4945 25.1287 50.3792 25.2187 50.2884L49.9001 25.6071C49.9929 25.5173 50.11 25.4562 50.2367 25.4312C50.3633 25.4061 50.4946 25.4182 50.6146 25.466C50.7328 25.5152 50.834 25.5984 50.9047 25.7052C50.9753 25.812 51.0124 25.9374 51.0114 26.0655V50.7468C51.0114 50.9183 50.9433 51.0829 50.8229 51.205C50.7025 51.327 50.539 51.3968 50.3675 51.3991V51.3991ZM27.2821 50.0945H49.715V27.6609L27.2821 50.0945Z" />
<path d="M99.6861 76.0628C99.5136 76.0613 99.3484 75.9916 99.2272 75.8689L74.5459 51.1876C74.4558 51.0968 74.3945 50.9815 74.3694 50.8562C74.3443 50.7308 74.3574 50.6008 74.4056 50.4824C74.4558 50.3625 74.5401 50.26 74.6483 50.1879C74.7565 50.1158 74.8833 50.0772 75.0133 50.0769H99.6947C99.8677 50.0769 100.034 50.1456 100.156 50.268C100.278 50.3903 100.347 50.5562 100.347 50.7292V75.4105C100.346 75.5393 100.309 75.6652 100.239 75.7731C100.168 75.8809 100.068 75.9662 99.9503 76.0188C99.8663 76.0521 99.7763 76.0671 99.6861 76.0628V76.0628ZM76.6093 51.3815L99.0336 73.8151V51.3991L76.6093 51.3815Z" />
<path d="M99.6856 51.3991H75.0043C74.8742 51.3988 74.7474 51.3602 74.6393 51.2881C74.5311 51.216 74.4459 51.1135 74.3957 50.9936C74.3475 50.8752 74.3353 50.7452 74.3604 50.6198C74.3854 50.4945 74.4468 50.3792 74.5368 50.2884L99.2182 25.6071C99.3109 25.5173 99.4281 25.4562 99.5548 25.4312C99.6814 25.4061 99.8127 25.4182 99.9327 25.466C100.051 25.5152 100.151 25.5984 100.222 25.7052C100.293 25.812 100.33 25.9374 100.329 26.0655V50.7468C100.329 50.9183 100.261 51.0829 100.141 51.205C100.021 51.327 99.8571 51.3968 99.6856 51.3991V51.3991ZM76.6088 50.0945H99.0331V27.6609L76.6088 50.0945Z" />
<path d="M25.7123 51.3991H1.03092C0.857921 51.3991 0.69185 51.3304 0.569521 51.2081C0.447193 51.0858 0.37842 50.9198 0.37842 50.7468V26.0655C0.378108 25.9364 0.416296 25.8103 0.488604 25.7034C0.560913 25.5965 0.663965 25.5138 0.783865 25.4661C0.902293 25.4179 1.03208 25.4056 1.15746 25.4306C1.28283 25.4557 1.39809 25.5171 1.48887 25.6071L26.1702 50.2885C26.2603 50.3793 26.3216 50.4945 26.3467 50.6199C26.3718 50.7453 26.3596 50.8752 26.3114 50.9937C26.2627 51.1129 26.1796 51.215 26.073 51.2871C25.9663 51.3593 25.8411 51.3983 25.7123 51.3991V51.3991ZM1.70064 50.0945H24.1344L1.70064 27.661V50.0945Z" />
<path d="M1.04812 76.0629C0.963002 76.0632 0.879428 76.0452 0.801929 76.01C0.682023 75.9597 0.579651 75.8752 0.50753 75.767C0.435408 75.6588 0.396773 75.5318 0.396484 75.4018V50.7204C0.396484 50.6348 0.41277 50.5499 0.445551 50.4708C0.478332 50.3916 0.527015 50.3197 0.587586 50.2592C0.648157 50.1986 0.719346 50.1506 0.798486 50.1178C0.877626 50.085 0.962463 50.0681 1.04812 50.0681H25.7295C25.8583 50.069 25.9844 50.108 26.091 50.1801C26.1977 50.2523 26.2807 50.3544 26.3295 50.4736C26.3777 50.592 26.3898 50.722 26.3648 50.8474C26.3397 50.9728 26.2783 51.088 26.1883 51.1788L1.50694 75.8601C1.44768 75.9225 1.37643 75.9725 1.29776 76.0073C1.21909 76.0421 1.13412 76.061 1.04812 76.0629V76.0629ZM1.70062 51.3815V73.8151L24.1344 51.3815H1.70062Z" />
<path d="M25.7123 100.718H1.03092C0.857919 100.718 0.691848 100.649 0.569519 100.527C0.447191 100.404 0.378418 100.239 0.378418 100.066V75.3842C0.380423 75.2557 0.420031 75.1306 0.492046 75.0241C0.564061 74.9176 0.665326 74.8345 0.783863 74.7848C0.902291 74.7366 1.03208 74.7243 1.15746 74.7494C1.28283 74.7744 1.39809 74.8358 1.48887 74.9258L26.1702 99.6072C26.2603 99.698 26.3216 99.8132 26.3467 99.9386C26.3718 100.064 26.3596 100.194 26.3114 100.312C26.2627 100.432 26.1796 100.534 26.073 100.606C25.9663 100.678 25.8411 100.717 25.7123 100.718V100.718ZM1.70063 99.4133H24.1344L1.70063 76.9797V99.4133Z" />
<path d="M75.0311 100.718H50.3498C50.1768 100.718 50.0107 100.649 49.8884 100.527C49.766 100.404 49.6973 100.239 49.6973 100.066V75.3842C49.6993 75.2557 49.7389 75.1305 49.8109 75.0241C49.8829 74.9176 49.9842 74.8345 50.1027 74.7848C50.2227 74.737 50.3539 74.7249 50.4806 74.7499C50.6073 74.7749 50.7236 74.836 50.8163 74.9258L75.4977 99.6072C75.5898 99.6966 75.6533 99.812 75.6785 99.9379C75.7036 100.064 75.6894 100.194 75.6389 100.312C75.5906 100.434 75.5065 100.537 75.3978 100.61C75.2892 100.682 75.1617 100.72 75.0311 100.718ZM51.0195 99.4132H73.4532L51.0195 76.9797V99.4132Z" />
<path d="M50.3675 100.718H25.6862C25.5561 100.718 25.4294 100.679 25.3212 100.607C25.213 100.535 25.1287 100.432 25.0784 100.312C25.0302 100.194 25.0172 100.064 25.0423 99.9386C25.0673 99.8132 25.1287 99.6979 25.2187 99.6072L49.9001 74.9258C49.9929 74.836 50.11 74.7749 50.2367 74.7499C50.3633 74.7249 50.4946 74.737 50.6146 74.7848C50.7315 74.8358 50.8308 74.9195 50.9012 75.0259C50.9716 75.1322 51.0101 75.2567 51.0114 75.3842V100.066C51.0114 100.237 50.9433 100.402 50.8229 100.524C50.7025 100.646 50.539 100.716 50.3675 100.718V100.718ZM27.2821 99.4132H49.715V76.9797L27.2821 99.4132Z" />
<path d="M99.6856 100.718H75.0043C74.8742 100.718 74.7474 100.679 74.6393 100.607C74.5311 100.535 74.4459 100.432 74.3957 100.312C74.3475 100.194 74.3353 100.064 74.3604 99.9386C74.3854 99.8132 74.4468 99.6979 74.5368 99.6072L99.2182 74.9258C99.3109 74.836 99.4281 74.7749 99.5548 74.7499C99.6814 74.7249 99.8127 74.737 99.9327 74.7848C100.05 74.8358 100.149 74.9195 100.219 75.0259C100.29 75.1322 100.327 75.2567 100.329 75.3842V100.066C100.329 100.237 100.261 100.402 100.141 100.524C100.021 100.646 99.8571 100.716 99.6856 100.718V100.718ZM76.6088 99.4132H99.0331V76.9797L76.6088 99.4132Z" />
<path d="M50.3665 26.7355C50.2816 26.7364 50.1972 26.7205 50.1185 26.6887C50.0399 26.6569 49.9689 26.6099 49.9085 26.5504L25.2271 1.86902C25.1373 1.77626 25.0757 1.65951 25.0507 1.53284C25.0257 1.40617 25.0382 1.27497 25.086 1.15502C25.1385 1.03744 25.2234 0.937491 25.3313 0.867141C25.4392 0.796791 25.5649 0.759024 25.6937 0.758362H50.3751C50.5481 0.758362 50.7141 0.827081 50.8365 0.949409C50.9588 1.07174 51.0276 1.23765 51.0276 1.41065V26.092C51.0269 26.2208 50.9895 26.3467 50.9191 26.4545C50.8488 26.5624 50.7483 26.6477 50.6307 26.7002C50.5449 26.7253 50.4559 26.7372 50.3665 26.7355V26.7355ZM27.2811 2.05413L49.714 24.4877V2.08058L27.2811 2.05413Z" />
<path d="M50.3669 26.7355C50.2828 26.7337 50.1993 26.7188 50.1198 26.6914C49.9999 26.6411 49.8975 26.5566 49.8254 26.4484C49.7533 26.3402 49.7146 26.2132 49.7144 26.0832V1.40182C49.7144 1.22882 49.7831 1.06292 49.9055 0.940587C50.0278 0.818258 50.1939 0.749532 50.3669 0.749532H75.0482C75.1763 0.748511 75.3021 0.785712 75.4089 0.856374C75.5157 0.927037 75.5982 1.02794 75.6473 1.14619C75.6974 1.26575 75.7112 1.39752 75.6861 1.52469C75.661 1.65186 75.5988 1.76867 75.507 1.8602L50.8257 26.5415C50.7029 26.6619 50.5387 26.7312 50.3669 26.7355V26.7355ZM51.0194 2.05411V24.4877L73.4531 2.05411H51.0194Z" />
<path d="M99.6853 26.7355C99.6005 26.7364 99.5161 26.7205 99.4374 26.6887C99.3587 26.6569 99.2869 26.6099 99.2265 26.5504L74.5451 1.86902C74.4553 1.77626 74.3945 1.65951 74.3695 1.53284C74.3445 1.40617 74.357 1.27497 74.4048 1.15502C74.4573 1.03744 74.5423 0.937491 74.6502 0.867141C74.758 0.796791 74.8838 0.759024 75.0126 0.758362H99.6939C99.8669 0.758362 100.033 0.827081 100.155 0.949409C100.278 1.07174 100.346 1.23765 100.346 1.41065V26.092C100.346 26.2208 100.308 26.3467 100.238 26.4545C100.168 26.5624 100.067 26.6477 99.9496 26.7002C99.8639 26.7263 99.7748 26.7383 99.6853 26.7355V26.7355ZM76.6085 2.05413L99.0328 24.4877V2.08058L76.6085 2.05413Z" />
</svg>
