<svg enable-background="new 0 0 100 100" viewBox="0 0 100 100" xmlns="http://www.w3.org/2000/svg"><path d="m25.3 50.7c-.2 0-.3-.1-.5-.2l-24.6-24.7c-.1-.1-.2-.2-.2-.3s0-.3 0-.4.1-.2.2-.3.2-.1.4-.1h24.7c.2 0 .3.1.5.2.1.1.2.3.2.5v24.6c0 .1 0 .3-.1.4s-.2.2-.3.2-.2.1-.3.1zm-23-24.7 22.4 22.4v-22.4z"/><path d="m50 26h-24.7c-.1 0-.2 0-.2 0-.1 0-.2-.1-.2-.1-.1-.1-.1-.1-.1-.2s0-.2 0-.2v-24.8c0-.1 0-.3.1-.4s.2-.2.3-.2.3-.1.4 0c.1 0 .2.1.3.2l24.7 24.7c.1.1.2.2.2.3v.4c-.1.1-.1.2-.2.3-.3 0-.5 0-.6 0zm-24-1.3h22.4l-22.4-22.4z"/><path d="m25.3 50.7c-.1 0-.2 0-.3-.1-.1 0-.2-.1-.3-.2s-.1-.2-.1-.4v-24.7c0-.2.1-.3.2-.5.1-.1.3-.2.5-.2h24.7c.1 0 .3 0 .4.1s.2.2.2.3.1.3 0 .4c0 .1-.1.2-.2.3l-24.6 24.8c-.1.1-.1.1-.2.1-.1.1-.2.1-.3.1zm.7-24.7v22.4l22.4-22.4z"/><path d="m25.3 26h-24.6c-.1 0-.3 0-.4-.1s-.2-.2-.2-.3c-.1-.1-.1-.3-.1-.4s.1-.2.2-.3l24.7-24.7c.1-.1.2-.2.3-.2h.4c.1.1.2.1.3.2.1.2.1.3.1.5v24.7c0 .1 0 .2-.1.2 0 .1-.1.1-.1.2-.1.1-.1.1-.2.1-.1.1-.2.1-.3.1zm-23-1.3h22.4v-22.4z"/><path d="m.7 26c-.1 0-.2 0-.2 0-.1-.1-.2-.1-.3-.2-.1-.2-.2-.3-.2-.5v-24.6c0-.2.1-.3.2-.5.1-.1.3-.2.5-.2h24.7c.1 0 .3 0 .4.1s.2.2.2.3.1.3 0 .4c0 .1-.1.2-.2.3l-24.7 24.7c-.1.1-.1.1-.2.1 0 .1-.1.1-.2.1zm.6-24.7v22.4l22.5-22.4z"/><path d="m74.7 50.7c-.2 0-.3-.1-.5-.2l-24.7-24.7c-.1-.1-.2-.2-.2-.3s0-.3 0-.4.1-.2.2-.3.2-.1.4-.1h24.7.2c.1 0 .2.1.2.1.1.1.1.1.1.2v.2 24.8c0 .1 0 .3-.1.4s-.2.2-.3.2c.1 0 0 .1 0 .1zm-23.1-24.7 22.4 22.4v-22.4z"/><path d="m99.3 26h-24.7c-.1 0-.2 0-.2 0-.1 0-.2-.1-.2-.1-.1-.1-.1-.1-.1-.2s0-.2 0-.2v-24.8c0-.1 0-.3.1-.4s.2-.2.3-.2.3-.1.4 0c.1 0 .2.1.3.2l24.7 24.7c.1.1.2.2.2.3s0 .3 0 .4c-.1.1-.1.2-.2.3-.3 0-.5 0-.6 0zm-24-1.3h22.4l-22.4-22.4z"/><path d="m74.7 50.7c-.1 0-.2 0-.3-.1-.1 0-.2-.1-.3-.2s-.1-.3-.1-.4v-24.7c0-.2.1-.3.2-.5.1-.1.3-.2.5-.2h24.7c.1 0 .3 0 .4.1s.2.2.2.3.1.3 0 .4c0 .1-.1.2-.2.3l-24.7 24.8c-.1.1-.1.1-.2.1-.1.1-.2.1-.2.1zm.6-24.7v22.4l22.4-22.4z"/><path d="m74.7 26h-24.7c-.1 0-.3 0-.4-.1s-.2-.2-.2-.3c-.1-.1-.1-.3 0-.4s.1-.2.2-.3l24.6-24.7c.1-.1.2-.2.3-.2h.4c.1.1.2.1.3.2s.1.2.1.4v24.7c0 .1 0 .2-.1.2 0 .1-.1.1-.1.2-.1.1-.1.1-.2.1-.1.2-.2.2-.2.2zm-23.1-1.3h22.4v-22.4z"/><path d="m74.7 100c-.1 0-.2 0-.3-.1-.1 0-.2-.1-.2-.1l-24.7-24.7c-.1-.1-.2-.2-.2-.3s0-.3 0-.4.1-.2.2-.3c.2-.1.3-.1.5-.1h24.7c.2 0 .3.1.5.2.1.1.2.3.2.5v24.7c0 .1 0 .3-.1.4s-.2.2-.3.2c-.2 0-.3 0-.3 0zm-23.1-24.7 22.4 22.4v-22.4z"/><path d="m99.3 75.3h-24.7c-.2 0-.3-.1-.5-.2 0-.1-.1-.2-.1-.4v-24.7c0-.1 0-.3.1-.4s.2-.2.3-.2c.1-.1.3-.1.4 0 .1 0 .2.1.3.2l24.7 24.7c.1.1.2.2.2.3v.4c-.1.1-.1.2-.2.3-.2 0-.4 0-.5 0zm-24-1.3h22.4l-22.4-22.4z"/><path d="m74.7 100c-.1 0-.2 0-.3 0-.1-.1-.2-.1-.3-.2-.1-.2-.1-.3-.1-.5v-24.6c0-.2.1-.3.2-.5.1-.1.3-.2.5-.2h24.7c.1 0 .3 0 .4.1s.2.2.2.3.1.3 0 .4c0 .1-.1.2-.2.3l-24.7 24.7c-.1.1-.1.1-.2.1-.1.1-.2.1-.2.1zm.6-24.7v22.4l22.4-22.4z"/><path d="m74.7 75.3h-24.7c-.1 0-.3 0-.4-.1s-.2-.2-.2-.3c-.1-.1-.1-.3 0-.4 0-.1.1-.2.2-.3l24.7-24.7c.1-.1.2-.2.3-.2h.4c.1 0 .2.1.3.2s.1.2.1.4v24.7c0 .2-.1.3-.2.5-.2.2-.4.2-.5.2zm-23.1-1.3h22.4v-22.4z"/><path d="m25.3 100c-.1 0-.2 0-.3 0s-.2-.1-.2-.1l-24.6-24.8c-.1-.1-.2-.2-.2-.3s0-.3 0-.4.1-.2.2-.3c.2-.1.3-.1.5-.1h24.7c.2 0 .3.1.5.2.1.1.2.3.2.5v24.7c0 .1 0 .3-.1.4s-.2.2-.3.2c-.2 0-.3 0-.4 0zm-23-24.7 22.4 22.4v-22.4z"/><path d="m50 75.3h-24.7c-.2 0-.3-.1-.5-.2-.1-.1-.2-.3-.2-.5v-24.6c0-.1 0-.3.1-.4s.2-.2.3-.2c.1-.1.3-.1.4 0 .1 0 .2.1.3.2l24.7 24.7c.1.1.2.2.2.3v.4c-.1.1-.1.2-.2.3-.1 0-.3 0-.4 0zm-24-1.3h22.4l-22.4-22.4z"/><path d="m25.3 100c-.1 0-.2 0-.3 0-.1-.1-.2-.1-.3-.2s-.1-.2-.1-.4v-24.7c0-.2.1-.3.2-.5.1-.1.3-.2.5-.2h24.7c.1 0 .3 0 .4.1s.2.2.2.3.1.3 0 .4c0 .1-.1.2-.2.3l-24.6 24.7c-.1.1-.1.1-.2.1-.1.1-.2.1-.3.1zm.7-24.7v22.4l22.4-22.4z"/><path d="m25.3 75.3h-24.6c-.1 0-.3 0-.4-.1s-.2-.2-.2-.3c-.1-.1-.1-.2-.1-.3s.1-.2.2-.3l24.7-24.7c.1-.1.2-.2.3-.2h.4c.1 0 .2.1.3.2s.1.3.1.4v24.7c0 .2-.1.3-.2.5-.1.1-.3.1-.5.1zm-23-1.3h22.4v-22.4z"/><path d="m50 75.3c-.2 0-.3-.1-.5-.2l-24.6-24.6c-.1-.1-.2-.2-.2-.3s0-.3 0-.4c.1-.1.1-.2.2-.3s.2-.1.4-.1h24.7c.2 0 .3.1.5.2.1.1.2.3.2.5v24.7c0 .1 0 .3-.1.4s-.2.2-.3.2c-.1-.1-.2-.1-.3-.1zm-23.1-24.7 22.4 22.4v-22.3z"/><path d="m74.7 50.7h-24.7c-.2 0-.3-.1-.5-.2-.1-.1-.2-.3-.2-.5v-24.7c0-.1 0-.3.1-.4s.2-.2.3-.2.3-.1.4 0c.1 0 .2.1.3.2l24.7 24.7c.1.1.2.2.2.3v.4c0 .1-.1.2-.2.3-.2 0-.3.1-.4.1zm-24-1.3h22.4l-22.4-22.5z"/><path d="m50 75.3c-.1 0-.2 0-.2-.1-.1-.1-.2-.1-.3-.2s-.1-.2-.1-.4v-24.6c0-.1 0-.2 0-.2 0-.1.1-.2.1-.2.1-.1.1-.1.2-.1h.2 24.7c.1 0 .3 0 .4.1s.2.2.2.3c.1.1.1.2 0 .4 0 .1-.1.2-.2.3l-24.5 24.5c-.2.2-.3.2-.5.2zm.7-24.7v22.4l22.4-22.4z"/><path d="m50 50.7h-24.7c-.1 0-.3 0-.4-.1s-.2-.2-.2-.3-.1-.2 0-.4c0-.1.1-.2.2-.3l24.7-24.7c.1-.1.2-.2.3-.2h.4c.1 0 .2.1.3.2s.1.2.1.4v24.7c0 .2-.1.3-.2.5-.2.1-.3.2-.5.2zm-23.1-1.3h22.4v-22.5z"/><path d="m99.3 75.3c-.2 0-.3-.1-.5-.2l-24.6-24.6c-.1-.1-.2-.2-.2-.3s0-.3 0-.4c.1-.1.1-.2.2-.3s.2-.1.4-.1h24.7c.2 0 .3.1.5.2.1.1.2.3.2.5v24.7c0 .1 0 .3-.1.4s-.2.2-.3.2c-.1-.1-.2-.1-.3-.1zm-23.1-24.7 22.4 22.4v-22.3z"/><path d="m99.3 50.7h-24.7c-.1 0-.3 0-.4-.1s-.2-.2-.2-.3-.1-.2 0-.4c0-.1.1-.2.2-.3l24.7-24.7c.1-.1.2-.2.3-.2h.4c.1 0 .2.1.3.2s.1.2.1.4v24.7c0 .2-.1.3-.2.5-.1.1-.3.2-.5.2zm-23.1-1.3h22.4v-22.5z"/><path d="m25.3 50.7h-24.6c-.2 0-.3-.1-.5-.2-.1-.1-.2-.3-.2-.5v-24.7c0-.1 0-.3.1-.4s.2-.2.3-.2.2-.1.4 0c.1 0 .2.1.3.2l24.7 24.7c.1.1.2.2.2.3v.4c0 .1-.1.2-.2.3-.2 0-.3.1-.5.1zm-24-1.3h22.4l-22.4-22.5z"/><path d="m.7 75.3c-.1 0-.2 0-.2-.1-.1-.1-.2-.1-.3-.2s-.2-.2-.2-.3v-24.7c0-.1 0-.2 0-.2 0-.1.1-.2.1-.2.1-.1.1-.1.2-.1h.2 24.7c.1 0 .3 0 .4.1s.2.2.2.3.1.2 0 .4c0 .1-.1.2-.2.3l-24.5 24.5c-.1.1-.1.1-.2.1s-.1.1-.2.1zm.6-24.7v22.4l22.4-22.4z"/><path d="m25.3 100h-24.6c-.2 0-.3-.1-.5-.2-.1-.1-.2-.3-.2-.5v-24.6c0-.1 0-.3.1-.4s.2-.2.3-.2.2-.1.4 0c.1 0 .2.1.3.2l24.7 24.7c.1.1.2.2.2.3v.4c0 .1-.1.2-.2.3-.2 0-.3 0-.5 0zm-24-1.3h22.4l-22.4-22.4z"/><path d="m74.7 100h-24.7c-.2 0-.3-.1-.5-.2-.1-.1-.2-.3-.2-.5v-24.6c0-.1 0-.3.1-.4s.2-.2.3-.2.3-.1.4 0c.1 0 .2.1.3.2l24.7 24.7c.1.1.2.2.2.3v.4c0 .1-.1.2-.2.3-.2 0-.3 0-.4 0zm-24-1.3h22.4l-22.4-22.4z"/><path d="m50 100h-24.7c-.1 0-.3 0-.4-.1s-.2-.2-.2-.3-.1-.2 0-.4c0-.1.1-.2.2-.3l24.7-24.7c.1-.1.2-.2.3-.2h.4c.1.1.2.1.3.2s.1.2.1.4v24.7c0 .2-.1.3-.2.5s-.3.2-.5.2zm-23.1-1.3h22.4v-22.4z"/><path d="m99.3 100h-24.7c-.1 0-.3 0-.4-.1s-.2-.2-.2-.3-.1-.2 0-.4c0-.1.1-.2.2-.3l24.7-24.7c.1-.1.2-.2.3-.2h.4c.1.1.2.1.3.2s.1.2.1.4v24.7c0 .2-.1.3-.2.5-.1.1-.3.2-.5.2zm-23.1-1.3h22.4v-22.4z"/><path d="m50 26c-.1 0-.2 0-.2 0-.1 0-.1-.1-.2-.1l-24.7-24.8c-.1-.1-.2-.2-.2-.3s0-.3 0-.4c.1-.1.1-.2.2-.3.2 0 .3-.1.4-.1h24.7c.2 0 .3.1.5.2.1.1.2.3.2.5v24.7c0 .1 0 .3-.1.4s-.2.2-.3.2-.2 0-.3 0zm-23.1-24.7 22.4 22.4v-22.4z"/><path d="m50 26c-.1 0-.2 0-.2 0-.1-.1-.2-.1-.3-.2s-.1-.2-.1-.4v-24.7c0-.2.1-.3.2-.5.1-.1.2-.2.4-.2h24.7c.1 0 .3 0 .4.1s.2.2.2.3c.1.1.1.3 0 .4 0 .1-.1.2-.2.3l-24.6 24.7c-.2.1-.3.2-.5.2zm.7-24.7v22.4l22.4-22.4z"/><path d="m99.3 26c-.1 0-.2 0-.2 0s-.2-.1-.2-.1l-24.7-24.8c-.1-.1-.2-.2-.2-.3s0-.3 0-.4c.1-.1.1-.2.2-.3.2 0 .3-.1.4-.1h24.7c.2 0 .3.1.5.2.1.1.2.3.2.5v24.7c0 .1 0 .3-.1.4s-.2.2-.3.2-.2 0-.3 0zm-23.1-24.7 22.4 22.4v-22.4z"/></svg>