<svg enable-background="new 0 0 100 100" viewBox="0 0 100 100" xmlns="http://www.w3.org/2000/svg"><path d="m12.5 0-12.5 12.5v-12.5z"/><path d="m25 0-25 25v12.5l37.5-37.5z"/><path d="m0 50 50-50v12.5l-50 50z"/><path d="m0 75 50-50v12.5l-50 50z"/><path d="m0 100 50-50v12.5l-37.5 37.5z"/><path d="m25 100 25-25v12.5l-12.5 12.5z"/><path d="m87.5 0 12.5 12.5v-12.5z"/><path d="m75 0 25 25v12.5l-37.5-37.5z"/><path d="m100 50-50-50v12.5l50 50z"/><path d="m100 75-50-50v12.5l50 50z"/><path d="m100 100-50-50v12.5l37.5 37.5z"/><path d="m75 100-25-25v12.5l12.5 12.5z"/></svg>