<svg enable-background="new 0 0 100 100" viewBox="0 0 100 100" xmlns="http://www.w3.org/2000/svg"><path d="m0 87.5 12.5 12.5h-12.5z"/><path d="m0 75 25 25h12.5l-37.5-37.5z"/><path d="m50 100-50-50h12.5l50 50z"/><path d="m75 100-50-50h12.5l50 50z"/><path d="m100 100-50-50h12.5l37.5 37.5z"/><path d="m100 75-25-25h12.5l12.5 12.5z"/><path d="m0 37.5 12.5 12.5h-12.5z"/><path d="m0 25 25 25h12.5l-37.5-37.5z"/><path d="m50 50-50-50h12.5l50 50z"/><path d="m75 50-50-50h12.5l50 50z"/><path d="m100 50-50-50h12.5l37.5 37.5z"/><path d="m100 25-25-25h12.5l12.5 12.5z"/></svg>