<?xml version="1.0" encoding="utf-8"?>
<!-- Generator: Adobe Illustrator 25.4.0, SVG Export Plug-In . SVG Version: 6.00 Build 0)  -->
<svg version="1.1" id="Ebene_1" xmlns="http://www.w3.org/2000/svg" xmlns:xlink="http://www.w3.org/1999/xlink" x="0px" y="0px"
	 viewBox="0 0 113.4 113.4" style="enable-background:new 0 0 113.4 113.4;" xml:space="preserve">
<style type="text/css">
	.st0{fill:#1E1E1C;}
	.st1{fill:#6702FF;}
	.st2{fill:#AAD9DE;}
	.st3{fill:#1D1D1B;}
	.st4{fill:#FFFFFF;}
	.st5{fill:none;stroke:#000000;stroke-width:5.1821;stroke-miterlimit:10;}
	.st6{fill:#FFFFFF;stroke:#FFFFFF;stroke-width:5.1821;stroke-miterlimit:10;}
	.st7{fill:#020206;}
	.st8{fill:#E20613;}
	.st9{fill:#BDFF9A;}
	.st10{fill:#FF56FF;}
	.st11{fill:#941B80;}
	.st12{fill:#00A099;}
	.st13{fill:#DDDB00;}
	.st14{fill:#35A8E0;}
	.st15{fill:#FFFFFF;stroke:#E20613;stroke-width:10;stroke-miterlimit:10;}
	.st16{fill:#575756;}
	.st17{fill:#868686;}
	.st18{fill:#E9E9EB;}
</style>
<g>
	<g>
		<rect x="2.8" y="7.1" width="56.7" height="7.1"/>
		<rect x="2.8" y="21.3" width="56.7" height="7.1"/>
		<rect x="2.8" y="35.4" width="56.7" height="7.1"/>
		<rect x="2.8" y="49.6" width="56.7" height="7.1"/>
		<rect x="2.8" y="63.8" width="56.7" height="7.1"/>
		<rect x="2.8" y="78" width="56.7" height="7.1"/>
		<rect x="2.8" y="92.1" width="56.7" height="7.1"/>
		<rect x="2.8" y="106.3" width="56.7" height="7.1"/>
	</g>
	<g>
		<rect x="59.5" y="0" width="56.7" height="7.1"/>
		<rect x="59.5" y="14.2" width="56.7" height="7.1"/>
		<rect x="59.5" y="28.3" width="56.7" height="7.1"/>
		<rect x="59.5" y="42.5" width="56.7" height="7.1"/>
		<rect x="59.5" y="56.7" width="56.7" height="7.1"/>
		<rect x="59.5" y="70.9" width="56.7" height="7.1"/>
		<rect x="59.5" y="85" width="56.7" height="7.1"/>
		<rect x="59.5" y="99.2" width="56.7" height="7.1"/>
	</g>
</g>
</svg>
