<svg width="100" height="100" viewBox="0 0 100 100" fill="none" xmlns="http://www.w3.org/2000/svg">
<path d="M0.370117 87.8936L12.8668 100.39H0.370117V87.8936Z" fill="black"/>
<path d="M0.370117 75.3526L25.3721 100.355H37.8687L0.370117 62.856V75.3526Z" fill="black"/>
<path d="M50.3654 100.39L0.370117 50.3945H12.8668L62.8715 100.39H50.3654Z" fill="black"/>
<path d="M75.3682 100.39L25.3721 50.3945H37.8687L87.8649 100.39H75.3682Z" fill="black"/>
<path d="M100.37 100.39L50.3652 50.3945H62.8714L100.37 87.8936V100.39Z" fill="black"/>
<path d="M100.37 75.3527L75.3682 50.3591H87.8648L100.37 62.856V75.3527Z" fill="black"/>
<path d="M0.370117 37.8889L12.8668 50.3944H0.370117V37.8889Z" fill="black"/>
<path d="M0.370117 25.3921L25.3721 50.3943H37.8687L0.370117 12.8953V25.3921Z" fill="black"/>
<path d="M50.3654 50.3944L0.370117 0.389893H12.8668L62.8715 50.3944H50.3654Z" fill="black"/>
<path d="M75.3682 50.3944L25.3721 0.389893H37.8687L87.8649 50.3944H75.3682Z" fill="black"/>
<path d="M100.37 50.3944L50.3652 0.389893H62.8714L100.37 37.8889V50.3944Z" fill="black"/>
<path d="M100.37 25.3923L75.3682 0.389893H87.8648L100.37 12.8954V25.3923Z" fill="black"/>
</svg>
