<svg width="101" height="101" viewBox="0 0 101 101" fill="none" xmlns="http://www.w3.org/2000/svg">
<path d="M50.9155 6.96289H0.919922V13.2155H50.9155V6.96289Z" fill="black"/>
<path d="M50.9155 19.4595H0.919922V25.7123H50.9155V19.4595Z" fill="black"/>
<path d="M50.9155 31.9648H0.919922V38.2177H50.9155V31.9648Z" fill="black"/>
<path d="M50.9155 44.4617H0.919922V50.7143H50.9155V44.4617Z" fill="black"/>
<path d="M50.9155 56.9583H0.919922V63.2111H50.9155V56.9583Z" fill="black"/>
<path d="M50.9155 69.4639H0.919922V75.7167H50.9155V69.4639Z" fill="black"/>
<path d="M50.9155 81.9607H0.919922V88.2133H50.9155V81.9607Z" fill="black"/>
<path d="M50.9155 94.4573H0.919922V100.71H50.9155V94.4573Z" fill="black"/>
<path d="M100.92 0.709961H50.9155V6.9628H100.92V0.709961Z" fill="black"/>
<path d="M100.92 13.2153H50.9155V19.4682H100.92V13.2153Z" fill="black"/>
<path d="M100.92 25.7122H50.9155V31.9648H100.92V25.7122Z" fill="black"/>
<path d="M100.92 38.209H50.9155V44.4618H100.92V38.209Z" fill="black"/>
<path d="M100.92 50.7144H50.9155V56.9672H100.92V50.7144Z" fill="black"/>
<path d="M100.92 63.2112H50.9155V69.4638H100.92V63.2112Z" fill="black"/>
<path d="M100.92 75.7078H50.9155V81.9606H100.92V75.7078Z" fill="black"/>
<path d="M100.92 88.2134H50.9155V94.4662H100.92V88.2134Z" fill="black"/>
</svg>
