<svg enable-background="new 0 0 100 100" viewBox="0 0 100 100" xmlns="http://www.w3.org/2000/svg"><path d="m50 6.3h-50v6.3h50z"/><path d="m50 18.7h-50v6.3h50z"/><path d="m50 31.3h-50v6.3h50z"/><path d="m50 43.8h-50v6.2h50z"/><path d="m50 56.2h-50v6.3h50z"/><path d="m50 68.8h-50v6.2h50z"/><path d="m50 81.3h-50v6.3h50z"/><path d="m50 93.7h-50v6.3h50z"/><path d="m100 0h-50v6.3h50z"/><path d="m100 12.5h-50v6.3h50z"/><path d="m100 25h-50v6.3h50z"/><path d="m100 37.5h-50v6.3h50z"/><path d="m100 50h-50v6.3h50z"/><path d="m100 62.5h-50v6.3h50z"/><path d="m100 75h-50v6.3h50z"/><path d="m100 87.5h-50v6.3h50z"/></svg>