<svg width="100" height="100" viewBox="0 0 100 100" fill="none" xmlns="http://www.w3.org/2000/svg">
<path d="M6.40283 50.7087L6.40283 100.7H12.6554L12.6554 50.7087H6.40283Z" />
<path d="M18.8994 50.7087L18.8994 100.7H25.152L25.152 50.7087H18.8994Z" />
<path d="M31.4048 50.7088L31.4048 100.699H37.6574V50.7088H31.4048Z" />
<path d="M43.9019 50.7091V100.7H50.1545V50.7091H43.9019Z" />
<path d="M56.3984 50.7091V100.7H62.651V50.7091H56.3984Z" />
<path d="M68.9043 50.7085V100.7H75.1569V50.7085H68.9043Z" />
<path d="M81.4009 50.7087V100.7H87.6535V50.7087H81.4009Z" />
<path d="M93.8975 50.7087V100.7H100.15V50.7087H93.8975Z" />
<path d="M0.149902 0.708878L0.149902 50.709H6.40273L6.40273 0.708878H0.149902Z" />
<path d="M12.6465 0.700089L12.6465 50.7002H18.8993L18.8993 0.700089H12.6465Z" />
<path d="M25.1431 0.709007L25.1431 50.7083H31.3959L31.3959 0.709007H25.1431Z" />
<path d="M37.6489 0.709251V50.7085H43.9018V0.709251H37.6489Z" />
<path d="M50.1455 0.709251V50.7085H56.3983V0.709251H50.1455Z" />
<path d="M62.6421 0.708633V50.7087H68.8949V0.708633H62.6421Z" />
<path d="M75.1475 0.708878V50.709H81.4003V0.708878H75.1475Z" />
<path d="M87.644 0.708878V50.709H93.8969V0.708878H87.644Z" />
</svg>
