<svg enable-background="new 0 0 100 100" viewBox="0 0 100 100" xmlns="http://www.w3.org/2000/svg"><path d="m6.3 50v50h6.3v-50z"/><path d="m18.7 50v50h6.3v-50z"/><path d="m31.3 50v50h6.3v-50z"/><path d="m43.8 50v50h6.2v-50z"/><path d="m56.2 50v50h6.3v-50z"/><path d="m68.8 50v50h6.2v-50z"/><path d="m81.3 50v50h6.3v-50z"/><path d="m93.7 50v50h6.3v-50z"/><path d="m0 0v50h6.3v-50z"/><path d="m12.5 0v50h6.3v-50z"/><path d="m25 0v50h6.3v-50z"/><path d="m37.5 0v50h6.3v-50z"/><path d="m50 0v50h6.3v-50z"/><path d="m62.5 0v50h6.3v-50z"/><path d="m75 0v50h6.3v-50z"/><path d="m87.5 0v50h6.3v-50z"/></svg>