<svg width="101" height="101" viewBox="0 0 101 101" fill="none" xmlns="http://www.w3.org/2000/svg">
<path d="M13.0962 0.389893L0.599609 12.8864V0.389893H13.0962Z" fill="black"/>
<path d="M25.6022 0.389893L0.599609 25.392V37.8886L38.0987 0.389893H25.6022Z" fill="black"/>
<path d="M0.599609 50.3852L50.5953 0.389893V12.8864L0.599609 62.8908V50.3852Z" fill="black"/>
<path d="M0.599609 75.352L50.5953 25.3567V37.8532L0.599609 87.8485V75.352Z" fill="black"/>
<path d="M0.599609 100.389L50.5953 50.3853V62.8909L13.0962 100.389H0.599609Z" fill="black"/>
<path d="M25.6021 100.389L50.5952 75.3872V87.8838L38.0986 100.389H25.6021Z" fill="black"/>
<path d="M63.1004 0.389893L50.5952 12.8864V0.389893H63.1004Z" fill="black"/>
<path d="M75.5969 0.389893L50.5952 25.392V37.8886L88.0935 0.389893H75.5969Z" fill="black"/>
<path d="M50.5952 50.3852L100.6 0.389893V12.8864L50.5952 62.8908V50.3852Z" fill="black"/>
<path d="M50.5952 75.352L100.6 25.3567V37.8532L50.5952 87.8485V75.352Z" fill="black"/>
<path d="M50.5952 100.389L100.6 50.3853V62.8909L63.1004 100.389H50.5952Z" fill="black"/>
<path d="M75.5972 100.389L100.6 75.3872V87.8838L88.0937 100.389H75.5972Z" fill="black"/>
</svg>
