<svg width="100" height="100" viewBox="0 0 100 100" fill="none" xmlns="http://www.w3.org/2000/svg">
<path d="M89.7517 56.758L100.34 49.8136L89.7517 42.8604L97.3494 32.7042L84.996 29.8011L88.6582 17.6595L76.0661 19.1596L75.3518 6.48852L64.0307 12.2064L59.0276 0.550049L50.3356 9.78863L41.6531 0.550049L36.65 12.2064L25.3289 6.48852L24.6146 19.1596L12.0138 17.6595L15.6847 29.8011L3.33131 32.7042L10.929 42.8604L0.340332 49.8136L10.929 56.758L3.33131 66.9231L15.6847 69.8262L12.0138 81.9678L24.6146 80.4677L25.3289 93.1388L36.65 87.4209L41.6531 99.0773L50.3356 89.8298L59.0276 99.0773L64.0307 87.4209L75.3518 93.1388L76.0661 80.4677L88.6582 81.9678L84.996 69.8262L97.3494 66.9231L89.7517 56.758ZM50.3356 83.8296C41.314 83.8296 32.6621 80.2458 26.2828 73.8666C19.9036 67.4873 16.3198 58.8352 16.3198 49.8136C16.3198 40.792 19.9036 32.14 26.2828 25.7607C32.6621 19.3815 41.314 15.7977 50.3356 15.7977C54.803 15.7965 59.2267 16.6756 63.3542 18.3846C67.4818 20.0937 71.2329 22.5992 74.3918 25.7581C77.5507 28.917 80.0555 32.6674 81.7646 36.7949C83.4736 40.9225 84.3534 45.3463 84.3523 49.8136C84.3534 54.281 83.4736 58.7048 81.7646 62.8324C80.0555 66.9599 77.5507 70.7103 74.3918 73.8692C71.2329 77.0281 67.4818 79.5336 63.3542 81.2427C59.2267 82.9517 54.803 83.8308 50.3356 83.8296V83.8296Z" />
</svg>
