<svg enable-background="new 0 0 100 100" viewBox="0 0 100 100" xmlns="http://www.w3.org/2000/svg"><path d="m89.4 57 10.6-7-10.6-7.1 7.6-10.3-12.4-2.9 3.7-12.3-12.6 1.5-.7-12.9-11.3 5.8-5-11.8-8.7 9.4-8.7-9.4-5 11.8-11.3-5.8-.7 12.9-12.6-1.5 3.7 12.3-12.4 2.9 7.6 10.3-10.6 7.1 10.6 7-7.6 10.4 12.4 2.9-3.7 12.3 12.6-1.5.7 12.9 11.3-5.8 5 11.8 8.7-9.4 8.7 9.4 5-11.8 11.3 5.8.7-12.9 12.6 1.5-3.7-12.3 12.4-2.9zm-39.4 27.5c-9 0-17.7-3.6-24.1-10.1-6.3-6.5-9.9-15.2-9.9-24.4s3.6-17.9 10-24.4 15-10.1 24.1-10.1c4.5 0 8.9.9 13 2.6s7.9 4.3 11 7.5c3.2 3.2 5.7 7 7.4 11.2 1.6 4.2 2.5 8.7 2.5 13.2s-.9 9-2.6 13.2-4.2 8-7.4 11.2-6.9 5.7-11 7.5c-4.1 1.7-8.5 2.6-13 2.6z"/></svg>