<svg version="1.1" id="Ebene_1" xmlns="http://www.w3.org/2000/svg" xmlns:xlink="http://www.w3.org/1999/xlink" x="0px" y="0px" viewBox="0 0 100 100" style="enable-background:new 0 0 100 100;" xml:space="preserve">
<g>
	<path d="M8.9,0h5.9L25,10.1v5.9L8.9,0z"/>
	<path d="M0,0h3l22,22v3h-3L0,3V0z"/>
	<path d="M25,4.2L20.8,0H25V4.2z"/>
	<path d="M0,14.9V8.9L16.1,25h-5.9L0,14.9z"/>
	<path d="M0,20.8L4.2,25H0V20.8z"/>
	<path d="M41.1,0h-5.9L25,10.1v5.9L41.1,0z"/>
	<path d="M50,0h-3L25,22v3h3L50,3V0z"/>
	<path d="M25,4.2L29.2,0H25V4.2z"/>
	<path d="M50,14.9V8.9L33.9,25h5.9L50,14.9z"/>
	<path d="M50,20.8L45.8,25H50V20.8z"/>
	<path d="M58.9,0h5.9L75,10.1v5.9L58.9,0z"/>
	<path d="M50,0h3l22,22v3h-3L50,3V0z"/>
	<path d="M75,4.2L70.8,0H75V4.2z"/>
	<path d="M50,14.9V8.9L66.1,25h-5.9L50,14.9z"/>
	<path d="M50,20.8l4.2,4.2H50V20.8z"/>
	<path d="M91.1,0h-5.9L75,10.1v5.9L91.1,0z"/>
	<path d="M100,0h-3L75,22v3h3l22-22V0z"/>
	<path d="M75,4.2L79.2,0H75V4.2z"/>
	<path d="M100,14.9V8.9L83.9,25h5.9L100,14.9z"/>
	<path d="M100,20.8L95.8,25h4.2V20.8z"/>
	<path d="M8.9,50h5.9L25,39.9v-5.9L8.9,50z"/>
	<path d="M0,50h3l22-22v-3h-3L0,47V50z"/>
	<path d="M25,45.8L20.8,50H25V45.8z"/>
	<path d="M0,35.1v5.9L16.1,25h-5.9L0,35.1z"/>
	<path d="M0,29.2L4.2,25H0V29.2z"/>
	<path d="M41.1,50h-5.9L25,39.9v-5.9L41.1,50z"/>
	<path d="M50,50h-3L25,28v-3h3l22,22V50z"/>
	<path d="M25,45.8l4.2,4.2H25V45.8z"/>
	<path d="M50,35.1v5.9L33.9,25h5.9L50,35.1z"/>
	<path d="M50,29.2L45.8,25H50V29.2z"/>
	<path d="M58.9,50h5.9L75,39.9v-5.9L58.9,50z"/>
	<path d="M50,50h3l22-22v-3h-3L50,47V50z"/>
	<path d="M75,45.8L70.8,50H75V45.8z"/>
	<path d="M50,35.1v5.9L66.1,25h-5.9L50,35.1z"/>
	<path d="M50,29.2l4.2-4.2H50V29.2z"/>
	<path d="M91.1,50h-5.9L75,39.9v-5.9L91.1,50z"/>
	<path d="M100,50h-3L75,28v-3h3l22,22V50z"/>
	<path d="M75,45.8l4.2,4.2H75V45.8z"/>
	<path d="M100,35.1v5.9L83.9,25h5.9L100,35.1z"/>
	<path d="M100,29.2L95.8,25h4.2V29.2z"/>
	<path d="M8.9,50h5.9L25,60.1v5.9L8.9,50z"/>
	<path d="M0,50h3l22,22v3h-3L0,53V50z"/>
	<path d="M25,54.2L20.8,50H25V54.2z"/>
	<path d="M0,64.9v-5.9L16.1,75h-5.9L0,64.9z"/>
	<path d="M0,70.8L4.2,75H0V70.8z"/>
	<path d="M41.1,50h-5.9L25,60.1v5.9L41.1,50z"/>
	<path d="M50,50h-3L25,72v3h3l22-22V50z"/>
	<path d="M25,54.2l4.2-4.2H25V54.2z"/>
	<path d="M50,64.9v-5.9L33.9,75h5.9L50,64.9z"/>
	<path d="M50,70.8L45.8,75H50V70.8z"/>
	<path d="M58.9,50h5.9L75,60.1v5.9L58.9,50z"/>
	<path d="M50,50h3l22,22v3h-3L50,53V50z"/>
	<path d="M75,54.2L70.8,50H75V54.2z"/>
	<path d="M50,64.9v-5.9L66.1,75h-5.9L50,64.9z"/>
	<path d="M50,70.8l4.2,4.2H50V70.8z"/>
	<path d="M91.1,50h-5.9L75,60.1v5.9L91.1,50z"/>
	<path d="M100,50h-3L75,72v3h3l22-22V50z"/>
	<path d="M75,54.2l4.2-4.2H75V54.2z"/>
	<path d="M100,64.9v-5.9L83.9,75h5.9L100,64.9z"/>
	<path d="M100,70.8L95.8,75h4.2V70.8z"/>
	<path d="M8.9,100h5.9L25,89.9v-5.9L8.9,100z"/>
	<path d="M0,100h3l22-22v-3h-3L0,97V100z"/>
	<path d="M25,95.8l-4.2,4.2H25V95.8z"/>
	<path d="M0,85.1v5.9L16.1,75h-5.9L0,85.1z"/>
	<path d="M0,79.2L4.2,75H0V79.2z"/>
	<path d="M41.1,100h-5.9L25,89.9v-5.9L41.1,100z"/>
	<path d="M50,100h-3L25,78v-3h3l22,22V100z"/>
	<path d="M25,95.8l4.2,4.2H25V95.8z"/>
	<path d="M50,85.1v5.9L33.9,75h5.9L50,85.1z"/>
	<path d="M50,79.2L45.8,75H50V79.2z"/>
	<path d="M58.9,100h5.9L75,89.9v-5.9L58.9,100z"/>
	<path d="M50,100h3l22-22v-3h-3L50,97V100z"/>
	<path d="M75,95.8l-4.2,4.2H75V95.8z"/>
	<path d="M50,85.1v5.9L66.1,75h-5.9L50,85.1z"/>
	<path d="M50,79.2l4.2-4.2H50V79.2z"/>
	<path d="M91.1,100h-5.9L75,89.9v-5.9L91.1,100z"/>
	<path d="M100,100h-3L75,78v-3h3l22,22V100z"/>
	<path d="M75,95.8l4.2,4.2H75V95.8z"/>
	<path d="M100,85.1v5.9L83.9,75h5.9L100,85.1z"/>
	<path d="M100,79.2L95.8,75h4.2V79.2z"/>
</g>
</svg>
