<svg width="100" height="100" viewBox="0 0 100 100" fill="none" xmlns="http://www.w3.org/2000/svg">
<path d="M9.11279 0.77002H15.048L25.1723 10.8943V16.8384L9.11279 0.77002Z" />
<path d="M0.169922 0.77002H3.14195L25.172 22.8001V25.7723H22.2L0.169922 3.74194V0.77002Z" />
<path d="M25.1723 4.93261L21.0186 0.77002H25.1723V4.93261Z" />
<path d="M0.169922 15.6476V9.7124L16.2383 25.7722H10.2942L0.169922 15.6476Z" />
<path d="M0.169922 21.6182L4.33251 25.7721H0.169922V21.6182Z" />
<path d="M41.2319 0.77002H35.2967L25.1724 10.8943V16.8384L41.2319 0.77002Z" />
<path d="M50.1745 0.77002H47.2025L25.1724 22.8001V25.7723H28.1444L50.1745 3.74194V0.77002Z" />
<path d="M25.1724 4.93261L29.3261 0.77002H25.1724V4.93261Z" />
<path d="M50.1743 15.6476V9.7124L34.106 25.7722H40.05L50.1743 15.6476Z" />
<path d="M50.1743 21.6182L46.0117 25.7721H50.1743V21.6182Z" />
<path d="M59.1079 0.77002H65.0431L75.1675 10.8943V16.8384L59.1079 0.77002Z" />
<path d="M50.1743 0.77002H53.1375L75.1676 22.8001V25.7723H72.2044L50.1743 3.74194V0.77002Z" />
<path d="M75.1674 4.93261L71.0137 0.77002H75.1674V4.93261Z" />
<path d="M50.1743 15.6476V9.7124L66.2339 25.7722H60.2986L50.1743 15.6476Z" />
<path d="M50.1743 21.6182L54.3281 25.7721H50.1743V21.6182Z" />
<path d="M91.236 0.77002H85.2918L75.1675 10.8943V16.8384L91.236 0.77002Z" />
<path d="M100.17 0.77002H97.1976L75.1675 22.8001V25.7723H78.1395L100.17 3.74194V0.77002Z" />
<path d="M75.1675 4.93261L79.3302 0.77002H75.1675V4.93261Z" />
<path d="M100.17 15.6476V9.7124L84.1104 25.7722H90.0456L100.17 15.6476Z" />
<path d="M100.17 21.6182L96.0161 25.7721H100.17V21.6182Z" />
<path d="M9.11279 50.7742H15.048L25.1723 40.6499V34.7058L9.11279 50.7742Z" />
<path d="M0.169922 50.7742H3.14195L25.172 28.7441V25.7722H22.2L0.169922 47.8023V50.7742Z" />
<path d="M25.1723 46.6116L21.0186 50.7742H25.1723V46.6116Z" />
<path d="M0.169922 35.8965V41.8406L16.2383 25.7722H10.2942L0.169922 35.8965Z" />
<path d="M0.169922 29.9348L4.33251 25.7722H0.169922V29.9348Z" />
<path d="M41.2319 50.7742H35.2967L25.1724 40.6499V34.7058L41.2319 50.7742Z" />
<path d="M50.1745 50.7742H47.2025L25.1724 28.7441V25.7722H28.1444L50.1745 47.8023V50.7742Z" />
<path d="M25.1724 46.6116L29.3261 50.7742H25.1724V46.6116Z" />
<path d="M50.1743 35.8965V41.8406L34.106 25.7722H40.05L50.1743 35.8965Z" />
<path d="M50.1743 29.9348L46.0117 25.7722H50.1743V29.9348Z" />
<path d="M59.1079 50.7742H65.0431L75.1675 40.6499V34.7058L59.1079 50.7742Z" />
<path d="M50.1743 50.7742H53.1375L75.1676 28.7441V25.7722H72.2044L50.1743 47.8023V50.7742Z" />
<path d="M75.1674 46.6116L71.0137 50.7742H75.1674V46.6116Z" />
<path d="M50.1743 35.8965V41.8406L66.2339 25.7722H60.2986L50.1743 35.8965Z" />
<path d="M50.1743 29.9348L54.3281 25.7722H50.1743V29.9348Z" />
<path d="M91.236 50.7742H85.2918L75.1675 40.6499V34.7058L91.236 50.7742Z" />
<path d="M100.17 50.7742H97.1976L75.1675 28.7441V25.7722H78.1395L100.17 47.8023V50.7742Z" />
<path d="M75.1675 46.6116L79.3302 50.7742H75.1675V46.6116Z" />
<path d="M100.17 35.8965V41.8406L84.1104 25.7722H90.0456L100.17 35.8965Z" />
<path d="M100.17 29.9348L96.0161 25.7722H100.17V29.9348Z" />
<path d="M9.11279 50.7742H15.048L25.1723 60.8985V66.8337L9.11279 50.7742Z" />
<path d="M0.169922 50.7742H3.14195L25.172 72.8043V75.7676H22.2L0.169922 53.7463V50.7742Z" />
<path d="M25.1723 54.9279L21.0186 50.7742H25.1723V54.9279Z" />
<path d="M0.169922 65.6523V59.7083L16.2383 75.7678H10.2942L0.169922 65.6523Z" />
<path d="M0.169922 71.614L4.33251 75.7678H0.169922V71.614Z" />
<path d="M41.2319 50.7742H35.2967L25.1724 60.8985V66.8337L41.2319 50.7742Z" />
<path d="M50.1745 50.7742H47.2025L25.1724 72.8043V75.7676H28.1444L50.1745 53.7463V50.7742Z" />
<path d="M25.1724 54.9279L29.3261 50.7742H25.1724V54.9279Z" />
<path d="M50.1743 65.6523V59.7083L34.106 75.7678H40.05L50.1743 65.6523Z" />
<path d="M50.1743 71.614L46.0117 75.7678H50.1743V71.614Z" />
<path d="M59.1079 50.7742H65.0431L75.1675 60.8985V66.8337L59.1079 50.7742Z" />
<path d="M50.1743 50.7742H53.1375L75.1676 72.8043V75.7676H72.2044L50.1743 53.7463V50.7742Z" />
<path d="M75.1674 54.9279L71.0137 50.7742H75.1674V54.9279Z" />
<path d="M50.1743 65.6523V59.7083L66.2339 75.7678H60.2986L50.1743 65.6523Z" />
<path d="M50.1743 71.614L54.3281 75.7678H50.1743V71.614Z" />
<path d="M91.236 50.7742H85.2918L75.1675 60.8985V66.8337L91.236 50.7742Z" />
<path d="M100.17 50.7742H97.1976L75.1675 72.8043V75.7676H78.1395L100.17 53.7463V50.7742Z" />
<path d="M75.1675 54.9279L79.3302 50.7742H75.1675V54.9279Z" />
<path d="M100.17 65.6523V59.7083L84.1104 75.7678H90.0456L100.17 65.6523Z" />
<path d="M100.17 71.614L96.0161 75.7678H100.17V71.614Z" />
<path d="M9.11279 100.77H15.048L25.1723 90.6454V84.7102L9.11279 100.77Z" />
<path d="M0.169922 100.77H3.14195L25.172 78.7395V75.7676H22.2L0.169922 97.7977V100.77Z" />
<path d="M25.1723 96.616L21.0186 100.77H25.1723V96.616Z" />
<path d="M0.169922 85.8919V91.836L16.2383 75.7676H10.2942L0.169922 85.8919Z" />
<path d="M0.169922 79.9302L4.33251 75.7676H0.169922V79.9302Z" />
<path d="M41.2319 100.77H35.2967L25.1724 90.6454V84.7102L41.2319 100.77Z" />
<path d="M50.1745 100.77H47.2025L25.1724 78.7395V75.7676H28.1444L50.1745 97.7977V100.77Z" />
<path d="M25.1724 96.616L29.3261 100.77H25.1724V96.616Z" />
<path d="M50.1743 85.8919V91.836L34.106 75.7676H40.05L50.1743 85.8919Z" />
<path d="M50.1743 79.9302L46.0117 75.7676H50.1743V79.9302Z" />
<path d="M59.1079 100.77H65.0431L75.1675 90.6454V84.7102L59.1079 100.77Z" />
<path d="M50.1743 100.77H53.1375L75.1676 78.7395V75.7676H72.2044L50.1743 97.7977V100.77Z" />
<path d="M75.1674 96.616L71.0137 100.77H75.1674V96.616Z" />
<path d="M50.1743 85.8919V91.836L66.2339 75.7676H60.2986L50.1743 85.8919Z" />
<path d="M50.1743 79.9302L54.3281 75.7676H50.1743V79.9302Z" />
<path d="M91.236 100.77H85.2918L75.1675 90.6454V84.7102L91.236 100.77Z" />
<path d="M100.17 100.77H97.1976L75.1675 78.7395V75.7676H78.1395L100.17 97.7977V100.77Z" />
<path d="M75.1675 96.616L79.3302 100.77H75.1675V96.616Z" />
<path d="M100.17 85.8919V91.836L84.1104 75.7676H90.0456L100.17 85.8919Z" />
<path d="M100.17 79.9302L96.0161 75.7676H100.17V79.9302Z" />
</svg>
