<svg enable-background="new 0 0 100 100" viewBox="0 0 100 100" xmlns="http://www.w3.org/2000/svg"><path d="m8.9 0h5.9l10.2 10.1v5.9z"/><path d="m0 0h3l22 22v3h-3l-22-22z"/><path d="m25 4.2-4.2-4.2h4.2z"/><path d="m0 14.9v-6l16.1 16.1h-5.9z"/><path d="m0 20.8 4.2 4.2h-4.2z"/><path d="m41.1 0h-5.9l-10.2 10.1v5.9z"/><path d="m50 0h-3l-22 22v3h3l22-22z"/><path d="m25 4.2 4.2-4.2h-4.2z"/><path d="m50 14.9v-6l-16.1 16.1h5.9z"/><path d="m50 20.8-4.2 4.2h4.2z"/><path d="m58.9 0h5.9l10.2 10.1v5.9z"/><path d="m50 0h3l22 22v3h-3l-22-22z"/><path d="m75 4.2-4.2-4.2h4.2z"/><path d="m50 14.9v-6l16.1 16.1h-5.9z"/><path d="m50 20.8 4.2 4.2h-4.2z"/><path d="m91.1 0h-5.9l-10.2 10.1v5.9z"/><path d="m100 0h-3l-22 22v3h3l22-22z"/><path d="m75 4.2 4.2-4.2h-4.2z"/><path d="m100 14.9v-6l-16.1 16.1h5.9z"/><path d="m100 20.8-4.2 4.2h4.2z"/><path d="m8.9 50h5.9l10.2-10.1v-5.9z"/><path d="m0 50h3l22-22v-3h-3l-22 22z"/><path d="m25 45.8-4.2 4.2h4.2z"/><path d="m0 35.1v5.9l16.1-16h-5.9z"/><path d="m0 29.2 4.2-4.2h-4.2z"/><path d="m41.1 50h-5.9l-10.2-10.1v-5.9z"/><path d="m50 50h-3l-22-22v-3h3l22 22z"/><path d="m25 45.8 4.2 4.2h-4.2z"/><path d="m50 35.1v5.9l-16.1-16h5.9z"/><path d="m50 29.2-4.2-4.2h4.2z"/><path d="m58.9 50h5.9l10.2-10.1v-5.9z"/><path d="m50 50h3l22-22v-3h-3l-22 22z"/><path d="m75 45.8-4.2 4.2h4.2z"/><path d="m50 35.1v5.9l16.1-16h-5.9z"/><path d="m50 29.2 4.2-4.2h-4.2z"/><path d="m91.1 50h-5.9l-10.2-10.1v-5.9z"/><path d="m100 50h-3l-22-22v-3h3l22 22z"/><path d="m75 45.8 4.2 4.2h-4.2z"/><path d="m100 35.1v5.9l-16.1-16h5.9z"/><path d="m100 29.2-4.2-4.2h4.2z"/><path d="m8.9 50h5.9l10.2 10.1v5.9z"/><path d="m0 50h3l22 22v3h-3l-22-22z"/><path d="m25 54.2-4.2-4.2h4.2z"/><path d="m0 64.9v-5.9l16.1 16h-5.9z"/><path d="m0 70.8 4.2 4.2h-4.2z"/><path d="m41.1 50h-5.9l-10.2 10.1v5.9z"/><path d="m50 50h-3l-22 22v3h3l22-22z"/><path d="m25 54.2 4.2-4.2h-4.2z"/><path d="m50 64.9v-5.9l-16.1 16h5.9z"/><path d="m50 70.8-4.2 4.2h4.2z"/><path d="m58.9 50h5.9l10.2 10.1v5.9z"/><path d="m50 50h3l22 22v3h-3l-22-22z"/><path d="m75 54.2-4.2-4.2h4.2z"/><path d="m50 64.9v-5.9l16.1 16h-5.9z"/><path d="m50 70.8 4.2 4.2h-4.2z"/><path d="m91.1 50h-5.9l-10.2 10.1v5.9z"/><path d="m100 50h-3l-22 22v3h3l22-22z"/><path d="m75 54.2 4.2-4.2h-4.2z"/><path d="m100 64.9v-5.9l-16.1 16h5.9z"/><path d="m100 70.8-4.2 4.2h4.2z"/><path d="m8.9 100h5.9l10.2-10.1v-5.9z"/><path d="m0 100h3l22-22v-3h-3l-22 22z"/><path d="m25 95.8-4.2 4.2h4.2z"/><path d="m0 85.1v5.9l16.1-16h-5.9z"/><path d="m0 79.2 4.2-4.2h-4.2z"/><path d="m41.1 100h-5.9l-10.2-10.1v-5.9z"/><path d="m50 100h-3l-22-22v-3h3l22 22z"/><path d="m25 95.8 4.2 4.2h-4.2z"/><path d="m50 85.1v5.9l-16.1-16h5.9z"/><path d="m50 79.2-4.2-4.2h4.2z"/><path d="m58.9 100h5.9l10.2-10.1v-5.9z"/><path d="m50 100h3l22-22v-3h-3l-22 22z"/><path d="m75 95.8-4.2 4.2h4.2z"/><path d="m50 85.1v5.9l16.1-16h-5.9z"/><path d="m50 79.2 4.2-4.2h-4.2z"/><path d="m91.1 100h-5.9l-10.2-10.1v-5.9z"/><path d="m100 100h-3l-22-22v-3h3l22 22z"/><path d="m75 95.8 4.2 4.2h-4.2z"/><path d="m100 85.1v5.9l-16.1-16h5.9z"/><path d="m100 79.2-4.2-4.2h4.2z"/></svg>