<?xml version="1.0" encoding="utf-8"?>
<!-- Generator: Adobe Illustrator 25.4.0, SVG Export Plug-In . SVG Version: 6.00 Build 0)  -->
<svg version="1.1" id="Ebene_1" xmlns="http://www.w3.org/2000/svg" xmlns:xlink="http://www.w3.org/1999/xlink" x="0px" y="0px"
	 viewBox="0 0 113.4 113.4" style="enable-background:new 0 0 113.4 113.4;" xml:space="preserve">
<style type="text/css">
	.st0{fill:#1E1E1C;}
	.st1{fill:#6702FF;}
	.st2{fill:#AAD9DE;}
	.st3{fill:#1D1D1B;}
	.st4{fill:#FFFFFF;}
	.st5{fill:none;stroke:#000000;stroke-width:5.1821;stroke-miterlimit:10;}
	.st6{fill:#FFFFFF;stroke:#FFFFFF;stroke-width:5.1821;stroke-miterlimit:10;}
	.st7{fill:#020206;}
	.st8{fill:#E20613;}
	.st9{fill:#BDFF9A;}
	.st10{fill:#FF56FF;}
	.st11{fill:#941B80;}
	.st12{fill:#00A099;}
	.st13{fill:#DDDB00;}
	.st14{fill:#35A8E0;}
	.st15{fill:#FFFFFF;stroke:#E20613;stroke-width:10;stroke-miterlimit:10;}
	.st16{fill:#575756;}
	.st17{fill:#868686;}
	.st18{fill:#E9E9EB;}
</style>
<path d="M101.4,63.7l12-7.9l-12-7.9l8.6-11.5l-14-3.3l4.2-13.8l-14.3,1.7L85,6.7l-12.8,6.5L66.5,0l-9.8,10.5L46.8,0l-5.7,13.2
	L28.3,6.7l-0.8,14.4l-14.3-1.7l4.2,13.8l-14,3.3L12,48L0,55.8l12,7.9L3.4,75.2l14,3.3l-4.2,13.8l14.3-1.7l0.8,14.4l12.8-6.5
	l5.7,13.2l9.8-10.5l9.8,10.5l5.7-13.2l12.8,6.5l0.8-14.4l14.3,1.7L96,78.5l14-3.3L101.4,63.7z M56.7,94.4
	c-21.3,0-38.6-17.3-38.6-38.6s17.3-38.6,38.6-38.6s38.6,17.3,38.6,38.6S78,94.4,56.7,94.4z"/>
</svg>
