<?xml version="1.0" encoding="utf-8"?>
<!-- Generator: Adobe Illustrator 25.3.1, SVG Export Plug-In . SVG Version: 6.00 Build 0)  -->
<svg version="1.1" id="Ebene_1" xmlns="http://www.w3.org/2000/svg" xmlns:xlink="http://www.w3.org/1999/xlink" x="0px" y="0px"
	 viewBox="0 0 113.4 113.4" style="enable-background:new 0 0 113.4 113.4;" xml:space="preserve">
<g>
	<g>
		<rect x="-3.5" y="102.8" transform="matrix(6.123234e-17 -1 1 6.123234e-17 -102.7559 109.8425)" width="14.2" height="7.1"/>
		<rect x="10.6" y="102.8" transform="matrix(6.123234e-17 -1 1 6.123234e-17 -88.5827 124.0157)" width="14.2" height="7.1"/>
		<rect x="24.8" y="102.8" transform="matrix(6.123234e-17 -1 1 6.123234e-17 -74.4094 138.189)" width="14.2" height="7.1"/>
		<rect x="39" y="102.8" transform="matrix(6.123234e-17 -1 1 6.123234e-17 -60.2362 152.3622)" width="14.2" height="7.1"/>
		<rect x="53.1" y="102.8" transform="matrix(6.123234e-17 -1 1 6.123234e-17 -46.063 166.5354)" width="14.2" height="7.1"/>
		<rect x="67.3" y="102.8" transform="matrix(6.123234e-17 -1 1 6.123234e-17 -31.8898 180.7087)" width="14.2" height="7.1"/>
		<rect x="81.5" y="102.8" transform="matrix(6.123234e-17 -1 1 6.123234e-17 -17.7165 194.8819)" width="14.2" height="7.1"/>
		<rect x="95.7" y="102.8" transform="matrix(6.123234e-17 -1 1 6.123234e-17 -3.5433 209.0551)" width="14.2" height="7.1"/>
		<rect x="3.5" y="88.6" transform="matrix(6.123234e-17 -1 1 6.123234e-17 -81.4961 102.7559)" width="14.2" height="7.1"/>
		<rect x="17.7" y="88.6" transform="matrix(6.123234e-17 -1 1 6.123234e-17 -67.3228 116.9291)" width="14.2" height="7.1"/>
		<rect x="31.9" y="88.6" transform="matrix(6.123234e-17 -1 1 6.123234e-17 -53.1496 131.1024)" width="14.2" height="7.1"/>
		<rect x="46.1" y="88.6" transform="matrix(6.123234e-17 -1 1 6.123234e-17 -38.9764 145.2756)" width="14.2" height="7.1"/>
		<rect x="60.2" y="88.6" transform="matrix(6.123234e-17 -1 1 6.123234e-17 -24.8032 159.4488)" width="14.2" height="7.1"/>
		<rect x="74.4" y="88.6" transform="matrix(6.123234e-17 -1 1 6.123234e-17 -10.6299 173.622)" width="14.2" height="7.1"/>
		<rect x="88.6" y="88.6" transform="matrix(6.123234e-17 -1 1 6.123234e-17 3.5433 187.7953)" width="14.2" height="7.1"/>
		<rect x="102.8" y="88.6" transform="matrix(6.123234e-17 -1 1 6.123234e-17 17.7165 201.9685)" width="14.2" height="7.1"/>
		<rect x="-3.5" y="74.4" transform="matrix(6.123234e-17 -1 1 6.123234e-17 -74.4094 81.4961)" width="14.2" height="7.1"/>
		<rect x="10.6" y="74.4" transform="matrix(6.123234e-17 -1 1 6.123234e-17 -60.2362 95.6693)" width="14.2" height="7.1"/>
		<rect x="24.8" y="74.4" transform="matrix(6.123234e-17 -1 1 6.123234e-17 -46.063 109.8425)" width="14.2" height="7.1"/>
		<rect x="39" y="74.4" transform="matrix(6.123234e-17 -1 1 6.123234e-17 -31.8898 124.0157)" width="14.2" height="7.1"/>
		<rect x="53.1" y="74.4" transform="matrix(6.123234e-17 -1 1 6.123234e-17 -17.7165 138.189)" width="14.2" height="7.1"/>
		<rect x="67.3" y="74.4" transform="matrix(6.123234e-17 -1 1 6.123234e-17 -3.5433 152.3622)" width="14.2" height="7.1"/>
		<rect x="81.5" y="74.4" transform="matrix(6.123234e-17 -1 1 6.123234e-17 10.6299 166.5354)" width="14.2" height="7.1"/>
		<rect x="95.7" y="74.4" transform="matrix(6.123234e-17 -1 1 6.123234e-17 24.8032 180.7087)" width="14.2" height="7.1"/>
		<rect x="3.5" y="60.2" transform="matrix(6.123234e-17 -1 1 6.123234e-17 -53.1496 74.4094)" width="14.2" height="7.1"/>
		<rect x="17.7" y="60.2" transform="matrix(6.123234e-17 -1 1 6.123234e-17 -38.9764 88.5827)" width="14.2" height="7.1"/>
		<rect x="31.9" y="60.2" transform="matrix(6.123234e-17 -1 1 6.123234e-17 -24.8032 102.7559)" width="14.2" height="7.1"/>
		<rect x="46.1" y="60.2" transform="matrix(6.123234e-17 -1 1 6.123234e-17 -10.6299 116.9291)" width="14.2" height="7.1"/>
		<rect x="60.2" y="60.2" transform="matrix(6.123234e-17 -1 1 6.123234e-17 3.5433 131.1024)" width="14.2" height="7.1"/>
		<rect x="74.4" y="60.2" transform="matrix(6.123234e-17 -1 1 6.123234e-17 17.7165 145.2756)" width="14.2" height="7.1"/>
		<rect x="88.6" y="60.2" transform="matrix(6.123234e-17 -1 1 6.123234e-17 31.8898 159.4488)" width="14.2" height="7.1"/>
		<rect x="102.8" y="60.2" transform="matrix(6.123234e-17 -1 1 6.123234e-17 46.063 173.622)" width="14.2" height="7.1"/>
	</g>
	<g>
		<rect x="-3.5" y="46.1" transform="matrix(6.123234e-17 -1 1 6.123234e-17 -46.063 53.1496)" width="14.2" height="7.1"/>
		<rect x="10.6" y="46.1" transform="matrix(6.123234e-17 -1 1 6.123234e-17 -31.8898 67.3228)" width="14.2" height="7.1"/>
		<rect x="24.8" y="46.1" transform="matrix(6.123234e-17 -1 1 6.123234e-17 -17.7165 81.4961)" width="14.2" height="7.1"/>
		<rect x="39" y="46.1" transform="matrix(6.123234e-17 -1 1 6.123234e-17 -3.5433 95.6693)" width="14.2" height="7.1"/>
		<rect x="53.1" y="46.1" transform="matrix(6.123234e-17 -1 1 6.123234e-17 10.6299 109.8425)" width="14.2" height="7.1"/>
		<rect x="67.3" y="46.1" transform="matrix(6.123234e-17 -1 1 6.123234e-17 24.8032 124.0157)" width="14.2" height="7.1"/>
		<rect x="81.5" y="46.1" transform="matrix(6.123234e-17 -1 1 6.123234e-17 38.9764 138.189)" width="14.2" height="7.1"/>
		<rect x="95.7" y="46.1" transform="matrix(6.123234e-17 -1 1 6.123234e-17 53.1496 152.3622)" width="14.2" height="7.1"/>
		<rect x="3.5" y="31.9" transform="matrix(6.123234e-17 -1 1 6.123234e-17 -24.8032 46.063)" width="14.2" height="7.1"/>
		<rect x="17.7" y="31.9" transform="matrix(6.123234e-17 -1 1 6.123234e-17 -10.6299 60.2362)" width="14.2" height="7.1"/>
		<rect x="31.9" y="31.9" transform="matrix(6.123234e-17 -1 1 6.123234e-17 3.5433 74.4094)" width="14.2" height="7.1"/>
		<rect x="46.1" y="31.9" transform="matrix(6.123234e-17 -1 1 6.123234e-17 17.7165 88.5827)" width="14.2" height="7.1"/>
		<rect x="60.2" y="31.9" transform="matrix(6.123234e-17 -1 1 6.123234e-17 31.8898 102.7559)" width="14.2" height="7.1"/>
		<rect x="74.4" y="31.9" transform="matrix(6.123234e-17 -1 1 6.123234e-17 46.063 116.9291)" width="14.2" height="7.1"/>
		<rect x="88.6" y="31.9" transform="matrix(6.123234e-17 -1 1 6.123234e-17 60.2362 131.1024)" width="14.2" height="7.1"/>
		<rect x="102.8" y="31.9" transform="matrix(6.123234e-17 -1 1 6.123234e-17 74.4094 145.2756)" width="14.2" height="7.1"/>
		<rect x="-3.5" y="17.7" transform="matrix(6.123234e-17 -1 1 6.123234e-17 -17.7165 24.8032)" width="14.2" height="7.1"/>
		<rect x="10.6" y="17.7" transform="matrix(6.123234e-17 -1 1 6.123234e-17 -3.5433 38.9764)" width="14.2" height="7.1"/>
		<rect x="24.8" y="17.7" transform="matrix(6.123234e-17 -1 1 6.123234e-17 10.6299 53.1496)" width="14.2" height="7.1"/>
		<rect x="39" y="17.7" transform="matrix(6.123234e-17 -1 1 6.123234e-17 24.8032 67.3228)" width="14.2" height="7.1"/>
		<rect x="53.1" y="17.7" transform="matrix(6.123234e-17 -1 1 6.123234e-17 38.9764 81.4961)" width="14.2" height="7.1"/>
		<rect x="67.3" y="17.7" transform="matrix(6.123234e-17 -1 1 6.123234e-17 53.1496 95.6693)" width="14.2" height="7.1"/>
		<rect x="81.5" y="17.7" transform="matrix(6.123234e-17 -1 1 6.123234e-17 67.3228 109.8425)" width="14.2" height="7.1"/>
		<rect x="95.7" y="17.7" transform="matrix(6.123234e-17 -1 1 6.123234e-17 81.4961 124.0157)" width="14.2" height="7.1"/>
		<rect x="3.5" y="3.5" transform="matrix(6.123234e-17 -1 1 6.123234e-17 3.5433 17.7165)" width="14.2" height="7.1"/>
		<rect x="17.7" y="3.5" transform="matrix(6.123234e-17 -1 1 6.123234e-17 17.7165 31.8898)" width="14.2" height="7.1"/>
		<rect x="31.9" y="3.5" transform="matrix(6.123234e-17 -1 1 6.123234e-17 31.8898 46.063)" width="14.2" height="7.1"/>
		<rect x="46.1" y="3.5" transform="matrix(6.123234e-17 -1 1 6.123234e-17 46.063 60.2362)" width="14.2" height="7.1"/>
		<rect x="60.2" y="3.5" transform="matrix(6.123234e-17 -1 1 6.123234e-17 60.2362 74.4094)" width="14.2" height="7.1"/>
		<rect x="74.4" y="3.5" transform="matrix(6.123234e-17 -1 1 6.123234e-17 74.4094 88.5827)" width="14.2" height="7.1"/>
		<rect x="88.6" y="3.5" transform="matrix(6.123234e-17 -1 1 6.123234e-17 88.5827 102.7559)" width="14.2" height="7.1"/>
		<rect x="102.8" y="3.5" transform="matrix(6.123234e-17 -1 1 6.123234e-17 102.7559 116.9291)" width="14.2" height="7.1"/>
	</g>
</g>
</svg>
