<?xml version="1.0" encoding="utf-8"?>
<!-- Generator: Adobe Illustrator 25.3.1, SVG Export Plug-In . SVG Version: 6.00 Build 0)  -->
<svg version="1.1" id="Ebene_1" xmlns="http://www.w3.org/2000/svg" xmlns:xlink="http://www.w3.org/1999/xlink" x="0px" y="0px"
	 viewBox="0 0 113.4 113.4" style="enable-background:new 0 0 113.4 113.4;" xml:space="preserve">
<g>
	<polygon points="67.3,113.4 74.4,113.4 113.4,74.4 113.4,67.3 	"/>
	<polygon points="24.8,113.4 31.9,113.4 113.4,31.9 113.4,24.8 	"/>
	<polygon points="53.2,113.4 60.2,113.4 113.4,60.2 113.4,53.2 	"/>
	<polygon points="39,113.4 46.1,113.4 113.4,46.1 113.4,39 	"/>
	<polygon points="10.6,113.4 17.7,113.4 113.4,17.7 113.4,10.6 	"/>
	<polygon points="113.4,113.4 113.4,109.9 109.9,113.4 	"/>
	<polygon points="81.5,113.4 88.6,113.4 113.4,88.6 113.4,81.5 	"/>
	<polygon points="95.7,113.4 102.7,113.4 113.4,102.7 113.4,95.7 	"/>
	<polygon points="0,24.8 0,31.9 31.9,0 24.8,0 	"/>
	<polygon points="0,39 0,46.1 46.1,0 39,0 	"/>
	<polygon points="0,10.6 0,17.7 17.7,0 10.6,0 	"/>
	<polygon points="0,53.2 0,60.2 60.2,0 53.2,0 	"/>
	<polygon points="0,3.5 3.5,0 0,0 	"/>
	<polygon points="0,67.3 0,74.4 74.4,0 67.3,0 	"/>
	<polygon points="0,95.7 0,102.7 102.7,0 95.7,0 	"/>
	<polygon points="109.9,0 0,109.9 0,113.4 3.5,113.4 113.4,3.5 113.4,0 	"/>
	<polygon points="0,81.5 0,88.6 88.6,0 81.5,0 	"/>
</g>
</svg>
