<?xml version="1.0" encoding="utf-8"?>
<!-- Generator: Adobe Illustrator 25.3.1, SVG Export Plug-In . SVG Version: 6.00 Build 0)  -->
<svg version="1.1" id="Ebene_1" xmlns="http://www.w3.org/2000/svg" xmlns:xlink="http://www.w3.org/1999/xlink" x="0px" y="0px"
	 viewBox="0 0 113.4 113.4" style="enable-background:new 0 0 113.4 113.4;" xml:space="preserve">
<path d="M113.4,56.7c0-1.2,0-2.4-0.1-3.5l-15-3.8l12.8-8.7c-0.7-2.3-1.5-4.5-2.4-6.6l-15.4,1.5l9-12.5c-1.4-1.9-2.9-3.7-4.5-5.4
	l-13.9,6.7L88,9.5c-2-1.3-4-2.5-6.1-3.5L71.1,17L70,1.6c-2.3-0.5-4.6-1-6.9-1.2l-6.4,14.1L50.3,0.4C48,0.6,45.7,1,43.4,1.6L42.2,17
	L31.5,5.9c-2.1,1.1-4.2,2.2-6.1,3.5l4.2,14.9l-13.9-6.7c-1.6,1.7-3.1,3.5-4.5,5.4l9,12.5L4.7,34c-0.9,2.1-1.7,4.4-2.4,6.6l12.8,8.7
	l-15,3.8C0,54.3,0,55.5,0,56.7c0,1.2,0,2.4,0.1,3.5l15,3.8L2.3,72.7C3,75,3.8,77.2,4.7,79.4l15.4-1.5l-9,12.5
	c1.4,1.9,2.9,3.7,4.5,5.4l13.9-6.7l-4.2,14.9c2,1.3,4,2.5,6.1,3.5l10.8-11.1l1.2,15.4c2.3,0.5,4.6,1,6.9,1.2l6.4-14.1L63,113
	c2.4-0.3,4.7-0.7,6.9-1.2l1.2-15.4l10.8,11.1c2.1-1.1,4.2-2.2,6.1-3.5l-4.2-14.9l13.9,6.7c1.6-1.7,3.1-3.5,4.5-5.4l-9-12.5l15.4,1.5
	c0.9-2.1,1.7-4.4,2.4-6.6L98.3,64l15-3.8C113.3,59.1,113.4,57.9,113.4,56.7z"/>
</svg>
