<?xml version="1.0" encoding="utf-8"?>
<!-- Generator: Adobe Illustrator 25.3.1, SVG Export Plug-In . SVG Version: 6.00 Build 0)  -->
<svg version="1.1" id="Ebene_1" xmlns="http://www.w3.org/2000/svg" xmlns:xlink="http://www.w3.org/1999/xlink" x="0px" y="0px"
	 viewBox="0 0 113.4 113.4" style="enable-background:new 0 0 113.4 113.4;" xml:space="preserve">
<g>
	<rect x="0.1" y="0.1" width="14.2" height="14.2"/>
	<rect x="14.3" y="14.3" width="14.2" height="14.2"/>
	<rect x="0.1" y="28.4" width="14.2" height="14.2"/>
	<rect x="0.1" y="56.8" width="14.2" height="14.2"/>
	<rect x="0.1" y="85.1" width="14.2" height="14.2"/>
	<rect x="14.3" y="71" width="14.2" height="14.2"/>
	<rect x="28.4" y="56.8" width="14.2" height="14.2"/>
	<rect x="42.6" y="42.6" transform="matrix(-1 -1.224647e-16 1.224647e-16 -1 99.3858 99.3858)" width="14.2" height="14.2"/>
	<rect x="56.8" y="28.4" transform="matrix(-1 -1.224647e-16 1.224647e-16 -1 127.7323 71.0394)" width="14.2" height="14.2"/>
	<rect x="71" y="14.3" transform="matrix(-1 -1.224647e-16 1.224647e-16 -1 156.0787 42.6929)" width="14.2" height="14.2"/>
	<rect x="85.1" y="0.1" transform="matrix(-1 -1.224647e-16 1.224647e-16 -1 184.4252 14.3465)" width="14.2" height="14.2"/>
	<rect x="14.3" y="42.6" width="14.2" height="14.2"/>
	<rect x="28.4" y="28.4" width="14.2" height="14.2"/>
	<rect x="42.6" y="14.3" width="14.2" height="14.2"/>
	<rect x="56.8" y="0.1" width="14.2" height="14.2"/>
	<rect x="28.4" y="0.1" width="14.2" height="14.2"/>
</g>
</svg>
