<?xml version="1.0" encoding="utf-8"?>
<!-- Generator: Adobe Illustrator 25.3.1, SVG Export Plug-In . SVG Version: 6.00 Build 0)  -->
<svg version="1.1" id="Ebene_1" xmlns="http://www.w3.org/2000/svg" xmlns:xlink="http://www.w3.org/1999/xlink" x="0px" y="0px"
	 viewBox="0 0 113.4 113.4" style="enable-background:new 0 0 113.4 113.4;" xml:space="preserve">
<g>
	<path d="M14.2,0l28.3,28.3H14.2L0,14.2V0H14.2z M42.5,0v28.3h14.2V0H42.5z"/>
	<path d="M70.9,0l28.3,28.3H70.9L56.7,14.2V0H70.9z M99.2,0v28.3h14.2V0H99.2z"/>
	<path d="M56.7,28.3L85,56.7H56.7L42.5,42.5V28.3H56.7z M85,28.3v28.3h14.2V28.3H85z"/>
	<path d="M42.5,56.7L70.9,85H42.5L28.3,70.9V56.7H42.5z M70.9,56.7V85H85V56.7H70.9z"/>
	<path d="M0,85v28.3h14.2V85H0z"/>
	<path d="M28.3,85l28.3,28.3H28.3L14.2,99.2V85H28.3z M56.7,85v28.3h14.2V85H56.7z"/>
	<path d="M85,85l28.3,28.3H85L70.9,99.2V85H85z"/>
	<polygon points="113.4,28.3 99.2,28.3 99.2,42.5 113.4,56.7 	"/>
	<polygon points="113.4,70.9 99.2,56.7 85,56.7 85,70.9 99.2,85 113.4,85 	"/>
	<g>
		<rect x="28.3" y="28.3" width="14.2" height="28.3"/>
		<polygon points="0,28.3 0,56.7 0,56.7 28.3,56.7 0,28.3 		"/>
	</g>
	<g>
		<rect x="14.2" y="56.7" width="14.2" height="28.3"/>
		<polygon points="0,85 14.2,85 0,70.9 		"/>
	</g>
</g>
</svg>
