<?xml version="1.0" encoding="utf-8"?>
<!-- Generator: Adobe Illustrator 25.3.1, SVG Export Plug-In . SVG Version: 6.00 Build 0)  -->
<svg version="1.1" id="Ebene_1" xmlns="http://www.w3.org/2000/svg" xmlns:xlink="http://www.w3.org/1999/xlink" x="0px" y="0px"
	 viewBox="0 0 113.4 113.4" style="enable-background:new 0 0 113.4 113.4;" xml:space="preserve">
<polygon points="56.7,28.2 61.7,0 61.6,28.7 71.4,1.7 66.4,30 80.7,5.1 70.9,32.1 89.3,10.1 75,34.9 96.9,16.5 78.5,38.4 
	103.3,24.1 81.3,42.5 108.3,32.6 83.4,47 111.7,42 84.7,51.8 113.4,51.7 85.1,56.7 113.4,61.7 84.7,61.6 111.7,71.4 83.4,66.4 
	108.3,80.7 81.3,70.9 103.3,89.3 78.5,75 96.9,96.9 75,78.5 89.3,103.3 70.9,81.3 80.7,108.3 66.4,83.4 71.4,111.7 61.6,84.7 
	61.7,113.4 56.7,85.1 51.7,113.4 51.8,84.7 42,111.7 47,83.4 32.6,108.3 42.5,81.3 24.1,103.3 38.4,78.5 16.5,96.9 34.9,75 
	10.1,89.3 32.1,70.9 5.1,80.7 30,66.4 1.7,71.4 28.7,61.6 0,61.7 28.2,56.7 0,51.7 28.7,51.8 1.7,42 30,47 5.1,32.6 32.1,42.5 
	10.1,24.1 34.9,38.4 16.5,16.5 38.4,34.9 24.1,10.1 42.5,32.1 32.6,5.1 47,30 42,1.7 51.8,28.7 51.7,0 "/>
</svg>
