<?xml version="1.0" encoding="utf-8"?>
<!-- Generator: Adobe Illustrator 25.3.1, SVG Export Plug-In . SVG Version: 6.00 Build 0)  -->
<svg version="1.1" id="Ebene_1" xmlns="http://www.w3.org/2000/svg" xmlns:xlink="http://www.w3.org/1999/xlink" x="0px" y="0px"
	 viewBox="0 0 113.4 113.4" style="enable-background:new 0 0 113.4 113.4;" xml:space="preserve">
<path d="M101.4,64.7l12-8l-12-8L110,37l-14-3.3l4.2-14l-14.3,1.7L85,6.8l-12.8,6.6L66.5,0l-9.8,10.6L46.8,0l-5.7,13.4L28.3,6.8
	l-0.8,14.6l-14.3-1.7l4.2,14L3.4,37L12,48.7l-12,8l12,8L3.4,76.4l14,3.3l-4.2,14L27.5,92l0.8,14.6l12.8-6.6l5.7,13.4l9.8-10.6
	l9.8,10.6l5.7-13.4l12.8,6.6L85.8,92l14.3,1.7l-4.2-14l14-3.3L101.4,64.7z M56.7,95.8c-21.3,0-38.6-17.5-38.6-39.1
	s17.3-39.1,38.6-39.1s38.6,17.5,38.6,39.1S78,95.8,56.7,95.8z"/>
</svg>
