<?xml version="1.0" encoding="utf-8"?>
<!-- Generator: Adobe Illustrator 25.3.1, SVG Export Plug-In . SVG Version: 6.00 Build 0)  -->
<svg version="1.1" id="Ebene_1" xmlns="http://www.w3.org/2000/svg" xmlns:xlink="http://www.w3.org/1999/xlink" x="0px" y="0px"
	 viewBox="0 0 113.4 113.4" style="enable-background:new 0 0 113.4 113.4;" xml:space="preserve">
<g>
	<rect x="0" y="0" width="8.1" height="56.7"/>
	<rect x="14.2" y="0" width="8.1" height="56.7"/>
	<rect x="28.3" y="0" width="8.1" height="56.7"/>
	<rect x="42.5" y="0" width="8.1" height="56.7"/>
	<rect x="56.7" y="0" width="8.1" height="56.7"/>
	<rect x="70.9" y="0" width="8.1" height="56.7"/>
	<rect x="85" y="0" width="8.1" height="56.7"/>
	<rect x="99.2" y="0" width="8.1" height="56.7"/>
</g>
<g>
	<rect x="6.1" y="56.7" width="8.1" height="56.7"/>
	<rect x="20.2" y="56.7" width="8.1" height="56.7"/>
	<rect x="34.4" y="56.7" width="8.1" height="56.7"/>
	<rect x="48.6" y="56.7" width="8.1" height="56.7"/>
	<rect x="62.8" y="56.7" width="8.1" height="56.7"/>
	<rect x="76.9" y="56.7" width="8.1" height="56.7"/>
	<rect x="91.1" y="56.7" width="8.1" height="56.7"/>
	<rect x="105.3" y="56.7" width="8.1" height="56.7"/>
</g>
</svg>
