<?xml version="1.0" encoding="utf-8"?>
<!-- Generator: Adobe Illustrator 25.3.1, SVG Export Plug-In . SVG Version: 6.00 Build 0)  -->
<svg version="1.1" id="Ebene_1" xmlns="http://www.w3.org/2000/svg" xmlns:xlink="http://www.w3.org/1999/xlink" x="0px" y="0px"
	 viewBox="0 0 113.4 113.4" style="enable-background:new 0 0 113.4 113.4;" xml:space="preserve">
<path d="M99.9,0h-5.4l2.7,2.7L83.7,16.2L70.2,2.7L72.9,0h-5.4H45.9h-5.4l2.7,2.7L29.7,16.2L16.2,2.7L18.9,0h-5.4H0v13.5v5.4l2.7-2.7
	l13.5,13.5L2.7,43.2L0,40.5v5.4v21.6v5.4l2.7-2.7l13.5,13.5L2.7,97.2L0,94.5v5.4v13.5h13.5h5.4l-2.7-2.7l13.5-13.5l13.5,13.5
	l-2.7,2.7h5.4h21.6h5.4l-2.7-2.7l13.5-13.5l13.5,13.5l-2.7,2.7h5.4h13.5V99.9v-5.4l-2.7,2.7L97.2,83.7l13.5-13.5l2.7,2.7v-5.4V45.9
	v-5.4l-2.7,2.7L97.2,29.7l13.5-13.5l2.7,2.7v-5.4V0H99.9z M56.7,16.2l13.5,13.5L56.7,43.2L43.2,29.7L56.7,16.2z M16.2,56.7
	l13.5-13.5l13.5,13.5L29.7,70.2L16.2,56.7z M56.7,97.2L43.2,83.7l13.5-13.5l13.5,13.5L56.7,97.2z M97.2,56.7L83.7,70.2L70.2,56.7
	l13.5-13.5L97.2,56.7z"/>
</svg>
