<?xml version="1.0" encoding="utf-8"?>
<!-- Generator: Adobe Illustrator 25.3.1, SVG Export Plug-In . SVG Version: 6.00 Build 0)  -->
<svg version="1.1" id="Ebene_1" xmlns="http://www.w3.org/2000/svg" xmlns:xlink="http://www.w3.org/1999/xlink" x="0px" y="0px"
	 viewBox="0 0 113.4 113.4" style="enable-background:new 0 0 113.4 113.4;" xml:space="preserve">
<g>
	<path d="M5.2,32.9L32.9,5.2C20.7,10.9,10.9,20.7,5.2,32.9z"/>
	<path d="M66.4,0.8C65,0.6,63.5,0.4,62,0.2L0.2,62c0.1,1.5,0.3,3,0.6,4.4L66.4,0.8z"/>
	<path d="M87.4,9c-1-0.7-2.1-1.3-3.1-1.9L7.2,84.3c0.6,1.1,1.2,2.1,1.9,3.1L87.4,9z"/>
	<path d="M74.2,2.8c-1.3-0.4-2.6-0.8-3.9-1.1L1.7,70.3c0.3,1.3,0.7,2.6,1.1,3.9L74.2,2.8z"/>
	<path d="M113.4,56.7c0-0.3,0-0.6,0-0.8l-57.5,57.5c0.3,0,0.6,0,0.8,0c1.5,0,2.9-0.1,4.3-0.2L113.2,61
		C113.3,59.6,113.4,58.1,113.4,56.7z"/>
	<path d="M47,0.8c-2.2,0.4-4.4,0.9-6.6,1.5L2.4,40.4c-0.6,2.1-1.2,4.3-1.5,6.6L47,0.8z"/>
	<path d="M95.5,15.4L15.4,95.5c0.8,0.9,1.6,1.7,2.5,2.5L98,17.9C97.2,17,96.4,16.2,95.5,15.4z"/>
	<path d="M56.7,0c-1.5,0-2.9,0.1-4.3,0.2L0.2,52.4C0.1,53.8,0,55.2,0,56.7c0,0.3,0,0.6,0,0.8L57.5,0C57.3,0,57,0,56.7,0z"/>
	<path d="M81.2,5.5C80,5,78.9,4.5,77.7,4L4,77.7c0.5,1.2,1,2.3,1.5,3.5L81.2,5.5z"/>
	<path d="M111,73c0.6-2.1,1.2-4.3,1.5-6.6l-46.2,46.2c2.2-0.4,4.4-0.9,6.6-1.5L111,73z"/>
	<path d="M113.1,51.4c-0.1-1.5-0.3-3-0.6-4.4L47,112.6c1.5,0.3,2.9,0.4,4.4,0.6L113.1,51.4z"/>
	<path d="M108.1,80.5l-27.6,27.6C92.7,102.5,102.5,92.7,108.1,80.5z"/>
	<path d="M93,13.2c-0.9-0.8-1.9-1.5-2.8-2.2L11,90.2c0.7,1,1.4,1.9,2.2,2.8L93,13.2z"/>
	<path d="M111.7,43.1c-0.3-1.3-0.7-2.6-1.1-3.9l-71.5,71.5c1.3,0.4,2.6,0.8,3.9,1.1L111.7,43.1z"/>
	<path d="M109.4,35.7c-0.5-1.2-1-2.3-1.5-3.5l-75.6,75.6c1.1,0.5,2.3,1.1,3.5,1.5L109.4,35.7z"/>
	<path d="M102.4,23.2c-0.7-1-1.4-1.9-2.2-2.8l-79.9,79.9c0.9,0.8,1.9,1.5,2.8,2.2L102.4,23.2z"/>
	<path d="M106.2,29.1c-0.6-1.1-1.2-2.1-1.9-3.1L26,104.4c1,0.7,2.1,1.3,3.1,1.9L106.2,29.1z"/>
</g>
</svg>
