<?xml version="1.0" encoding="utf-8"?>
<!-- Generator: Adobe Illustrator 25.3.1, SVG Export Plug-In . SVG Version: 6.00 Build 0)  -->
<svg version="1.1" id="Ebene_1" xmlns="http://www.w3.org/2000/svg" xmlns:xlink="http://www.w3.org/1999/xlink" x="0px" y="0px"
	 viewBox="0 0 113.4 113.4" style="enable-background:new 0 0 113.4 113.4;" xml:space="preserve">
<g>
	<rect x="4.2" y="4.2" transform="matrix(0.7071 -0.7071 0.7071 0.7071 -5.8707 14.1732)" width="20" height="20"/>
	<rect x="32.5" y="4.2" transform="matrix(0.7071 -0.7071 0.7071 0.7071 2.4317 34.2172)" width="20" height="20"/>
	<rect x="60.8" y="4.2" transform="matrix(0.7071 -0.7071 0.7071 0.7071 10.7342 54.2612)" width="20" height="20"/>
	<rect x="89.2" y="4.2" transform="matrix(0.7071 -0.7071 0.7071 0.7071 19.0367 74.3051)" width="20" height="20"/>
	<rect x="4.2" y="32.5" transform="matrix(0.7071 -0.7071 0.7071 0.7071 -25.9147 22.4757)" width="20" height="20"/>
	<rect x="32.5" y="32.5" transform="matrix(0.7071 -0.7071 0.7071 0.7071 -17.6122 42.5197)" width="20" height="20"/>
	<rect x="60.8" y="32.5" transform="matrix(0.7071 -0.7071 0.7071 0.7071 -9.3097 62.5637)" width="20" height="20"/>
	<rect x="89.2" y="32.5" transform="matrix(0.7071 -0.7071 0.7071 0.7071 -1.0073 82.6076)" width="20" height="20"/>
	<rect x="4.2" y="60.8" transform="matrix(0.7071 -0.7071 0.7071 0.7071 -45.9587 30.7782)" width="20" height="20"/>
	<rect x="32.5" y="60.8" transform="matrix(0.7071 -0.7071 0.7071 0.7071 -37.6562 50.8222)" width="20" height="20"/>
	<rect x="60.8" y="60.8" transform="matrix(0.7071 -0.7071 0.7071 0.7071 -29.3537 70.8661)" width="20" height="20"/>
	<rect x="89.2" y="60.8" transform="matrix(0.7071 -0.7071 0.7071 0.7071 -21.0512 90.9101)" width="20" height="20"/>
	<rect x="4.2" y="89.2" transform="matrix(0.7071 -0.7071 0.7071 0.7071 -66.0027 39.0807)" width="20" height="20"/>
	<rect x="32.5" y="89.2" transform="matrix(0.7071 -0.7071 0.7071 0.7071 -57.7002 59.1247)" width="20" height="20"/>
	<rect x="60.8" y="89.2" transform="matrix(0.7071 -0.7071 0.7071 0.7071 -49.3977 79.1686)" width="20" height="20"/>
	<rect x="89.2" y="89.2" transform="matrix(0.7071 -0.7071 0.7071 0.7071 -41.0952 99.2126)" width="20" height="20"/>
</g>
</svg>
