<?xml version="1.0" encoding="utf-8"?>
<!-- Generator: Adobe Illustrator 25.3.1, SVG Export Plug-In . SVG Version: 6.00 Build 0)  -->
<svg version="1.1" id="Ebene_1" xmlns="http://www.w3.org/2000/svg" xmlns:xlink="http://www.w3.org/1999/xlink" x="0px" y="0px"
	 viewBox="0 0 113.4 113.4" style="enable-background:new 0 0 113.4 113.4;" xml:space="preserve">
<g>
	<path d="M78.5,68.1c-10.4,24.3-19.4,45.3-50.2,45.3v0h39.3c11.4-10.6,17.9-25.7,23.9-39.7c6.2-14.4,11.8-27.6,21.8-36V20.5
		C94.7,30.4,86.2,50.1,78.5,68.1z"/>
	<path d="M23.4,0H6C3.8,3.5,1.8,7.2,0,11v34.7c2.3-4.8,4.5-9.8,6.5-14.6C11.6,19.3,16.4,8.2,23.4,0z"/>
	<path d="M113.4,102.4V67.7c-2.3,4.8-4.5,9.8-6.5,14.6c-5.1,11.8-9.8,22.9-16.9,31.1h17.5C109.6,109.9,111.6,106.2,113.4,102.4z"/>
	<path d="M34.9,45.3C45.3,21,54.3,0,85,0v0H45.7C34.3,10.6,27.8,25.7,21.8,39.7C15.7,54.1,10,67.3,0,75.7v17.1
		C18.7,83,27.2,63.3,34.9,45.3z"/>
	<path d="M50.2,53.9C39.7,78.2,30.8,99.2,0,99.2v14.2h1.1c39.2-0.5,51.4-28.9,62.1-53.9c10.4-24.3,19.4-45.3,50.2-45.3V0
		C73.3,0,61,28.6,50.2,53.9z"/>
</g>
</svg>
