<?xml version="1.0" encoding="utf-8"?>
<!-- Generator: Adobe Illustrator 25.3.1, SVG Export Plug-In . SVG Version: 6.00 Build 0)  -->
<svg version="1.1" id="Ebene_1" xmlns="http://www.w3.org/2000/svg" xmlns:xlink="http://www.w3.org/1999/xlink" x="0px" y="0px"
	 viewBox="0 0 113.4 113.4" style="enable-background:new 0 0 113.4 113.4;" xml:space="preserve">
<path d="M113.4,1.5c0-0.8-0.7-1.5-1.5-1.5H84.3c0,0,0,0-0.1,0c0,0-0.1,0-0.1,0c0,0-0.1,0-0.1,0c0,0-0.1,0-0.1,0c0,0,0,0-0.1,0
	c0,0,0,0-0.1,0c0,0-0.1,0-0.1,0.1c0,0-0.1,0.1-0.1,0.1c0,0-0.1,0.1-0.1,0.1c0,0,0,0-0.1,0L56.7,27L30.1,0.4c0,0,0,0-0.1,0
	c0,0-0.1-0.1-0.1-0.1c0,0-0.1-0.1-0.1-0.1c0,0-0.1,0-0.1-0.1c0,0,0,0-0.1,0c0,0,0,0-0.1,0c0,0-0.1,0-0.1,0c0,0-0.1,0-0.1,0
	c0,0-0.1,0-0.1,0c0,0,0,0-0.1,0H1.5C0.7,0,0,0.7,0,1.5v27.6c0,0,0,0,0,0.1c0,0,0,0.1,0,0.1c0,0,0,0.1,0,0.1c0,0,0,0.1,0,0.1
	c0,0,0,0,0,0.1c0,0,0,0,0,0.1c0,0,0,0.1,0.1,0.1c0,0,0.1,0.1,0.1,0.1c0,0,0.1,0.1,0.1,0.1c0,0,0,0,0,0.1L27,56.7L0.4,83.3
	c0,0,0,0,0,0.1c0,0-0.1,0.1-0.1,0.1c0,0-0.1,0.1-0.1,0.1c0,0,0,0.1-0.1,0.1c0,0,0,0,0,0.1c0,0,0,0,0,0.1c0,0,0,0.1,0,0.1
	c0,0,0,0.1,0,0.1c0,0,0,0.1,0,0.1c0,0,0,0,0,0.1v27.6c0,0.8,0.7,1.5,1.5,1.5h27.6c0,0,0,0,0,0s0,0,0,0c0.1,0,0.2,0,0.3,0
	c0,0,0.1,0,0.1,0c0,0,0.1,0,0.1,0c0,0,0.1,0,0.1,0c0,0,0,0,0,0c0,0,0,0,0,0c0.1,0,0.2-0.1,0.2-0.1c0,0,0,0,0,0c0,0,0,0,0.1-0.1
	c0,0,0,0,0.1-0.1c0,0,0,0,0.1-0.1l26.6-26.6L83.3,113c0,0,0,0,0.1,0.1c0,0,0,0,0.1,0.1c0,0,0,0,0.1,0.1c0,0,0,0,0,0
	c0.1,0.1,0.2,0.1,0.2,0.1c0,0,0,0,0,0c0,0,0,0,0,0c0,0,0.1,0,0.1,0c0,0,0.1,0,0.1,0c0,0,0,0,0.1,0c0.1,0,0.2,0,0.3,0c0,0,0,0,0,0h0
	h27.6c0.8,0,1.5-0.7,1.5-1.5V84.3c0,0,0,0,0-0.1c0,0,0-0.1,0-0.1c0,0,0-0.1,0-0.1c0,0,0-0.1,0-0.1c0,0,0,0,0-0.1c0,0,0,0,0-0.1
	c0,0,0-0.1-0.1-0.1c0,0-0.1-0.1-0.1-0.1c0,0-0.1-0.1-0.1-0.1c0,0,0,0,0-0.1L86.4,56.7L113,30.1c0,0,0,0,0-0.1c0,0,0.1-0.1,0.1-0.1
	c0,0,0.1-0.1,0.1-0.1c0,0,0-0.1,0.1-0.1c0,0,0,0,0-0.1c0,0,0,0,0-0.1c0,0,0-0.1,0-0.1c0,0,0-0.1,0-0.1c0,0,0-0.1,0-0.1
	c0,0,0,0,0-0.1V1.5z M85.8,108.4V85.8h22.6L85.8,108.4z M27.6,108.4L5,85.8h22.6V108.4z M30.5,60.2l22.6,22.6H30.5V60.2z M32.6,58.2
	h22.6v22.6L32.6,58.2z M58.2,58.2h22.6L58.2,80.8V58.2z M80.8,55.2H58.2V32.6l11.3,11.3L80.8,55.2z M55.2,32.6v22.6H32.6l11.3-11.3
	L55.2,32.6z M82.8,60.2v22.6H60.2L82.8,60.2z M82.8,53.2L71.5,41.9L60.2,30.5h22.6V53.2z M41.9,41.9L30.5,53.2V30.5h22.6L41.9,41.9z
	 M27.6,5v22.6H5L27.6,5z M85.8,5l22.6,22.6H85.8V5z M110.5,2.9v22.6L87.8,2.9H110.5z M82.8,5v22.6H60.2L82.8,5z M30.5,5l22.6,22.6
	H30.5V5z M2.9,2.9h22.6L2.9,25.5V2.9z M27.6,30.5v22.6L5,30.5H27.6z M27.6,60.2v22.6H5L27.6,60.2z M2.9,110.5V87.8l22.6,22.6H2.9z
	 M30.5,108.4V85.8h22.6L30.5,108.4z M82.8,108.4L60.2,85.8h22.6V108.4z M110.5,110.5H87.8l22.6-22.6V110.5z M85.8,82.8V60.2
	l22.6,22.6H85.8z M85.8,53.2V30.5h22.6L85.8,53.2z"/>
</svg>
