<?xml version="1.0" encoding="utf-8"?>
<!-- Generator: Adobe Illustrator 25.3.1, SVG Export Plug-In . SVG Version: 6.00 Build 0)  -->
<svg version="1.1" id="Ebene_1" xmlns="http://www.w3.org/2000/svg" xmlns:xlink="http://www.w3.org/1999/xlink" x="0px" y="0px"
	 viewBox="0 0 113.4 113.4" style="enable-background:new 0 0 113.4 113.4;" xml:space="preserve">
<polygon points="113.4,54 70.8,54 110.5,38.5 108.5,33.6 67.5,49.6 98.7,18.5 94.9,14.7 64.8,44.8 81.9,5.8 77,3.7 59.3,44 59.3,0 
	54,0 54,42.6 38.5,2.9 33.6,4.9 49.6,45.8 18.5,14.7 14.7,18.5 44.8,48.6 5.8,31.5 3.7,36.4 44,54 0,54 0,59.3 42.6,59.3 2.9,74.8 
	4.9,79.8 45.8,63.8 14.7,94.9 18.5,98.7 48.6,68.5 31.5,107.6 36.4,109.7 54,69.4 54,113.4 59.3,113.4 59.3,70.8 74.8,110.5 
	79.8,108.5 63.8,67.5 94.9,98.7 98.7,94.9 68.5,64.8 107.6,81.9 109.7,77 69.4,59.3 113.4,59.3 "/>
</svg>
