<?xml version="1.0" encoding="utf-8"?>
<!-- Generator: Adobe Illustrator 25.3.1, SVG Export Plug-In . SVG Version: 6.00 Build 0)  -->
<svg version="1.1" id="Ebene_1" xmlns="http://www.w3.org/2000/svg" xmlns:xlink="http://www.w3.org/1999/xlink" x="0px" y="0px"
	 viewBox="0 0 113.4 113.4" style="enable-background:new 0 0 113.4 113.4;" xml:space="preserve">
<g>
	<rect x="0" y="0" width="14.2" height="14.2"/>
	<rect x="14.2" y="14.2" width="14.2" height="14.2"/>
	<rect x="0" y="28.3" width="14.2" height="14.2"/>
	<rect x="28.3" y="0" width="14.2" height="14.2"/>
	<rect x="14.2" y="14.2" width="14.2" height="14.2"/>
	<rect x="42.5" y="14.2" width="14.2" height="14.2"/>
	<rect x="28.3" y="28.3" width="14.2" height="14.2"/>
	<rect x="56.7" y="0" width="14.2" height="14.2"/>
	<rect x="70.9" y="14.2" width="14.2" height="14.2"/>
	<rect x="56.7" y="28.3" width="14.2" height="14.2"/>
	<rect x="85" y="0" width="14.2" height="14.2"/>
	<rect x="70.9" y="14.2" width="14.2" height="14.2"/>
	<rect x="99.2" y="14.2" width="14.2" height="14.2"/>
	<rect x="85" y="28.3" width="14.2" height="14.2"/>
	<rect x="0" y="85" width="14.2" height="14.2"/>
	<rect x="14.2" y="99.2" width="14.2" height="14.2"/>
	<rect x="28.3" y="85" width="14.2" height="14.2"/>
	<rect x="14.2" y="99.2" width="14.2" height="14.2"/>
	<rect x="42.5" y="99.2" width="14.2" height="14.2"/>
	<rect x="56.7" y="85" width="14.2" height="14.2"/>
	<rect x="70.9" y="99.2" width="14.2" height="14.2"/>
	<rect x="85" y="85" width="14.2" height="14.2"/>
	<rect x="70.9" y="99.2" width="14.2" height="14.2"/>
	<rect x="99.2" y="99.2" width="14.2" height="14.2"/>
	<rect x="14.2" y="42.5" width="14.2" height="14.2"/>
	<rect x="28.3" y="56.7" width="14.2" height="14.2"/>
	<rect x="14.2" y="70.9" width="14.2" height="14.2"/>
	<rect x="42.5" y="42.5" width="14.2" height="14.2"/>
	<rect x="28.3" y="56.7" width="14.2" height="14.2"/>
	<rect x="56.7" y="56.7" width="14.2" height="14.2"/>
	<rect x="42.5" y="70.9" width="14.2" height="14.2"/>
	<rect x="70.9" y="42.5" width="14.2" height="14.2"/>
	<rect x="85" y="56.7" width="14.2" height="14.2"/>
	<rect x="70.9" y="70.9" width="14.2" height="14.2"/>
	<rect x="99.2" y="42.5" width="14.2" height="14.2"/>
	<rect x="85" y="56.7" width="14.2" height="14.2"/>
	<rect x="0" y="56.7" width="14.2" height="14.2"/>
	<rect x="99.2" y="70.9" width="14.2" height="14.2"/>
</g>
</svg>
